<svg width="315" height="397" viewBox="0 0 315 397" fill="none" xmlns="http://www.w3.org/2000/svg">
<path d="M137.049 45.7959L136.149 45.2533L136.296 46.2941L140.28 74.4801H117.475L125.607 36.5751L125.659 36.3338L125.499 36.146C120.946 30.8023 117.903 24.2981 118.412 17.0406L117.913 17.0056L118.412 17.0406C118.778 11.8187 120.861 8.237 123.833 5.93296C126.818 3.61807 130.749 2.55683 134.855 2.48414C138.959 2.41149 143.201 3.32797 146.767 4.92477C150.343 6.52588 153.182 8.78393 154.558 11.3504L154.558 11.3504C157.393 16.6339 158.672 26.0766 158.29 34.4826C158.099 38.6761 157.496 42.5681 156.49 45.5161C155.987 46.9904 155.389 48.2075 154.708 49.1056C154.027 50.0031 153.285 50.5545 152.491 50.7589L152.491 50.759C151.139 51.1076 148.915 50.8657 146.161 50.0086C143.431 49.159 140.258 47.7297 137.049 45.7959Z" fill="white" stroke="black"/>
<path d="M137.479 19.2341L137.576 19.0902C139.662 15.985 141.712 13.5387 144.42 12.109L144.533 12.0492L144.661 12.0512C147.289 12.0927 149.31 12.0053 150.868 11.7585C152.426 11.5114 153.477 11.1107 154.198 10.5577C155.569 9.5058 155.92 7.76405 155.938 4.71801C155.065 4.17199 153.305 3.44188 150.961 2.76562C148.431 2.03574 145.277 1.38463 141.945 1.09889L141.897 1.09475L141.85 1.08142C138.53 0.131002 134.576 0.305572 130.756 1.90359L130.728 1.91515L130.7 1.92333C125.883 3.29008 120.557 5.85731 118.831 11.1355L118.815 11.1854L118.789 11.2308C115.595 16.7411 115.565 22.4384 117.153 27.2601C118.687 31.9169 121.721 35.7282 124.832 37.7376C126.389 35.8746 127.77 34.0634 129.017 32.3194C127.984 31.169 127.356 29.6475 127.356 27.9801C127.356 24.3903 130.266 21.4801 133.856 21.4801C134.12 21.4801 134.38 21.4958 134.635 21.5264L135.06 21.5771L135.076 22.0049C135.15 24.0733 135.341 28.6049 135.713 33.2248C136.088 37.868 136.641 42.5271 137.425 44.894C137.855 46.193 138.815 47.2777 140.125 48.1782C141.436 49.0789 143.07 49.7747 144.788 50.3009C148.226 51.354 151.915 51.7011 153.807 51.7011C154.562 51.7011 155.072 51.5235 155.426 51.2667C155.781 51.0091 156.026 50.6381 156.192 50.1699C156.533 49.2028 156.494 47.9484 156.452 46.7892L156.452 46.7879C156.451 46.7458 156.449 46.7037 156.448 46.6618C156.439 46.3881 156.429 46.1191 156.429 45.8727C156.411 45.8641 156.379 45.8518 156.328 45.8394C156.105 45.7853 155.775 45.7826 155.326 45.7831L137.479 19.2341ZM137.479 19.2341L137.492 19.4069L137.493 19.4121C137.509 19.6285 137.869 24.4087 138.952 29.1669C139.499 31.5662 140.237 33.9952 141.226 35.8356C142.198 37.6433 143.514 39.0648 145.282 39.0648C148.939 39.0648 152.249 37.6743 154.809 36.5984L154.841 36.5851C155.699 36.2247 156.463 35.9038 157.141 35.6719C157.824 35.4381 158.374 35.3112 158.806 35.3112C159.17 35.3112 159.34 35.4206 159.429 35.5276C159.53 35.6492 159.604 35.8619 159.593 36.1979C159.571 36.8769 159.207 37.8127 158.614 38.6419L158.614 38.6421C158.473 38.8397 158.194 39.0738 157.773 39.3488C157.361 39.6177 156.864 39.8937 156.326 40.1921C156.326 40.1921 156.326 40.1921 156.326 40.1921L156.303 40.2049C155.465 40.6703 154.53 41.1895 153.805 41.7727C153.089 42.3488 152.45 43.0888 152.45 44.0201C152.45 44.4238 152.553 44.7747 152.769 45.0568C152.982 45.3349 153.27 45.5004 153.56 45.6008C154.097 45.7868 154.764 45.7848 155.284 45.7832L155.326 45.7831L137.479 19.2341Z" fill="#191847" stroke="black"/>
<path d="M145.592 285.07L109.518 158.48H162.307L190.288 378.48H171.941L145.592 285.071L145.592 285.07Z" fill="#191847" stroke="black"/>
<path d="M162.195 158.48C144.552 220.828 132.847 256.348 129.06 265.079C125.254 273.851 107.011 311.644 74.3169 378.48H55.3591C68.1099 343.884 77.793 317.17 84.4081 298.338C87.7369 288.861 90.2897 281.378 92.0659 275.89C93.8357 270.421 94.8489 266.891 95.0766 265.351L95.0766 265.351C95.9598 259.372 98.8075 223.74 99.6535 158.48H162.195Z" fill="#2F3676" stroke="black"/>
<path d="M112.654 393.161C112.945 393.245 113.181 393.311 113.356 393.36V396.48H75.8942L62.932 394.486L62.3559 394.397V394.98V396.48H53.3803L54.3327 376.48H74.6981C82.2016 381.725 91.9322 385.961 99.7823 388.886C103.734 390.359 107.218 391.502 109.714 392.278C110.962 392.666 111.964 392.962 112.654 393.161Z" fill="#191847" stroke="black"/>
<path d="M228.654 393.161C228.945 393.245 229.181 393.311 229.356 393.36V396.48H191.894L178.932 394.486L178.356 394.397V394.98V396.48H169.38L170.333 376.48H190.698C198.202 381.725 207.932 385.961 215.782 388.886C219.734 390.359 223.218 391.502 225.714 392.278C226.962 392.666 227.964 392.962 228.654 393.161Z" fill="#191847" stroke="black"/>
<path d="M49.4313 146.89L49.3286 147.167C49.1696 147.595 48.936 148.224 48.6373 149.026C48.04 150.63 47.1826 152.928 46.1421 155.703C44.061 161.252 41.2473 168.708 38.3169 176.335C35.3868 183.963 32.339 191.764 29.79 198.002C28.5157 201.12 27.3648 203.852 26.4147 205.977C25.4719 208.086 24.7094 209.638 24.2137 210.366C23.7055 211.113 22.5657 212.114 21.0905 213.23C19.5953 214.361 17.6965 215.653 15.6108 216.981C11.4392 219.638 6.49465 222.457 2.48279 224.452C1.01254 225.183 0.553886 226.121 0.504631 226.903C0.452342 227.733 0.851349 228.471 1.23163 228.786C1.23165 228.786 1.23166 228.786 1.23168 228.786L0.912414 229.171L49.4313 146.89ZM49.4313 146.89L66.0807 149.308L66.0402 149.396L65.1316 151.365C64.3478 153.064 63.2258 155.495 61.873 158.423C59.1673 164.279 55.5383 172.125 51.845 180.082C48.1516 188.039 44.3941 196.108 41.4314 202.41C38.4608 208.728 36.3052 213.236 35.8039 214.105C34.3801 216.574 34.3229 219.78 34.7853 222.942C35.2489 226.113 36.252 229.341 37.052 231.916L37.0555 231.927C37.243 232.531 37.4191 233.099 37.5756 233.623C36.2815 233.899 35.4073 233.661 34.7216 233.199C33.9079 232.649 33.3021 231.751 32.6125 230.713L32.2004 230.987L32.6125 230.713L32.5843 230.671C31.8403 229.552 31.0006 228.288 29.7058 227.518C28.3571 226.716 26.5959 226.488 24.0933 227.251C22.2134 227.824 20.4106 228.558 18.6729 229.266L18.6576 229.272L18.8462 229.735L49.4313 146.89ZM280.438 83.7854L280.257 83.5032L279.928 83.5632L248.636 89.2515L253.257 75.3012H280.772C284.356 76.528 289.576 77.3969 294.799 78.2663C295.826 78.4372 296.852 78.6081 297.867 78.7817C300.989 79.3162 304.004 79.8774 306.581 80.544C309.144 81.207 311.217 81.9611 312.529 82.8616C312.818 83.1695 313.104 83.5359 313.299 83.8944C313.512 84.2857 313.566 84.5754 313.523 84.7521C313.496 84.8667 313.394 85.0651 312.866 85.1908C312.324 85.3202 311.433 85.3395 310.044 85.1345C307.223 84.7179 304.289 84.3493 301.939 84.3243C300.766 84.3118 299.708 84.3841 298.871 84.5922C298.054 84.795 297.32 85.1588 296.99 85.8346C296.721 86.3841 296.736 86.9546 296.853 87.4863C296.967 88.0006 297.191 88.5302 297.399 89.0236L297.407 89.0441C297.954 90.3438 298.389 91.4523 297.717 92.55C296.259 92.8967 293.6 93.162 290.534 92.1954C287.345 91.1903 283.676 88.8417 280.438 83.7854Z" fill="white" stroke="black"/>
<path d="M136.124 76.3569C133.109 73.2091 130.452 70.4342 128.452 68.4993L132.784 58.6712C170.196 72.4255 211.595 79.9889 258.756 72.948L264.07 89.4795C259.957 90.7727 255.904 92.0839 251.906 93.3771C238.506 97.7115 225.729 101.845 213.406 104.427C197.276 107.808 181.991 108.515 167.218 103.545C164.811 102.736 161.694 100.655 158.207 97.8075C154.733 94.971 150.941 91.4141 147.192 87.7038C143.444 83.9944 139.746 80.1392 136.459 76.7073C136.347 76.59 136.235 76.4732 136.124 76.3569Z" fill="#C5CFD6" stroke="black"/>
<path d="M168.181 156.47L168.181 156.47C168.665 157.656 168.825 159.131 168.604 160.339C168.38 161.571 167.811 162.339 167.001 162.489C153.521 164.978 135.01 164.981 119.84 164.356C112.261 164.044 105.527 163.575 100.688 163.185C98.2681 162.99 96.3226 162.814 94.9823 162.688C94.3122 162.624 93.7934 162.573 93.4423 162.538C93.4264 162.536 93.4109 162.535 93.3957 162.533C97.3358 116.184 106.438 83.9611 126.091 55.8899C126.147 55.897 126.211 55.905 126.281 55.9137C126.597 55.9526 127.052 56.0056 127.612 56.0621C128.731 56.1751 130.271 56.3023 131.952 56.359C133.632 56.4156 135.462 56.4021 137.16 56.2311C138.526 56.0934 139.836 55.851 140.919 55.4441C141.12 82.9157 152.178 117.257 168.181 156.47Z" fill="#323337" stroke="black"/>
<path d="M120.149 53.4804H120.302L120.378 53.4288L120.375 53.4804H120.905H128.776C129.185 56.4046 129.775 65.1866 130.622 77.7787L130.624 77.8119L130.625 77.8257C132.244 101.909 134.786 139.743 138.769 176.494C142.705 212.818 148.054 248.149 155.329 268.086H54.7662C57.0132 223.391 73.4757 170.018 90.548 124.626L89.7274 124.096C77.0692 136.691 62.3281 157.734 50.3941 192.654L32.2467 187.996C51.7444 104.742 108.37 61.7966 119.352 54.1344L119.468 54.0533L119.525 53.9233C119.585 53.7836 119.646 53.6434 119.706 53.5038C119.71 53.496 119.713 53.4882 119.716 53.4804H120.149Z" fill="#DDE3E9" stroke="black"/>
<path fill-rule="evenodd" clip-rule="evenodd" d="M167.325 21.3959C167.244 21.3824 167.163 21.3697 167.083 21.3578C167.019 21.322 166.945 21.2944 166.859 21.2778C166.662 21.2278 166.466 21.1941 166.271 21.1759C163.468 20.5451 156.983 21.4408 156.716 23.8328C155.823 24.1307 155.051 23.8639 154.016 23.8904C153.229 20.5988 139.614 21.0634 138.959 23.0479C138.957 23.0472 138.954 23.0466 138.952 23.0458C138.323 22.8511 137.395 22.8981 136.675 22.8672C135.137 22.835 133.598 22.9721 132.094 23.2963C129.277 23.744 125.432 24.2682 127.391 27.786C127.392 27.7866 127.392 27.7873 127.392 27.7879L127.393 27.7876C127.73 28.1337 128.303 27.855 128.325 27.3865C127.666 25.7199 129.154 25.5198 130.298 25.0408C133.147 24.0175 136.047 23.8757 138.992 24.1922C139.214 24.4531 139.55 24.6807 139.906 24.7997C141.875 25.1267 140.837 26.5878 142.082 26.8002C141.854 31.8933 148.037 34.6733 151.62 31.3253C153.051 29.9268 153.392 27.855 153.723 25.9875C153.899 25.9481 154.01 25.8522 154.075 25.7253C154.497 25.3042 154.762 24.9154 155.596 24.7997C156.43 24.6842 157.072 24.9162 157.159 24.9872C157.181 25.0313 157.204 25.0755 157.231 25.1197C157.27 25.1856 157.321 25.2382 157.38 25.2796C156.557 30.3512 160.494 33.5586 164.469 30.9282C166.196 29.3036 166.561 26.8163 166.633 24.5962C166.867 24.4549 167.015 24.1811 166.934 23.8369C166.823 23.3624 167.084 22.9515 167.502 22.7452C168.044 22.4773 167.948 21.4989 167.325 21.3959ZM150.246 23.8019C149.753 23.6934 149.542 24.4541 150.037 24.5629C150.388 24.6399 150.685 24.8167 150.885 25.1161L150.906 25.1486C151.176 25.5772 151.857 25.1816 151.585 24.7503C151.28 24.265 150.806 23.925 150.246 23.8019ZM164.696 23.3303C164.522 23.2078 164.259 23.2987 164.158 23.4718C164.047 23.6625 164.12 23.8747 164.283 23.9995L164.299 24.0116C164.449 24.1169 164.594 24.3057 164.613 24.4991L164.614 24.5233C164.634 25.0295 165.42 25.032 165.401 24.5233C165.381 24.0256 165.093 23.6098 164.696 23.3303Z" fill="black"/>
</svg>
