<svg width="491" height="378" viewBox="0 0 491 378" fill="none" xmlns="http://www.w3.org/2000/svg">
<path fill-rule="evenodd" clip-rule="evenodd" d="M403.413 221.829C397.259 222.133 387.676 224.773 387.197 226.46C386.448 229.094 388.056 238.97 385.367 244.289C384.221 246.557 379.868 246.354 378.182 247.092C372.539 249.563 355.834 254.249 352.389 260.15C351.009 262.514 342.529 291.847 338.023 306.812C337.515 308.499 336.941 310.06 336.318 311.505L336.088 310.382C334.251 301.337 333.333 295.862 333.333 293.955C333.333 290.977 335.708 278.41 333.333 275.214C330.981 272.051 325.315 269.464 322.766 269.412L322.689 269.411C321.015 269.411 319.563 268.888 318.332 267.841L316.527 266.933C307.346 262.324 301.982 259.796 300.435 259.349C297.966 258.635 293.765 260.156 295.866 262.439C297.266 263.961 300.785 266.654 306.423 270.518L308.548 272.208L308.291 272.342C305.544 273.789 303.929 275.007 303.445 275.995C302.947 277.014 303.186 278.22 304.163 279.612L304.015 279.756C302.78 280.969 302.162 281.782 302.162 282.196V284.219C300.934 286.019 300.627 287.52 301.241 288.722C301.855 289.924 302.829 290.966 304.163 291.847C305.145 294.433 306.316 296.274 307.674 297.369C309.032 298.464 311.378 299.376 314.714 300.104L317.733 307.324L320.178 317.468L321.411 328.786L321.053 329.045C319.394 330.254 318.332 331.15 318.332 332.075C318.332 333.518 325.024 367.435 335.436 368.953C337.688 369.281 349.366 367.671 353.201 364.551L353.144 364.888C352.242 370.339 352.433 373.17 353.717 373.38C369.496 375.968 414.309 376.768 488.157 375.779C488.597 336.569 486.61 310.456 482.197 297.439C470.911 264.149 458.468 252.778 454.115 251.804C450.302 250.951 437.079 245.687 433.382 244.289C430.969 243.377 430.452 240.642 427.703 240.642L427.48 240.643C424.821 240.67 422.463 241.146 421.138 239.778C417.662 236.188 418.634 231.218 417.191 226.46C416.397 223.838 410.966 221.456 403.413 221.829Z" fill="white"/>
<path fill-rule="evenodd" clip-rule="evenodd" d="M420.322 231.23C419.961 230.514 419.002 230.607 418.369 230.932C416.471 232.32 418.457 235.01 418.982 236.704C420.332 239.989 422.678 243.2 425.916 244.735C425.648 248.001 425.344 251.26 425.231 254.536C421.092 259.672 414.112 261.547 407.916 262.989C398.185 265.681 387.202 260.166 383.918 250.543C387.656 248.418 388.866 242.855 387.75 238.974C387.653 238.701 387.231 238.581 387.081 238.885C386.057 240.991 386.194 243.561 385.03 245.641C373.861 246.711 359.446 250.927 352.129 259.963C348.886 264.484 347.601 270.364 346.004 275.603C342.596 286.405 339.881 297.425 336.539 308.238L336.145 306.192C335.065 300.556 334.084 294.844 334.813 289.112L334.826 288.838C335.065 284.278 336.491 275.803 332.956 272.724C329.758 270.279 325.125 268.315 321.112 269.442C313.971 266.263 307.807 260.909 300.201 258.824C297.86 258.342 294.493 258.913 295.046 262.089C296.579 267.646 303.001 269.802 307.39 272.667C304.577 273.43 301.146 276.853 303.345 279.838C303.364 279.891 303.381 279.931 303.398 279.963C301.615 280.754 301.365 282.74 301.802 284.444C301.847 284.894 301.965 284.507 301.701 284.915C299.689 286.813 300.578 292.104 303.609 292.283C303.41 294.789 305.02 297.224 307.059 298.592C309.256 300.065 312.433 300.128 314.253 302.144C318.524 309.679 319.997 318.573 320.463 327.201C317.647 328.255 315.121 331.408 317.679 334.082C317.73 334.088 317.78 334.094 317.831 334.098C319.314 338.057 319.887 342.277 320.671 346.412C321.878 353.466 325.022 359.944 329.037 365.82C333.68 373.6 346.166 372.366 352.456 367.346C352.431 368.663 352.214 369.972 352.636 371.245C353.258 372.619 354.775 372.025 354.926 370.673C358.251 372.543 359.034 366.368 355.338 367.348C355.622 362.884 355.787 358.414 355.921 353.942C360.105 355.297 360.286 348.352 356.005 349.74L356.01 347.82C356.042 333.097 355.879 318.324 353.937 303.717C353.757 302.624 353.453 301.567 353.276 300.481C353.257 300.369 353.081 300.401 353.081 300.508C352.78 320.959 354.116 341.453 352.722 361.91C351.562 362.264 351.099 363.596 350.24 364.372C348.332 366.134 345.734 366.992 343.194 367.291C336.081 368.288 333.01 366.115 329.842 359.93C331.271 360.885 333.201 359.198 332.33 357.686L332.303 357.641C331.399 356.039 328.845 356.999 329.168 358.793C325.983 353.691 324.316 347.937 323.085 342.1L322.919 341.403C322.32 338.925 321.544 336.085 320.107 333.843C328.87 331.608 337.443 324.8 338.815 315.46C341.04 322.454 344.054 329.29 346.927 336.091C347.814 338.456 348.184 340.999 349.456 343.193C349.752 343.7 350.502 343.569 350.669 343.034C351.813 337.918 348.347 333.052 346.547 328.447C345.078 325.844 340.859 313.958 338.244 313.929C341.183 301.044 345.103 288.255 348.835 275.529C352.445 258.347 359.801 255.034 375.383 249.624C372.573 263.953 359.74 277.822 366.569 292.851L366.735 293.241C367.433 294.898 368.013 296.568 367.526 298.387C367.052 300.151 365.975 301.684 365.113 303.271C360.294 312.237 363.611 322.707 365.474 332.044C367.828 342.994 370.153 353.953 372.586 364.886C373.065 367.067 373.376 369.314 374.1 371.427C374.474 372.518 376.34 372.414 376.219 371.142C375.989 368.673 375.296 366.266 374.789 363.842C371.76 348.147 367.661 332.637 365.055 316.873C363.378 305.204 369.978 303.411 369.732 295.872C368.835 292.015 366.46 288.574 366.596 284.465C366.069 271.886 375.227 261.509 376.358 249.275L378.355 248.562C379.353 248.205 380.349 247.845 381.343 247.476C376.113 284.066 377.701 321.455 380.315 358.226C380.85 359.923 380.341 371.775 382.581 370.723C382.694 371.386 383.045 372.037 383.81 372.033C390.755 372.097 397.701 372.207 404.645 372.29C407.986 371.982 412.577 373.258 415.418 371.33C418.699 370.393 419.076 361.506 419.953 358.338L420.295 356.034C425.869 318.391 430.857 279.971 426.85 241.955C432.425 242.169 433.576 248.188 433.989 252.57C435.023 262.242 441.269 270.571 441.569 280.354C441.594 282.728 441.147 285.027 440.198 287.206C437.682 292.545 433.33 298.718 436.583 304.681C440.429 309.323 440.096 310.545 438.685 316.281C434.714 335.246 428.118 353.478 421.845 371.764C423.208 378.871 431.407 352.487 432.178 350.497C435.808 352.323 437.79 346.264 433.627 345.833C436.301 336.879 438.762 327.859 440.811 318.74L440.865 318.483C441.77 314.269 443.55 309.335 440.544 305.598C432.793 297.757 445.664 288.993 444.041 279.494C445.443 280.534 447.565 279.44 447.533 277.693C447.597 275.727 444.956 274.72 443.686 276.22C442.379 268.513 437.834 261.786 436.459 254.102L436.397 253.741C435.931 251.025 435.8 248.168 434.466 245.693C436.281 246.872 438.214 247.825 440.202 248.666C436.648 251.637 443.531 254.347 442.961 249.759C462.455 255.401 466.861 263.269 474.018 281.337C472.681 280.038 470.391 281.719 471.191 283.376C471.829 285.122 474.614 284.612 474.613 282.751L474.94 283.529C479.28 293.91 483.23 304.544 485.215 315.654C481.321 315.104 482.312 321.33 485.84 319.574C487.256 329.455 487.279 339.476 487.106 349.436C483.821 347.713 483.722 353.568 487.074 351.898C486.951 360.061 486.772 368.223 486.637 376.385C486.609 378.123 489.288 378.114 489.33 376.385C489.643 363.844 490.213 351.279 489.942 338.734C490.197 316.959 483.94 295.972 474.617 276.466C466.367 254.007 454.972 251.453 434.008 244.923C432.073 242.049 427.938 239.332 424.564 241.136C422.677 238.088 421.719 234.478 420.322 231.23ZM456.242 309.506C456.164 309.229 455.768 309.298 455.756 309.571C455.58 313.094 455.737 316.641 455.978 320.179C456.124 322.339 456.303 324.497 456.455 326.642C456.859 332.302 457.184 337.968 457.431 343.639C457.345 343.603 457.256 343.571 457.163 343.546C456.736 343.429 456.309 343.429 455.883 343.546C455.502 343.652 455.169 343.838 454.883 344.106L454.822 344.165C454.587 344.382 454.421 344.641 454.323 344.939C454.185 345.204 454.115 345.487 454.115 345.79L454.117 345.866C454.118 346.302 454.226 346.705 454.446 347.082C454.659 347.443 454.947 347.73 455.308 347.946C455.684 348.164 456.088 348.272 456.523 348.273C456.569 348.278 456.616 348.282 456.662 348.284C456.986 348.297 457.287 348.229 457.567 348.083L457.609 348.071C457.714 350.947 457.801 353.826 457.864 356.704C457.921 359.213 457.997 361.722 458.048 364.23L458.072 365.485L458.118 368.259C458.133 369.399 458.125 370.492 458.513 371.567L458.559 371.691C458.838 372.41 459.056 373.41 459.802 373.809C460.397 374.128 461.2 374.01 461.542 373.388C461.83 372.868 461.581 372.12 461.156 371.769C461.164 371.746 461.177 371.725 461.187 371.702C461.253 371.511 461.352 371.332 461.411 371.14C461.598 370.531 461.547 369.882 461.549 369.25C461.549 368.134 461.511 367.018 461.481 365.904C461.416 363.533 461.34 361.164 461.247 358.795C460.933 350.847 460.342 342.899 459.664 334.974L459.435 332.299C459.128 328.741 458.811 325.18 458.363 321.641C458.342 321.472 458.321 321.303 458.297 321.134C458.538 321.014 458.762 320.847 458.94 320.661C459.652 319.913 460.083 318.795 460.488 317.832L460.581 317.613C461.021 316.586 461.426 315.546 461.635 314.443L461.655 314.341C461.751 313.872 461.939 313.039 461.441 312.811C461.181 312.693 461.017 312.777 460.932 313.037C460.921 313.071 460.93 313.109 460.949 313.139C460.744 313.454 460.423 313.748 460.22 314.039L459.526 315.032L459.183 315.531C458.747 316.172 458.283 316.785 457.803 317.389C457.425 314.735 456.962 312.091 456.242 309.506ZM427.775 368.661C426.907 367.98 425.493 368.35 425.493 369.605C425.493 370.867 426.909 371.231 427.775 370.55L427.818 370.518L427.859 370.484C428.331 370.116 428.347 369.156 427.895 368.756L427.859 368.726C427.832 368.703 427.805 368.682 427.775 368.661ZM465.601 366.207L465.527 366.209C465.134 366.209 464.768 366.308 464.428 366.507C464.28 366.619 464.134 366.733 463.987 366.847C463.716 367.118 463.53 367.439 463.427 367.809L463.348 368.388C463.338 368.688 463.399 368.967 463.537 369.227C463.625 369.497 463.775 369.732 463.987 369.929C464.185 370.142 464.418 370.292 464.688 370.379C464.926 370.505 465.18 370.569 465.452 370.569L465.527 370.567C465.922 370.567 466.287 370.468 466.627 370.269C466.775 370.157 466.921 370.043 467.069 369.929C467.337 369.658 467.525 369.337 467.629 368.967C467.654 368.775 467.679 368.58 467.707 368.388C467.717 368.088 467.654 367.809 467.519 367.549C467.43 367.278 467.28 367.044 467.069 366.847C466.87 366.634 466.638 366.483 466.368 366.397C466.129 366.271 465.873 366.207 465.601 366.207ZM366.704 362.189L366.15 362.263C365.62 362.383 365.193 362.774 364.908 363.22C364.756 363.459 364.674 363.717 364.661 363.994C364.6 364.269 364.612 364.546 364.699 364.822C364.762 365.093 364.887 365.329 365.071 365.53C365.134 365.63 365.208 365.721 365.293 365.801C365.466 366.091 365.728 366.281 365.998 366.475C366.226 366.621 366.474 366.699 366.74 366.712C366.915 366.758 367.093 366.758 367.27 366.712C367.534 366.699 367.781 366.621 368.01 366.475C368.145 366.372 368.28 366.266 368.413 366.162C368.531 366.025 368.641 365.883 368.745 365.735C368.814 365.573 368.882 365.412 368.95 365.251C369.074 364.864 369.013 364.522 368.945 364.136C368.935 364.07 368.918 364.011 368.895 363.947L368.849 363.824C368.727 363.503 368.662 363.394 368.447 363.115L368.365 363.005C368.324 362.95 368.282 362.896 368.233 362.848C368.098 362.709 367.906 362.592 367.754 362.472C367.429 362.284 367.078 362.191 366.704 362.189ZM438.433 360.836H438.362C438.056 360.838 437.768 360.915 437.502 361.069L437.156 361.337C436.945 361.551 436.799 361.8 436.716 362.09C436.697 362.242 436.676 362.394 436.655 362.544C436.647 362.779 436.695 362.998 436.803 363.203C436.87 363.415 436.989 363.596 437.156 363.753C437.31 363.918 437.494 364.036 437.705 364.106C437.889 364.202 438.088 364.253 438.299 364.253L438.362 364.252C438.671 364.252 438.958 364.174 439.224 364.019L439.571 363.753C439.782 363.54 439.928 363.288 440.01 362.998C440.029 362.846 440.05 362.696 440.071 362.544C440.08 362.309 440.031 362.09 439.923 361.887C439.854 361.675 439.738 361.492 439.571 361.337C439.416 361.17 439.233 361.052 439.021 360.984C438.837 360.887 438.642 360.838 438.433 360.836ZM452.375 360.137C451.934 360.133 451.486 360.257 451.125 360.513C450.774 360.762 450.508 361.031 450.337 361.434C450.29 361.545 450.244 361.652 450.203 361.762C450.022 362.246 449.988 362.732 450.239 363.206C450.482 363.664 451.006 363.865 451.476 364.002C451.872 364.121 452.322 364.14 452.718 363.998C452.914 363.928 453.106 363.854 453.284 363.747C453.615 363.542 453.795 363.298 454.017 362.998C454.19 362.703 454.277 362.381 454.277 362.039C454.277 361.694 454.19 361.375 454.017 361.077C453.677 360.496 453.047 360.141 452.375 360.137ZM474.77 360.545C474.212 360.545 473.722 360.803 473.386 361.238C473.046 361.68 472.921 362.229 473.071 362.777C473.23 363.356 473.709 363.863 474.303 364.009C474.742 364.116 475.101 364.112 475.539 364.038C475.909 363.975 476.191 363.755 476.475 363.527C476.798 363.262 476.897 362.781 476.844 362.392C476.794 362.003 476.614 361.749 476.341 361.519L476.34 361.513L476.441 361.591C476.403 361.557 476.365 361.521 476.327 361.485C476.314 361.464 476.304 361.441 476.293 361.418C476.137 361.151 475.925 360.942 475.661 360.786C475.385 360.625 475.089 360.545 474.77 360.545ZM344.715 354.143C344.409 354.061 344.101 354.061 343.794 354.143C343.568 354.196 343.372 354.299 343.205 354.453C343.035 354.564 342.897 354.705 342.793 354.88L342.759 354.94C342.518 355.35 342.48 355.819 342.584 356.275C342.712 356.84 343.232 357.353 343.794 357.486L343.813 357.49L343.832 357.495C344.06 357.567 344.291 357.577 344.519 357.525C344.749 357.514 344.963 357.446 345.159 357.32C345.408 357.159 345.617 356.952 345.778 356.702C345.905 356.504 345.972 356.29 345.983 356.06C346.023 355.908 346.023 355.756 345.983 355.603C345.972 355.373 345.905 355.159 345.778 354.961L345.508 354.612L345.48 354.589C345.264 354.373 345.009 354.225 344.715 354.143ZM365.986 342.958C363.216 342.958 363.22 347.257 365.986 347.257C368.755 347.257 368.751 342.958 365.986 342.958ZM467.39 342.415C467.099 342.35 466.807 342.362 466.518 342.453C466.342 342.527 466.169 342.601 465.996 342.673L465.552 343.016C465.47 343.085 465.43 343.161 465.354 343.26L465.258 343.385C465.121 343.569 465.118 343.608 464.967 344C464.866 344.376 464.866 344.752 464.967 345.129C465.016 345.311 465.089 345.482 465.185 345.64C465.271 345.792 465.375 345.926 465.493 346.049L465.552 346.109C465.751 346.323 465.985 346.473 466.256 346.562C466.427 346.661 466.611 346.71 466.807 346.71C467.099 346.775 467.39 346.763 467.68 346.671C467.855 346.598 468.028 346.524 468.202 346.452L468.645 346.109L468.987 345.666L469.096 345.405L469.207 345.144L469.285 344.562C469.296 344.26 469.235 343.981 469.097 343.719C469.045 343.535 468.951 343.372 468.816 343.237C468.719 343.072 468.588 342.941 468.423 342.844C468.288 342.709 468.125 342.616 467.942 342.563C467.77 342.464 467.587 342.415 467.39 342.415ZM330.4 339.344C330.17 339.336 329.954 339.384 329.756 339.49C329.686 339.513 329.618 339.543 329.553 339.577C329.297 339.727 329.094 339.929 328.944 340.183C328.822 340.378 328.754 340.587 328.744 340.813C328.698 341.017 328.702 341.222 328.757 341.426L328.775 341.487C328.822 341.654 328.891 341.808 328.984 341.95C328.993 341.967 329.003 341.984 329.016 341.999C329.158 342.223 329.346 342.406 329.578 342.544C329.836 342.692 330.113 342.768 330.413 342.77C331.01 342.77 331.526 342.447 331.841 341.95C331.885 341.88 331.91 341.791 331.942 341.72C331.97 341.652 332.014 341.566 332.037 341.487C332.117 341.187 332.117 340.887 332.037 340.587C331.985 340.367 331.885 340.175 331.735 340.012C331.615 339.828 331.456 339.682 331.26 339.577C331.016 339.434 330.754 339.359 330.476 339.346L330.4 339.344ZM447.341 337.241C447.049 337.161 446.758 337.155 446.467 337.223L446.394 337.241C446.162 337.296 445.961 337.402 445.788 337.558C445.596 337.685 445.442 337.852 445.33 338.059C445.169 338.336 445.089 338.636 445.087 338.957C445.089 339.279 445.169 339.579 445.33 339.855C445.488 340.124 445.702 340.335 445.97 340.494L446.202 340.606C446.396 340.728 446.604 340.794 446.828 340.804C446.977 340.845 447.128 340.845 447.275 340.804C447.428 340.804 447.569 340.767 447.7 340.69C447.844 340.65 447.966 340.578 448.072 340.473C448.256 340.354 448.399 340.198 448.505 340.001L448.676 339.598L448.735 339.15L448.676 338.704L448.583 338.484C448.499 338.182 448.346 337.92 448.125 337.698C447.903 337.478 447.641 337.326 447.341 337.241ZM342.569 333.676C342.261 333.579 341.954 333.566 341.648 333.633C341.441 333.633 341.247 333.686 341.067 333.792C340.87 333.847 340.701 333.944 340.558 334.088C340.306 334.25 340.11 334.466 339.964 334.734L339.732 335.286C339.592 335.643 339.643 336.17 339.727 336.529C339.797 336.825 339.932 337.083 340.133 337.302C340.234 337.474 340.37 337.609 340.541 337.71C340.736 337.889 340.962 338.015 341.218 338.09L341.289 338.11L341.314 338.116C341.318 338.118 341.322 338.118 341.327 338.118C341.329 338.12 341.333 338.12 341.335 338.12C341.436 338.146 341.54 338.16 341.648 338.165C341.954 338.232 342.261 338.22 342.569 338.123C342.751 338.046 342.934 337.968 343.118 337.89C343.274 337.772 343.429 337.651 343.585 337.531C343.705 337.374 343.826 337.218 343.946 337.064C344.116 336.8 344.206 336.512 344.219 336.205C344.274 336.001 344.274 335.798 344.219 335.593C344.219 335.383 344.166 335.191 344.063 335.011C343.97 334.724 343.811 334.477 343.585 334.268C343.429 334.147 343.274 334.026 343.118 333.908C342.934 333.83 342.751 333.752 342.569 333.676ZM477.315 326.109C476.997 326.023 476.677 326.023 476.358 326.109L475.93 326.289C475.718 326.403 475.551 326.557 475.425 326.754C475.264 326.927 475.156 327.132 475.102 327.367C474.977 327.688 474.991 328.197 475.091 328.525C475.203 328.897 475.376 329.193 475.644 329.472C476.09 329.933 476.775 330.066 477.381 329.926C477.548 329.888 477.706 329.814 477.85 329.723C478.308 329.44 478.617 328.946 478.615 328.398C478.615 328.339 478.61 328.28 478.602 328.221C478.632 328.1 478.642 327.976 478.638 327.844L478.575 327.367L478.571 327.354C478.486 327.052 478.334 326.79 478.112 326.568C477.907 326.365 477.668 326.218 477.395 326.13L477.326 326.109H477.315ZM317.895 278.651C318.472 273.917 320.642 268.825 327.26 271.604L327.752 271.789C329.389 272.409 331.298 273.224 332.294 274.656C332.981 275.643 332.749 277.556 332.844 278.708C333.275 282.453 333.044 286.193 332.594 289.922C332.014 298.663 333.851 307.72 337.509 315.664C333.848 321.59 328.949 327.116 322.266 329.586C321.983 322.849 320.665 316.236 319.262 309.662L319.206 309.376C318.645 306.411 318.364 303.369 316.418 300.904C312.459 296.604 307.015 299.038 304.409 292.131C304.957 291.854 304.655 290.907 303.995 291.089C301.71 291.494 301.339 287.257 302.903 286.236C304.532 285.242 302.892 283.408 303.586 282.085C303.972 281.514 304.807 281.495 305.185 280.838C306.188 278.418 301.17 276.868 307.071 274.14C308.279 273.71 309.629 273.976 310.847 273.972C312.639 274.139 314.063 275.402 315.702 275.799C313.917 280.421 318.42 284.872 322.483 281.181C324.695 283.271 327.168 288.038 321.792 285.816C319.161 284.059 316.896 281.789 313.842 280.707L313.778 280.687C312.644 280.315 307.683 277.904 307.929 279.991C309.787 281.785 312.852 281.764 315.004 283.22C317.988 284.601 319.896 287.945 323.468 287.899C324.291 292.901 318.617 289.858 316.505 288.478L315.919 288.16C312.938 286.55 309.913 285.058 306.438 285.038C305.478 285.031 305.483 286.511 306.438 286.523C310.967 286.552 314.654 289.384 318.448 291.49C318.822 294.41 314.548 293.132 312.926 292.701C311.225 292.462 308.494 290.622 307.006 291.594C306.424 293.09 308.985 292.979 309.877 293.433C305.806 295.389 309.373 296.621 310.464 293.614L310.784 293.723C313.511 294.64 320.122 296.527 319.335 291.907C320.333 292.348 321.55 292.612 322.652 292.367C325.402 296.436 329.788 294.861 323.413 292.088C324.85 291.42 325.329 288.839 323.949 287.878C328.968 287.572 325.242 282.305 323.165 280.549C323.361 280.351 323.551 280.149 323.728 279.944C324.926 280.515 326.185 280.861 327.531 280.984C328.819 281.1 329.106 278.906 327.835 278.727C326.472 278.534 325.217 278.171 324.017 277.486C322.199 276.7 321.578 280.076 319.758 280.196C318.765 280.392 318.093 279.521 317.895 278.651ZM360.144 322.208C359.704 322.208 359.314 322.392 358.995 322.683C358.676 322.975 358.538 323.413 358.519 323.831C358.511 324.055 358.557 324.264 358.659 324.459C358.724 324.659 358.836 324.833 358.995 324.981C359.29 325.274 359.728 325.456 360.144 325.456C360.583 325.456 360.974 325.272 361.293 324.981C361.612 324.687 361.75 324.252 361.769 323.831C361.777 323.609 361.73 323.4 361.629 323.205C361.57 323.025 361.474 322.864 361.339 322.728L361.293 322.683C360.997 322.387 360.56 322.208 360.144 322.208ZM346.829 312.184L346.758 312.185C346.386 312.188 346.042 312.281 345.721 312.467C345.581 312.574 345.442 312.68 345.304 312.788C345.049 313.046 344.874 313.348 344.776 313.697C344.677 314.06 344.677 314.426 344.776 314.789C344.81 314.999 344.888 315.202 345.011 315.377C345.193 315.679 345.433 315.922 345.738 316.102C346.053 316.286 346.393 316.377 346.758 316.379C347.123 316.377 347.464 316.286 347.779 316.102C348.083 315.922 348.324 315.679 348.503 315.377C348.628 315.202 348.706 314.999 348.74 314.789C348.839 314.426 348.839 314.06 348.74 313.697C348.65 313.373 348.492 313.089 348.265 312.844L348.212 312.788C348.026 312.587 347.806 312.446 347.55 312.363C347.326 312.245 347.085 312.185 346.829 312.184ZM448.448 312.297C448.292 312.255 448.138 312.255 447.981 312.297C447.749 312.308 447.531 312.378 447.33 312.505C447.212 312.598 447.094 312.689 446.976 312.78L446.872 312.903C446.652 313.172 446.646 313.218 446.477 313.627C446.407 313.855 446.397 314.084 446.447 314.312C446.447 314.466 446.487 314.61 446.564 314.743C446.606 314.889 446.678 315.016 446.785 315.121C446.862 315.25 446.963 315.354 447.092 315.43C447.257 315.58 447.451 315.683 447.675 315.736L448.129 315.797C448.188 315.789 448.249 315.781 448.309 315.774C448.38 315.772 448.449 315.764 448.517 315.751L448.586 315.736L448.648 315.719C448.731 315.695 448.811 315.663 448.89 315.622C449.038 315.58 449.166 315.506 449.276 315.396C449.466 315.273 449.618 315.108 449.728 314.904L449.758 314.836C449.798 314.764 449.832 314.69 449.857 314.61C449.929 314.483 449.965 314.348 449.967 314.202C450.009 314.008 450.006 313.816 449.956 313.623L449.938 313.559L449.775 313.172C449.69 313.042 449.602 312.908 449.488 312.8C449.419 312.74 449.251 312.609 449.157 312.543L449.099 312.505C448.898 312.378 448.68 312.308 448.448 312.297ZM473.918 309.275C473.614 308.077 472.042 307.699 471.187 308.555C470.331 309.411 470.709 310.983 471.907 311.287L472.044 311.321C473.202 311.615 474.246 310.569 473.952 309.411L473.918 309.275ZM328.91 299.5C328.919 299.382 328.767 299.34 328.69 299.41C327.672 300.323 327.024 301.417 325.788 302.125C324.545 302.836 323.265 302.778 321.97 303.237C321.531 303.393 321.529 303.981 321.97 304.135C324.421 304.991 328.724 302.089 328.91 299.5ZM444.062 299.314C443.789 299.23 443.515 299.217 443.242 299.278C443.056 299.278 442.883 299.325 442.725 299.418C442.549 299.467 442.399 299.555 442.27 299.682C442.116 299.773 441.994 299.898 441.901 300.052C441.719 300.251 441.596 300.483 441.533 300.749L441.461 301.297L441.533 301.844C441.603 302.007 441.673 302.172 441.74 302.335L441.929 302.59C442.082 302.795 442.106 302.797 442.478 303.072C442.714 303.222 442.97 303.305 443.242 303.315C443.424 303.366 443.606 303.366 443.789 303.315C443.973 303.315 444.147 303.269 444.307 303.176C444.48 303.127 444.632 303.038 444.761 302.912C444.985 302.766 445.16 302.573 445.289 302.335C445.359 302.172 445.429 302.007 445.496 301.844L445.57 301.297L445.496 300.749L445.492 300.733C445.395 300.39 445.222 300.092 444.973 299.84L444.563 299.523C444.402 299.42 444.235 299.367 444.062 299.314ZM345.44 299.724C344.855 299.564 344.212 299.733 343.783 300.162C343.354 300.591 343.185 301.231 343.346 301.817C343.504 302.387 343.963 302.85 344.535 303.005C344.706 303.051 344.88 303.076 345.055 303.068C345.349 303.066 345.623 302.992 345.879 302.844L346.209 302.588C346.369 302.44 346.481 302.265 346.547 302.062C346.65 301.868 346.697 301.658 346.688 301.432L346.69 301.392C346.697 301.312 346.686 301.231 346.661 301.153C346.661 301.071 346.648 300.99 346.627 300.912C346.473 300.342 346.008 299.881 345.44 299.724ZM471.601 294.001C471.413 293.995 471.237 294.033 471.075 294.119C470.904 294.174 470.758 294.267 470.635 294.403C470.5 294.525 470.407 294.673 470.352 294.842C470.266 295.005 470.227 295.181 470.234 295.368C470.234 295.616 470.297 295.846 470.42 296.057C470.492 296.151 470.563 296.243 470.635 296.334C470.804 296.505 471.005 296.622 471.237 296.687L471.373 296.734C471.571 296.806 471.766 296.81 471.973 296.783C472.19 296.753 472.391 296.694 472.568 296.558C472.742 296.457 472.879 296.319 472.98 296.146L473.097 295.871C473.122 295.779 473.132 295.639 473.139 295.542C473.139 295.527 473.139 295.514 473.141 295.499C473.141 295.417 473.116 295.216 473.095 295.134C473.048 294.961 472.953 294.796 472.845 294.656C472.752 294.511 472.625 294.396 472.469 294.312L472.455 294.301L472.439 294.291C472.391 294.257 472.34 294.223 472.289 294.187C472.078 294.064 471.848 294.001 471.601 294.001ZM362.504 292.5C362.166 292.5 361.851 292.587 361.56 292.756C361.549 292.76 361.539 292.765 361.53 292.769C361.251 292.934 361.03 293.156 360.865 293.435C360.695 293.724 360.611 294.037 360.611 294.371C360.611 294.707 360.695 295.018 360.865 295.307C361.03 295.586 361.251 295.808 361.53 295.973C361.539 295.979 361.549 295.983 361.56 295.988C361.851 296.157 362.166 296.241 362.504 296.243C362.84 296.241 363.155 296.157 363.446 295.988C364.017 295.654 364.374 295.03 364.374 294.371C364.374 293.711 364.017 293.088 363.446 292.756C363.155 292.587 362.84 292.5 362.504 292.5ZM450.24 290.056L450.182 290.055C449.958 290.047 449.749 290.093 449.557 290.197C449.356 290.262 449.181 290.374 449.033 290.533L448.725 290.791L448.635 290.863C448.62 290.875 448.606 290.888 448.592 290.901C448.384 291.11 448.243 291.355 448.163 291.638C448.137 291.801 448.116 291.961 448.099 292.124C448.053 292.547 448.302 292.98 448.577 293.28C448.725 293.439 448.9 293.551 449.103 293.618C449.297 293.72 449.508 293.766 449.733 293.758C450.191 293.718 450.626 293.621 450.956 293.265C450.994 293.223 451.03 293.179 451.068 293.134L451.332 292.83C451.532 292.627 451.672 292.388 451.748 292.114C451.769 291.968 451.788 291.824 451.807 291.68C451.826 291.247 451.615 290.841 451.332 290.533C451.07 290.247 450.626 290.072 450.24 290.056ZM460.904 285.606C458.707 285.606 458.711 289.015 460.904 289.015C463.099 289.015 463.095 285.606 460.904 285.606ZM350.436 280.826L350.367 280.828C350.003 280.83 349.663 280.921 349.348 281.104L348.939 281.419C348.689 281.673 348.516 281.969 348.419 282.311C348.396 282.491 348.372 282.671 348.347 282.848C348.336 283.127 348.396 283.387 348.522 283.628C348.603 283.877 348.742 284.095 348.939 284.279C349.122 284.475 349.338 284.615 349.589 284.695C349.83 284.822 350.09 284.881 350.367 284.871C350.732 284.868 351.072 284.778 351.387 284.594C351.524 284.488 351.66 284.382 351.797 284.279C352.027 284.045 352.192 283.775 352.291 283.465L352.314 283.387L352.388 282.848C352.399 282.571 352.34 282.311 352.213 282.07C352.133 281.819 351.993 281.603 351.797 281.419C351.613 281.223 351.395 281.083 351.146 281.003C350.926 280.887 350.689 280.827 350.436 280.826ZM360.332 274.445C360.136 274.438 359.954 274.478 359.783 274.567C359.608 274.624 359.455 274.724 359.327 274.861C359.054 275.079 358.887 275.514 358.887 275.867C358.887 276.22 359.054 276.656 359.327 276.873C359.504 277.048 359.713 277.171 359.954 277.239L360.332 277.29C360.7 277.307 361.074 277.114 361.336 276.873C361.389 276.825 361.439 276.776 361.492 276.729C361.731 276.51 361.834 276.182 361.849 275.867C361.855 275.7 361.819 275.544 361.744 275.398C361.695 275.246 361.61 275.117 361.492 275.005C361.439 274.958 361.389 274.91 361.336 274.861C361.05 274.597 360.717 274.464 360.332 274.445ZM297.632 263.076C296.244 261.385 297.052 260.181 299.138 260.599C302.732 261.085 306.114 263.357 309.279 264.987C312.734 266.812 316.294 268.317 319.818 270.032C318.364 270.925 317.282 272.323 316.456 273.919C314.807 272.666 312.7 272.067 310.642 271.989C306.909 268.412 300.727 267.593 297.632 263.076ZM461.643 268.692C461.267 268.694 460.914 268.782 460.584 268.959L460.513 268.998L460.061 269.349C459.841 269.552 459.687 269.793 459.596 270.07C459.457 270.336 459.394 270.626 459.404 270.934C459.394 271.243 459.457 271.53 459.596 271.797C459.687 272.076 459.841 272.314 460.061 272.517C460.186 272.68 460.346 272.807 460.539 272.9C460.718 272.974 460.896 273.05 461.075 273.126C461.276 273.189 461.508 273.198 461.726 273.208C462.121 273.206 462.488 273.107 462.831 272.908L463.275 272.566C463.488 272.367 463.64 272.133 463.729 271.86C463.855 271.62 463.918 271.364 463.918 271.09L463.917 271.015C463.917 270.998 463.917 270.979 463.914 270.96C463.889 270.761 463.862 270.562 463.835 270.364C463.765 270.072 463.632 269.816 463.433 269.601C463.382 269.499 463.315 269.417 463.228 269.349C462.949 269.07 462.62 268.88 462.239 268.772C462.041 268.747 461.842 268.719 461.643 268.692ZM363.616 263.092L363.552 263.093C363.267 263.093 363.003 263.165 362.757 263.307C362.65 263.389 362.544 263.471 362.438 263.554C362.242 263.75 362.107 263.983 362.033 264.249L361.976 264.667C361.969 264.885 362.014 265.086 362.113 265.274C362.176 265.469 362.284 265.638 362.438 265.782C362.58 265.936 362.749 266.044 362.945 266.107C363.131 266.206 363.334 266.251 363.552 266.242C363.835 266.242 364.101 266.17 364.346 266.027C364.452 265.946 364.56 265.864 364.665 265.782C364.843 265.601 364.972 265.391 365.049 265.152L365.069 265.086L365.126 264.667C365.134 264.45 365.09 264.249 364.991 264.061C364.927 263.865 364.817 263.696 364.665 263.554C364.522 263.399 364.352 263.292 364.158 263.228C363.989 263.139 363.808 263.094 363.616 263.092ZM449.295 260.803L449.221 260.804C448.801 260.806 448.41 260.912 448.047 261.123C447.89 261.244 447.734 261.364 447.577 261.487C447.288 261.776 447.089 262.119 446.977 262.514L446.895 263.131C446.882 263.452 446.95 263.75 447.096 264.027C447.189 264.317 447.349 264.566 447.577 264.778C447.786 265.004 448.036 265.164 448.325 265.258C448.602 265.403 448.9 265.471 449.221 265.458C449.642 265.458 450.032 265.352 450.396 265.141C450.552 265.021 450.708 264.898 450.867 264.778C451.154 264.486 451.353 264.143 451.465 263.75L451.547 263.131C451.56 262.812 451.492 262.512 451.347 262.235C451.254 261.948 451.093 261.696 450.867 261.487C450.655 261.259 450.406 261.098 450.117 261.005C449.861 260.87 449.588 260.804 449.295 260.803ZM371.067 254.992C370.874 254.941 370.682 254.941 370.49 254.992C370.203 255.005 369.934 255.091 369.685 255.25L369.248 255.588C369.241 255.594 369.235 255.601 369.229 255.609C368.965 255.875 368.781 256.191 368.68 256.552L368.603 257.12C368.593 257.414 368.654 257.689 368.787 257.943C368.866 258.187 368.998 258.399 369.178 258.582L369.248 258.65C369.444 258.862 369.675 259.012 369.943 259.099C370.112 259.198 370.296 259.247 370.49 259.247C370.777 259.312 371.067 259.3 371.354 259.208C371.525 259.134 371.699 259.063 371.872 258.991L371.927 258.959C372.58 258.602 372.983 257.854 372.983 257.12C372.983 256.387 372.58 255.637 371.927 255.279C371.907 255.271 371.891 255.26 371.872 255.25C371.622 255.091 371.354 255.005 371.067 254.992Z" fill="black"/>
<path fill-rule="evenodd" clip-rule="evenodd" d="M373.094 143.827C384.39 140.51 423.239 143.91 424.199 144.628C425.771 145.935 433.419 150.081 434.608 151.028C445.367 162.435 435.111 179.376 435.9 193.137C435.85 198.018 437.929 202.475 438.885 207.171C439.288 209.632 439.199 212.178 437.917 214.387C435.663 218.335 430.902 219.136 427.03 220.728C425.104 221.557 423.304 222.734 421.654 224.021C410.545 233.853 404.361 240.585 388.151 238.367C388.068 239.141 387.382 239.902 386.533 239.556C384.542 238.745 382.566 237.885 380.559 237.117C380.13 238.151 378.897 238.446 378.062 237.533L378.058 237.539C374.342 234.524 371.978 230.401 370.223 225.987C368.995 223.44 367.989 220.783 367.22 218.047C367.134 217.737 367.145 217.461 367.224 217.222C363.677 204.997 362.365 192.112 363.298 179.419C363.487 176.801 363.982 174.147 363.86 171.517C363.751 169.141 362.727 166.894 361.947 164.681C357.925 155.274 364.074 146.789 373.094 143.827Z" fill="white"/>
<path fill-rule="evenodd" clip-rule="evenodd" d="M371.673 128.553L371.553 128.46C370.25 127.438 369.022 126.098 367.186 126.6C365.68 127.012 364.919 128.259 364.596 129.766C364.137 129.287 363.692 128.79 363.256 128.276C362.073 126.881 359.43 127.604 359.077 129.382C358.363 132.962 358.327 136.606 359.022 140.192C359.128 140.735 359.253 141.276 359.399 141.811C358.606 140.824 357.869 139.795 357.208 138.711C356.492 137.533 354.873 138.117 354.761 139.374C354.732 139.7 354.715 140.029 354.711 140.361C354.206 140.539 353.857 141.059 353.99 141.697C354.725 145.21 355.657 148.674 356.777 152.079C354.977 151.123 352.959 150.557 351.06 151.231C348.043 152.305 347.325 155.598 347.914 158.432C348.656 161.995 350.988 164.977 353.996 166.932C354.353 167.469 354.706 168.01 355.042 168.562C355.049 170.119 355.332 171.673 355.902 173.116C356.544 174.737 357.677 176.139 359.071 177.204C359.561 178.271 360.859 179.051 361.999 178.835L362.058 178.823L362.061 178.825C361.769 179.869 361.518 180.924 361.3 181.98C359.615 190.168 360.468 198.69 362.005 206.831L362.054 207.091C363.434 214.336 365.039 221.839 368.16 228.566C370.982 234.649 375.768 239.998 382.606 241.325C390.651 242.887 399.556 240.412 406.475 236.285C408.983 234.788 406.684 230.845 404.187 232.366C400.583 234.56 396.668 236.092 392.527 236.9C388.657 237.652 384.328 237.908 380.616 236.348C375.446 234.175 372.375 228.868 370.431 223.872C369.286 220.924 368.428 217.88 367.63 214.824C366.601 210.895 365.642 206.941 364.921 202.942C363.58 195.484 363.144 187.738 364.564 180.258C365.016 177.872 365.656 175.471 366.491 173.163C366.622 173 366.746 172.818 366.858 172.62C367.731 171.09 368.333 169.35 368.982 167.695C369.55 166.708 370.171 165.759 370.83 164.831C371.816 164.074 372.754 163.264 373.614 162.38C371.117 160.762 368.913 158.737 367.328 156.157C367.066 155.732 367.232 155.325 367.542 155.096C368.808 156.68 370.447 158.022 372.171 159.211C373.054 159.968 374.005 160.647 375.002 161.262C375.714 161.402 376.434 161.499 377.132 161.579C379.12 161.805 381.119 161.72 383.096 161.456C387.373 160.886 405.457 155.903 413.08 157.84C414.667 158.243 415.416 159.668 416.257 161.006C416.986 162.17 417.914 163.133 419.027 163.926L419.151 164.014C421.327 165.52 425.703 170.288 427.542 174.543C429.916 180.036 432.198 196.498 431.148 196.64C428.401 197.012 426.88 198.457 424.642 200.009C424.494 200.11 424.581 200.385 424.771 200.315C426.248 199.782 427.845 199.467 429.394 199.21C430.794 198.975 432.269 198.933 433.621 199.434C435.696 200.203 436.708 201.942 437.124 203.904C437.287 204.671 437.359 205.472 437.367 206.264L437.368 206.494C437.367 208.993 436.902 211.763 435.088 213.607C434.317 214.391 433.271 214.919 432.176 215.065C430.978 215.226 430.239 214.685 429.138 214.404C427.87 214.08 426.882 214.915 427 216.004C426.732 216.238 426.472 216.485 426.214 216.737L426.212 216.739C426.043 216.815 425.882 216.917 425.737 217.039C425.498 217.242 425.297 217.464 425.137 217.703C424.78 217.773 424.437 217.971 424.156 218.335C423.577 219.081 423.043 219.835 422.546 220.605C421.657 221.549 420.772 222.496 419.899 223.458C418.849 224.614 417.827 225.796 416.798 226.971L416.282 227.558C415.727 228.19 415.173 228.822 414.62 229.456L414.455 229.642C413.898 230.266 413.471 230.726 413.411 231.624C413.369 232.29 414.085 232.742 414.679 232.59C415.594 232.354 416.019 231.635 416.567 230.922L417.396 229.859L418.175 228.858C418.562 228.359 418.953 227.862 419.342 227.366C419.458 228.281 420.425 229.018 421.308 229.059L421.514 229.067C423.588 229.136 426.108 228.843 427.687 227.38C428.396 228.097 429.28 228.661 430.368 228.999C432.84 229.769 435.367 228.406 436.366 226.332C438.303 227.163 440.492 227.33 442.586 226.719C443.793 226.365 444.211 224.859 443.369 223.938L443.331 223.897L443.322 223.886C443.495 223.661 443.591 223.384 443.606 223.083C443.625 222.717 443.359 222.33 443.413 221.988C443.623 220.687 445.745 221.651 446.419 221.933C446.548 221.987 446.669 222.012 446.782 222.016C447.825 222.32 448.958 220.95 448.412 219.818C447.189 217.291 445.995 214.744 444.757 212.22C444.914 212.273 445.074 212.322 445.233 212.362C447.457 212.933 450.155 211.838 449.642 209.156C449.524 208.526 448.953 208.095 448.387 207.9C447.284 207.52 446.456 207.795 445.607 207.44C444.65 207.042 443.65 206.313 442.809 205.626C441.912 204.895 441.136 204.073 440.45 203.181C440.175 201.885 439.7 200.647 438.939 199.582C438.893 199.518 438.846 199.455 438.798 199.393C443.675 198.23 443.036 193.431 445.188 189.179L445.37 188.826C446.831 185.982 448.106 182.774 447.369 179.535C447.238 178.962 447.048 178.415 446.802 177.903C447.193 177.952 447.586 177.996 447.977 178.041C448.875 178.142 449.788 176.984 449.431 176.132C449.243 175.686 449.036 175.255 448.812 174.837C448.19 173.683 447.428 172.634 446.53 171.688C448.038 171.647 449.549 171.647 451.04 171.474C452.45 171.311 453.931 170.54 453.887 168.915C453.844 167.365 452.484 166.192 451.224 165.436C449.984 163.786 448.411 162.414 446.631 161.395C446.983 161.315 447.34 161.257 447.702 161.221L447.884 161.205C448.9 161.124 449.813 160.845 450.734 160.421C451.558 160.04 451.545 158.886 451.007 158.305C449.265 156.421 446.655 157.035 444.625 158.114C444.766 157.935 444.921 157.762 445.09 157.596L445.193 157.498C446.19 156.569 444.693 155.077 443.699 156.004C443.385 156.296 443.103 156.614 442.852 156.951L442.828 156.902C441.515 154.236 439.594 151.85 437.321 149.938L436.786 149.494C432.687 146.069 431.423 144.445 425.971 144.95C426.203 143.959 426.181 142.845 426.128 141.928L426.121 141.805C425.912 138.36 424.642 134.236 421.283 132.689C420.411 132.29 419.422 132.943 419.654 133.943C419.817 134.651 420.015 135.34 420.263 136.01C419.53 135.238 418.744 134.517 417.911 133.854C414.518 131.149 409.984 128.822 405.525 129.582C403.074 130.003 401.151 131.542 399.1 132.827C397.038 134.12 394.735 134.887 392.32 135.164C388.946 135.553 385.56 135.162 382.224 134.545C379.932 133.545 377.707 132.374 375.535 131.113C374.2 130.337 372.901 129.489 371.673 128.553ZM431.576 203.377C430.861 203.194 430.06 203.196 429.344 203.375C427.496 203.84 425.776 205.387 425.668 207.338C425.62 208.219 426.329 209.063 427.153 209.289C428.087 209.547 428.89 209.09 429.435 208.359C430.02 207.577 430.166 206.729 430.882 206.019L431.048 205.858C431.657 205.276 432.577 204.523 433.422 204.658C433.547 204.677 433.64 204.508 433.513 204.44C432.824 204.064 432.372 203.58 431.576 203.377ZM421.973 194.19C421.647 193.924 421.216 194.236 421.37 194.619L421.382 194.647C421.768 195.462 421.314 196.42 420.845 197.103C420.442 197.692 421.204 198.252 421.741 197.999C423.249 197.282 423.171 195.162 421.973 194.19ZM416.459 169.68C416.487 169.481 416.223 169.399 416.155 169.595C415.029 172.865 414.706 175.76 414.889 179.218L414.907 179.525C415.106 182.855 415.689 186.38 417.704 189.115C418.17 189.747 419.125 189.375 418.971 188.581C418.352 185.4 417.163 182.38 416.7 179.161C416.216 175.796 415.999 173.047 416.459 169.68ZM426.977 181.564C426.812 180.691 425.471 179.793 424.792 180.67C424.564 180.968 424.833 181.334 425.107 181.444C425.365 181.545 425.595 181.406 425.849 181.456C426.054 181.498 426.204 181.626 426.303 181.801L426.324 181.839C426.523 182.219 427.047 181.936 426.977 181.564ZM427.526 174.611C427.045 173.719 425.935 173.15 424.987 173.706C424.674 173.89 424.797 174.425 425.177 174.408L425.402 174.399C426.079 174.374 426.755 174.388 427.323 174.816C427.45 174.911 427.59 174.731 427.526 174.611ZM425.833 150.253C428.535 149.038 431.222 150.135 433.428 151.846C433.611 151.987 433.7 152.153 433.719 152.319C432.246 151.745 430.677 151.369 429.178 151.058C427.952 150.804 426.715 150.633 425.476 150.565C425.546 150.441 425.659 150.331 425.833 150.253Z" fill="black"/>
<path fill-rule="evenodd" clip-rule="evenodd" d="M387.847 223.274C389.267 222.694 390.534 221.727 391.461 220.492C391.783 220.063 391.866 219.61 391.799 219.195C391.723 218.729 391.447 218.306 391.071 218.023C390.694 217.738 390.222 217.598 389.766 217.67C389.369 217.732 388.975 217.949 388.662 218.399L388.597 218.489C388.046 219.235 387.329 219.846 386.511 220.24C385.723 220.62 384.841 220.798 383.929 220.695C382.191 220.498 380.994 219.558 379.721 218.282C379.563 218.121 379.405 217.954 379.247 217.786C379.147 217.632 379.007 217.534 378.853 217.482C378.682 217.425 378.488 217.428 378.31 217.49C378.139 217.55 377.986 217.663 377.883 217.814C377.786 217.958 377.73 218.135 377.748 218.338C377.865 219.661 378.556 220.842 379.538 221.769C380.629 222.798 382.075 223.511 383.436 223.76C384.935 224.036 386.463 223.839 387.847 223.274ZM382.728 202.866C381.133 203.836 378.702 206.098 380.418 208.503C382.439 210.624 385.347 208.192 386.78 207.093C388.109 206.241 389.603 208.432 388.37 209.427C378.013 217.098 373.809 203.12 381.921 201.725C382.815 201.572 383.146 202.566 382.728 202.866ZM401.288 193.943C401.112 191.754 397.78 191.257 397.448 193.423C397.152 195.363 397.501 197.145 398.375 198.892C399.209 200.561 401.307 199.782 401.466 198.263C401.679 196.226 401.398 195.304 401.288 193.943ZM375.923 192.974C375.458 192.365 374.787 191.949 373.984 192.184C371.473 192.918 372.213 196.484 373.095 198.22C373.574 199.163 375.123 199.402 375.823 198.572C376.964 197.218 377.51 194.515 376.06 193.182C376.02 193.113 375.976 193.044 375.923 192.974ZM398.41 184.365L398.013 184.296C396.786 184.083 395.261 183.879 394.393 184.866C393.932 185.39 393.774 186.362 394.393 186.863C395.481 187.744 396.685 187.403 397.989 187.478C399.064 187.539 400.097 187.717 401.132 188.013C403.404 188.663 405.255 189.848 407.195 191.15C407.449 191.321 407.709 190.995 407.588 190.757C406.468 188.563 404.298 186.76 402.124 185.661C400.963 185.075 399.694 184.588 398.41 184.365ZM378.212 183.382L377.908 183.444C374.604 184.135 370.312 185.515 368.748 188.761C368.688 189.22 368.751 189.319 368.802 189.383L368.819 189.404C368.862 189.459 368.895 189.535 369.094 189.597C369.149 189.584 369.205 189.57 369.261 189.556C369.979 189.368 370.546 189.109 371.095 188.84L371.691 188.546C372.382 188.207 373.079 187.881 373.818 187.64C375.394 187.125 377.016 186.763 378.662 186.569C379.019 186.527 379.363 186.407 379.634 186.2C379.891 186.004 380.088 185.733 380.178 185.372C380.294 184.905 380.26 184.552 380.01 184.131C379.822 183.814 379.552 183.595 379.243 183.469C378.928 183.341 378.569 183.311 378.212 183.382Z" fill="black"/>
<path d="M180 141L339 215C264.667 190.333 104.93 155.218 54.0001 132C-14 101 -8.99995 57 33.0001 28C75.0001 -0.999973 168 -2.99999 240 7.00001C296.349 14.8263 323 36 323 79C323 107 301.8 118.4 265 132C228.2 145.6 193 143.667 180 141Z" stroke="black" stroke-width="3"/>
<g filter="url(#filter0_d_5_8)">
<path d="M49.6005 62H48.7099L55.9901 48.1818H56.9616L59.6538 62H58.7631L56.3409 49.2681H56.2667L49.6005 62ZM51.7326 56.7979H58.3718L58.2369 57.5806H51.5977L51.7326 56.7979ZM72.0213 52.3043C71.5265 52.3043 71.0407 52.419 70.5639 52.6484C70.0916 52.8733 69.6868 53.1702 69.3494 53.5391C69.0121 53.9079 68.8074 54.3082 68.7354 54.7401H67.9258C68.0022 54.3037 68.1732 53.8922 68.4386 53.5053C68.704 53.1185 69.0323 52.7766 69.4237 52.4798C69.8195 52.1829 70.2513 51.949 70.7191 51.7781C71.1869 51.6071 71.6592 51.5217 72.136 51.5217C72.9772 51.5217 73.6721 51.7556 74.2209 52.2234C74.7696 52.6867 75.152 53.3074 75.3679 54.0856C75.5838 54.8593 75.6153 55.7094 75.4624 56.636L75.4084 57.0138C75.2509 57.9495 74.9316 58.8108 74.4503 59.598C73.969 60.3807 73.3775 61.0082 72.6758 61.4805C71.9741 61.9528 71.2071 62.1889 70.375 62.1889C69.7093 62.1889 69.1223 62.0315 68.614 61.7166C68.1102 61.4018 67.7346 60.9812 67.4872 60.4549C67.2398 59.9286 67.1701 59.3439 67.2781 58.7006H68.0877C68.0067 59.1774 68.063 59.6228 68.2564 60.0366C68.4543 60.4459 68.7512 60.7765 69.147 61.0284C69.5429 61.2803 69.9972 61.4062 70.5099 61.4062C71.1622 61.4062 71.7739 61.2038 72.3452 60.799C72.9164 60.3942 73.4 59.8589 73.7958 59.1932C74.1916 58.5275 74.457 57.801 74.592 57.0138L74.646 56.636C74.7764 55.8533 74.7539 55.1359 74.5785 54.4837C74.4031 53.8269 74.0972 53.3007 73.6609 52.9048C73.2246 52.5045 72.678 52.3043 72.0213 52.3043ZM75.0238 56.4134L74.9091 57.196H69.9769L70.0916 56.4134H75.0238ZM77.5928 52.419L77.721 51.6364H85.4937L85.3655 52.419H81.911L80.3524 62H79.536L81.0945 52.419H77.5928ZM87.5195 60.9272L94.9684 51.6364H96.0479L94.3207 62H93.4975L95.0359 52.7092L87.6005 62H86.5075L88.2347 51.6364H89.0579L87.5195 60.9272ZM102.443 65.8864L104.818 51.6364H105.62L105.243 53.9506H105.344C105.578 53.5053 105.87 53.096 106.221 52.7227C106.576 52.3493 106.992 52.0502 107.469 51.8253C107.95 51.5959 108.488 51.4812 109.082 51.4812C109.918 51.4812 110.609 51.7106 111.153 52.1694C111.697 52.6282 112.073 53.2602 112.28 54.0653C112.487 54.8705 112.505 55.7971 112.334 56.8452C112.158 57.8887 111.83 58.8153 111.349 59.625C110.872 60.4302 110.287 61.0644 109.595 61.5277C108.902 61.9865 108.142 62.2159 107.314 62.2159C106.725 62.2159 106.225 62.1035 105.816 61.8786C105.411 61.6536 105.092 61.3545 104.858 60.9812C104.624 60.6033 104.462 60.1895 104.372 59.7397H104.291L103.266 65.8864H102.443ZM104.764 56.8384C104.62 57.7201 104.62 58.5095 104.764 59.2067C104.912 59.8994 105.2 60.4482 105.627 60.853C106.059 61.2533 106.624 61.4535 107.321 61.4535C108.027 61.4535 108.668 61.2511 109.244 60.8462C109.824 60.4369 110.31 59.8836 110.701 59.1864C111.097 58.4892 111.367 57.7066 111.511 56.8384C111.655 55.9703 111.655 55.1899 111.511 54.4972C111.367 53.8045 111.081 53.2579 110.654 52.8576C110.227 52.4528 109.655 52.2504 108.94 52.2504C108.238 52.2504 107.597 52.4505 107.017 52.8509C106.437 53.2467 105.951 53.791 105.56 54.4837C105.173 55.1719 104.908 55.9568 104.764 56.8384ZM118.317 62.2159C117.381 62.2159 116.605 61.9843 115.989 61.521C115.373 61.0576 114.943 60.4234 114.7 59.6183C114.458 58.8131 114.422 57.8955 114.593 56.8654C114.763 55.8308 115.105 54.9087 115.618 54.0991C116.131 53.2894 116.758 52.6507 117.501 52.1829C118.243 51.7151 119.043 51.4812 119.903 51.4812C120.483 51.4812 121.011 51.5981 121.488 51.832C121.969 52.0659 122.374 52.401 122.703 52.8374C123.031 53.2692 123.258 53.7932 123.384 54.4094C123.51 55.0257 123.51 55.7184 123.384 56.4876L123.29 57.0004H115.085L115.213 56.2514H122.588C122.714 55.5047 122.678 54.83 122.48 54.2273C122.282 53.62 121.954 53.1387 121.495 52.7834C121.041 52.428 120.483 52.2504 119.822 52.2504C119.147 52.2504 118.504 52.446 117.892 52.8374C117.285 53.2242 116.763 53.7415 116.327 54.3892C115.895 55.0369 115.607 55.7499 115.463 56.5281L115.382 56.9464C115.238 57.837 115.256 58.6219 115.436 59.3011C115.62 59.9759 115.962 60.5044 116.461 60.8867C116.961 61.2646 117.613 61.4535 118.418 61.4535C118.98 61.4535 119.48 61.359 119.916 61.1701C120.357 60.9767 120.73 60.7428 121.036 60.4684C121.346 60.194 121.589 59.9286 121.765 59.6722L122.446 59.9759C122.239 60.3222 121.942 60.6686 121.556 61.0149C121.169 61.3568 120.703 61.6424 120.159 61.8718C119.615 62.1012 119.001 62.2159 118.317 62.2159ZM134.913 47.75L135.264 48.2965C134.972 48.5484 134.632 48.7126 134.245 48.7891C133.858 48.8655 133.442 48.906 132.997 48.9105C132.552 48.915 132.091 48.9308 131.614 48.9577C130.732 49.0027 129.974 49.2456 129.34 49.6864C128.706 50.1228 128.18 50.739 127.761 51.5352C127.343 52.3313 127.015 53.2894 126.776 54.4094H126.898C127.374 53.6358 127.959 53.0353 128.652 52.608C129.345 52.1761 130.087 51.9602 130.878 51.9602C131.666 51.9602 132.345 52.1604 132.916 52.5607C133.492 52.9566 133.906 53.5391 134.158 54.3082C134.409 55.0729 134.443 56.0063 134.259 57.1083C134.088 58.1384 133.768 59.038 133.301 59.8072C132.837 60.5719 132.25 61.1656 131.54 61.5884C130.833 62.0067 130.033 62.2159 129.138 62.2159C128.274 62.2159 127.543 62.0067 126.945 61.5884C126.347 61.1701 125.924 60.5629 125.676 59.7667C125.429 58.9705 125.4 58.0057 125.589 56.8722L125.764 55.7994C126.182 53.2804 126.866 51.398 127.815 50.152C128.769 48.906 130.051 48.2493 131.661 48.1818C132.129 48.1593 132.561 48.1526 132.957 48.1616C133.357 48.1706 133.719 48.1503 134.043 48.1009C134.371 48.0514 134.661 47.9344 134.913 47.75ZM129.219 61.4535C129.965 61.4535 130.629 61.2713 131.209 60.907C131.794 60.5426 132.277 60.0276 132.66 59.3619C133.042 58.6961 133.307 57.9135 133.456 57.0138C133.609 56.1097 133.584 55.3383 133.382 54.6996C133.184 54.0563 132.851 53.5661 132.383 53.2287C131.915 52.8913 131.353 52.7227 130.696 52.7227C130.13 52.7227 129.603 52.8441 129.117 53.087C128.632 53.3299 128.2 53.6605 127.822 54.0788C127.444 54.4972 127.129 54.9717 126.877 55.5025C126.63 56.0288 126.457 56.5775 126.358 57.1488C126.142 58.4847 126.302 59.5373 126.837 60.3065C127.372 61.0711 128.166 61.4535 129.219 61.4535ZM142.524 62L144.116 52.3988L141.168 52.4123C140.304 52.4123 139.636 52.5765 139.164 52.9048C138.696 53.2332 138.404 53.7572 138.287 54.4769C138.174 55.1876 138.291 55.7027 138.638 56.022C138.989 56.3414 139.587 56.5011 140.432 56.5011H143.725L143.59 57.2837H140.297C139.578 57.2837 138.991 57.178 138.536 56.9666C138.082 56.7507 137.765 56.4291 137.585 56.0018C137.41 55.5745 137.374 55.0459 137.477 54.4162C137.585 53.7955 137.794 53.2804 138.105 52.8711C138.415 52.4573 138.836 52.1491 139.366 51.9467C139.902 51.7398 140.547 51.6364 141.303 51.6364H145.047L143.32 62H142.524ZM135.473 62L139.36 56.8452H140.297L136.411 62H135.473ZM146.895 52.419L147.023 51.6364H154.795L154.667 52.419H151.213L149.654 62H148.838L150.396 52.419H146.895ZM157.99 62.2227C157.392 62.2227 156.863 62.1035 156.405 61.8651C155.95 61.6267 155.611 61.2781 155.386 60.8192C155.161 60.3604 155.1 59.8027 155.204 59.146C155.28 58.7141 155.422 58.334 155.629 58.0057C155.836 57.6773 156.119 57.3939 156.479 57.1555C156.839 56.9171 157.28 56.7215 157.801 56.5685C158.328 56.4111 158.942 56.2897 159.643 56.2042C160.183 56.1412 160.664 56.0782 161.087 56.0153C161.51 55.9523 161.852 55.8556 162.113 55.7251C162.374 55.5947 162.527 55.399 162.572 55.1381L162.639 54.7063C162.765 53.9551 162.637 53.3569 162.254 52.9116C161.872 52.4618 161.263 52.2369 160.426 52.2369C159.688 52.2369 159.027 52.4033 158.442 52.7362C157.858 53.0645 157.421 53.4806 157.133 53.9844L156.418 53.6942C156.697 53.1995 157.05 52.7879 157.477 52.4595C157.909 52.1312 158.382 51.886 158.894 51.7241C159.412 51.5621 159.938 51.4812 160.473 51.4812C160.936 51.4812 161.368 51.5464 161.769 51.6768C162.169 51.8073 162.511 52.0052 162.794 52.2706C163.082 52.536 163.287 52.8756 163.408 53.2894C163.534 53.6987 163.548 54.189 163.449 54.7603L162.248 62H161.425L161.742 60.131H161.681C161.438 60.5179 161.132 60.871 160.763 61.1903C160.399 61.5052 159.983 61.7571 159.515 61.946C159.047 62.1304 158.539 62.2227 157.99 62.2227ZM158.145 61.4602C158.793 61.4602 159.396 61.3028 159.954 60.9879C160.516 60.6686 160.988 60.2322 161.371 59.679C161.757 59.1257 162.007 58.4982 162.119 57.7965L162.383 56.2717C162.261 56.3616 162.097 56.4426 161.89 56.5146C161.683 56.582 161.452 56.6428 161.195 56.6967C160.943 56.7462 160.68 56.7912 160.406 56.8317C160.136 56.8677 159.873 56.9014 159.616 56.9329C158.847 57.0228 158.211 57.1623 157.707 57.3512C157.203 57.5356 156.814 57.7785 156.54 58.0799C156.27 58.3813 156.097 58.7456 156.02 59.1729C155.908 59.8791 156.052 60.4369 156.452 60.8462C156.857 61.2556 157.421 61.4602 158.145 61.4602ZM179.025 56.4336L178.896 57.2163H172.433L172.554 56.4336H179.025ZM173.58 51.6364L171.866 62H171.043L172.763 51.6364H173.58ZM180.381 51.6364L178.667 62H177.844L179.564 51.6364H180.381ZM183.132 60.9272L190.581 51.6364H191.66L189.933 62H189.11L190.648 52.7092L183.213 62H182.12L183.847 51.6364H184.67L183.132 60.9272ZM202.36 51.6364L200.653 62H199.836L201.543 51.6364H202.36ZM201.219 56.9464L201.084 57.756C200.585 57.918 200.133 58.0507 199.728 58.1541C199.328 58.2531 198.95 58.3273 198.595 58.3768C198.244 58.4218 197.884 58.4442 197.515 58.4442C196.373 58.4397 195.536 58.1609 195.005 57.6076C194.474 57.0498 194.306 56.1929 194.499 55.0369L195.066 51.5891H195.882L195.316 55.0369C195.212 55.6622 195.232 56.1682 195.376 56.555C195.525 56.9374 195.786 57.2185 196.159 57.3984C196.532 57.5739 197.005 57.6616 197.576 57.6616C198.192 57.6616 198.795 57.5986 199.384 57.4727C199.978 57.3422 200.59 57.1668 201.219 56.9464ZM208.122 62.2159C207.186 62.2159 206.41 61.9843 205.794 61.521C205.178 61.0576 204.748 60.4234 204.505 59.6183C204.262 58.8131 204.226 57.8955 204.397 56.8654C204.568 55.8308 204.91 54.9087 205.423 54.0991C205.936 53.2894 206.563 52.6507 207.305 52.1829C208.047 51.7151 208.848 51.4812 209.707 51.4812C210.287 51.4812 210.816 51.5981 211.293 51.832C211.774 52.0659 212.179 52.401 212.507 52.8374C212.836 53.2692 213.063 53.7932 213.189 54.4094C213.315 55.0257 213.315 55.7184 213.189 56.4876L213.094 57.0004H204.89L205.018 56.2514H212.393C212.519 55.5047 212.483 54.83 212.285 54.2273C212.087 53.62 211.758 53.1387 211.3 52.7834C210.845 52.428 210.287 52.2504 209.626 52.2504C208.952 52.2504 208.308 52.446 207.697 52.8374C207.089 53.2242 206.568 53.7415 206.131 54.3892C205.699 55.0369 205.412 55.7499 205.268 56.5281L205.187 56.9464C205.043 57.837 205.061 58.6219 205.241 59.3011C205.425 59.9759 205.767 60.5044 206.266 60.8867C206.765 61.2646 207.418 61.4535 208.223 61.4535C208.785 61.4535 209.284 61.359 209.721 61.1701C210.162 60.9767 210.535 60.7428 210.841 60.4684C211.151 60.194 211.394 59.9286 211.569 59.6722L212.251 59.9759C212.044 60.3222 211.747 60.6686 211.36 61.0149C210.973 61.3568 210.508 61.6424 209.964 61.8718C209.419 62.1012 208.805 62.2159 208.122 62.2159ZM222.768 51.6364L222.633 52.419H217.525L215.933 62H215.11L216.837 51.6364H222.768ZM227.11 62.2159C226.246 62.2159 225.515 61.9843 224.917 61.521C224.323 61.0531 223.9 60.4099 223.649 59.5913C223.397 58.7726 223.358 57.837 223.534 56.7844C223.705 55.7589 224.042 54.848 224.546 54.0518C225.054 53.2512 225.675 52.6237 226.408 52.1694C227.141 51.7106 227.928 51.4812 228.77 51.4812C229.638 51.4812 230.369 51.7173 230.962 52.1896C231.561 52.6574 231.986 53.3029 232.238 54.1261C232.49 54.9447 232.532 55.8781 232.366 56.9261C232.195 57.9472 231.853 58.8581 231.34 59.6587C230.832 60.4549 230.211 61.0801 229.478 61.5344C228.745 61.9888 227.955 62.2159 227.11 62.2159ZM227.123 61.4535C227.861 61.4535 228.54 61.2466 229.161 60.8327C229.782 60.4189 230.301 59.8589 230.72 59.1527C231.142 58.4465 231.424 57.6571 231.563 56.7844C231.702 55.9388 231.682 55.1741 231.502 54.4904C231.322 53.8022 231.001 53.2579 230.537 52.8576C230.074 52.4528 229.487 52.2504 228.776 52.2504C228.043 52.2504 227.364 52.4595 226.739 52.8778C226.118 53.2962 225.596 53.8584 225.173 54.5646C224.751 55.2708 224.469 56.058 224.33 56.9261C224.186 57.7673 224.204 58.532 224.384 59.2202C224.568 59.9039 224.892 60.4482 225.356 60.853C225.823 61.2533 226.413 61.4535 227.123 61.4535ZM240.633 52.419L240.761 51.6364H248.534L248.406 52.419H244.951L243.392 62H242.576L244.135 52.419H240.633ZM251.729 62.2227C251.13 62.2227 250.602 62.1035 250.143 61.8651C249.689 61.6267 249.349 61.2781 249.124 60.8192C248.899 60.3604 248.838 59.8027 248.942 59.146C249.018 58.7141 249.16 58.334 249.367 58.0057C249.574 57.6773 249.857 57.3939 250.217 57.1555C250.577 56.9171 251.018 56.7215 251.54 56.5685C252.066 56.4111 252.68 56.2897 253.382 56.2042C253.921 56.1412 254.403 56.0782 254.825 56.0153C255.248 55.9523 255.59 55.8556 255.851 55.7251C256.112 55.5947 256.265 55.399 256.31 55.1381L256.377 54.7063C256.503 53.9551 256.375 53.3569 255.993 52.9116C255.61 52.4618 255.001 52.2369 254.164 52.2369C253.427 52.2369 252.765 52.4033 252.181 52.7362C251.596 53.0645 251.16 53.4806 250.872 53.9844L250.156 53.6942C250.435 53.1995 250.788 52.7879 251.216 52.4595C251.648 52.1312 252.12 51.886 252.633 51.7241C253.15 51.5621 253.676 51.4812 254.211 51.4812C254.675 51.4812 255.107 51.5464 255.507 51.6768C255.907 51.8073 256.249 52.0052 256.532 52.2706C256.82 52.536 257.025 52.8756 257.146 53.2894C257.272 53.6987 257.286 54.189 257.187 54.7603L255.986 62H255.163L255.48 60.131H255.419C255.176 60.5179 254.87 60.871 254.502 61.1903C254.137 61.5052 253.721 61.7571 253.253 61.946C252.786 62.1304 252.277 62.2227 251.729 62.2227ZM251.884 61.4602C252.531 61.4602 253.134 61.3028 253.692 60.9879C254.254 60.6686 254.727 60.2322 255.109 59.679C255.496 59.1257 255.745 58.4982 255.858 57.7965L256.121 56.2717C255.999 56.3616 255.835 56.4426 255.628 56.5146C255.421 56.582 255.19 56.6428 254.933 56.6967C254.682 56.7462 254.418 56.7912 254.144 56.8317C253.874 56.8677 253.611 56.9014 253.355 56.9329C252.585 57.0228 251.949 57.1623 251.445 57.3512C250.941 57.5356 250.552 57.7785 250.278 58.0799C250.008 58.3813 249.835 58.7456 249.758 59.1729C249.646 59.8791 249.79 60.4369 250.19 60.8462C250.595 61.2556 251.16 61.4602 251.884 61.4602ZM259.437 62L261.164 51.6364H261.988L261.178 56.4471H262.345L267.129 51.6364H268.222L263.256 56.609L266.616 62H265.591L262.635 57.2298H261.056L260.26 62H259.437ZM269.856 60.9272L277.305 51.6364H278.385L276.658 62H275.834L277.373 52.7092L269.937 62H268.844L270.572 51.6364H271.395L269.856 60.9272ZM284.085 62.2159C283.149 62.2159 282.373 61.9843 281.757 61.521C281.141 61.0576 280.711 60.4234 280.468 59.6183C280.225 58.8131 280.189 57.8955 280.36 56.8654C280.531 55.8308 280.873 54.9087 281.386 54.0991C281.898 53.2894 282.526 52.6507 283.268 52.1829C284.01 51.7151 284.811 51.4812 285.67 51.4812C286.25 51.4812 286.779 51.5981 287.256 51.832C287.737 52.0659 288.142 52.401 288.47 52.8374C288.799 53.2692 289.026 53.7932 289.152 54.4094C289.278 55.0257 289.278 55.7184 289.152 56.4876L289.057 57.0004H280.853L280.981 56.2514H288.355C288.481 55.5047 288.445 54.83 288.248 54.2273C288.05 53.62 287.721 53.1387 287.262 52.7834C286.808 52.428 286.25 52.2504 285.589 52.2504C284.914 52.2504 284.271 52.446 283.659 52.8374C283.052 53.2242 282.53 53.7415 282.094 54.3892C281.662 55.0369 281.374 55.7499 281.23 56.5281L281.15 56.9464C281.006 57.837 281.024 58.6219 281.203 59.3011C281.388 59.9759 281.73 60.5044 282.229 60.8867C282.728 61.2646 283.381 61.4535 284.186 61.4535C284.748 61.4535 285.247 61.359 285.684 61.1701C286.124 60.9767 286.498 60.7428 286.804 60.4684C287.114 60.194 287.357 59.9286 287.532 59.6722L288.214 59.9759C288.007 60.3222 287.71 60.6686 287.323 61.0149C286.936 61.3568 286.471 61.6424 285.926 61.8718C285.382 62.1012 284.768 62.2159 284.085 62.2159ZM292.962 60.1108L292.706 60.8192C292.539 61.2826 292.348 61.8043 292.132 62.3846C291.916 62.9693 291.7 63.5316 291.484 64.0714C291.273 64.6112 291.089 65.0452 290.931 65.3736H290.29C290.403 65.0497 290.54 64.6516 290.702 64.1793C290.868 63.7115 291.048 63.1942 291.242 62.6275C291.435 62.0607 291.631 61.4737 291.829 60.8665L292.085 60.1108H292.962ZM53.7163 85.2159C52.8526 85.2159 52.1217 84.9843 51.5234 84.521C50.9297 84.0531 50.5069 83.4099 50.255 82.5913C50.0031 81.7726 49.9648 80.837 50.1403 79.7844C50.3112 78.7589 50.6486 77.848 51.1523 77.0518C51.6606 76.2512 52.2814 75.6237 53.0146 75.1694C53.7478 74.7106 54.5349 74.4812 55.3761 74.4812C56.2442 74.4812 56.9751 74.7173 57.5689 75.1896C58.1671 75.6574 58.5922 76.3029 58.8441 77.1261C59.096 77.9447 59.1387 78.8781 58.9723 79.9261C58.8014 80.9472 58.4595 81.8581 57.9467 82.6587C57.4384 83.4549 56.8177 84.0801 56.0845 84.5344C55.3513 84.9888 54.5619 85.2159 53.7163 85.2159ZM53.7298 84.4535C54.4674 84.4535 55.1467 84.2466 55.7674 83.8327C56.3881 83.4189 56.9077 82.8589 57.326 82.1527C57.7488 81.4465 58.0299 80.6571 58.1694 79.7844C58.3088 78.9388 58.2886 78.1741 58.1087 77.4904C57.9287 76.8022 57.6071 76.2579 57.1438 75.8576C56.6805 75.4528 56.0935 75.2504 55.3828 75.2504C54.6496 75.2504 53.9704 75.4595 53.3452 75.8778C52.7244 76.2962 52.2027 76.8584 51.7798 77.5646C51.357 78.2708 51.0759 79.058 50.9364 79.9261C50.7925 80.7673 50.8105 81.532 50.9904 82.2202C51.1748 82.9039 51.4987 83.4482 51.962 83.853C52.4298 84.2533 53.0191 84.4535 53.7298 84.4535ZM68.9395 79.4336L68.8113 80.2163H62.3476L62.469 79.4336H68.9395ZM63.4946 74.6364L61.7808 85H60.9577L62.6782 74.6364H63.4946ZM70.2957 74.6364L68.5819 85H67.7588L69.4793 74.6364H70.2957ZM73.0469 83.9272L80.4957 74.6364H81.5753L79.848 85H79.0249L80.5632 75.7092L73.1278 85H72.0348L73.7621 74.6364H74.5852L73.0469 83.9272ZM93.9749 83.7923L99.683 74.6364H100.499L94.0828 85H93.4756L90.5406 74.6364H91.3502L93.9749 83.7923ZM91.1546 74.6364L89.4273 85H88.6041L90.3314 74.6364H91.1546ZM98.1311 85L99.8584 74.6364H100.682L98.9543 85H98.1311ZM110.391 79.4336L110.263 80.2163H103.799L103.92 79.4336H110.391ZM104.946 74.6364L103.232 85H102.409L104.129 74.6364H104.946ZM111.747 74.6364L110.033 85H109.21L110.93 74.6364H111.747ZM117.501 85.2159C116.565 85.2159 115.789 84.9843 115.173 84.521C114.557 84.0576 114.127 83.4234 113.884 82.6183C113.641 81.8131 113.605 80.8955 113.776 79.8654C113.947 78.8308 114.289 77.9087 114.802 77.0991C115.314 76.2894 115.942 75.6507 116.684 75.1829C117.426 74.7151 118.227 74.4812 119.086 74.4812C119.666 74.4812 120.195 74.5981 120.672 74.832C121.153 75.0659 121.558 75.401 121.886 75.8374C122.215 76.2692 122.442 76.7932 122.568 77.4094C122.694 78.0257 122.694 78.7184 122.568 79.4876L122.473 80.0004H114.269L114.397 79.2514H121.771C121.897 78.5047 121.861 77.83 121.664 77.2273C121.466 76.62 121.137 76.1387 120.678 75.7834C120.224 75.428 119.666 75.2504 119.005 75.2504C118.33 75.2504 117.687 75.446 117.075 75.8374C116.468 76.2242 115.946 76.7415 115.51 77.3892C115.078 78.0369 114.79 78.7499 114.646 79.5281L114.566 79.9464C114.422 80.837 114.44 81.6219 114.619 82.3011C114.804 82.9759 115.146 83.5044 115.645 83.8867C116.144 84.2646 116.797 84.4535 117.602 84.4535C118.164 84.4535 118.663 84.359 119.1 84.1701C119.54 83.9767 119.914 83.7428 120.22 83.4684C120.53 83.194 120.773 82.9286 120.948 82.6722L121.63 82.9759C121.423 83.3222 121.126 83.6686 120.739 84.0149C120.352 84.3568 119.887 84.6424 119.343 84.8718C118.798 85.1012 118.184 85.2159 117.501 85.2159ZM133.706 85.2159C132.842 85.2159 132.111 84.9843 131.513 84.521C130.919 84.0531 130.496 83.4099 130.244 82.5913C129.992 81.7726 129.954 80.837 130.13 79.7844C130.3 78.7589 130.638 77.848 131.142 77.0518C131.65 76.2512 132.271 75.6237 133.004 75.1694C133.737 74.7106 134.524 74.4812 135.365 74.4812C136.233 74.4812 136.964 74.7173 137.558 75.1896C138.156 75.6574 138.581 76.3029 138.833 77.1261C139.085 77.9447 139.128 78.8781 138.962 79.9261C138.791 80.9472 138.449 81.8581 137.936 82.6587C137.428 83.4549 136.807 84.0801 136.074 84.5344C135.341 84.9888 134.551 85.2159 133.706 85.2159ZM133.719 84.4535C134.457 84.4535 135.136 84.2466 135.757 83.8327C136.377 83.4189 136.897 82.8589 137.315 82.1527C137.738 81.4465 138.019 80.6571 138.159 79.7844C138.298 78.9388 138.278 78.1741 138.098 77.4904C137.918 76.8022 137.596 76.2579 137.133 75.8576C136.67 75.4528 136.083 75.2504 135.372 75.2504C134.639 75.2504 133.96 75.4595 133.334 75.8778C132.714 76.2962 132.192 76.8584 131.769 77.5646C131.346 78.2708 131.065 79.058 130.926 79.9261C130.782 80.7673 130.8 81.532 130.98 82.2202C131.164 82.9039 131.488 83.4482 131.951 83.853C132.419 84.2533 133.008 84.4535 133.719 84.4535ZM140.987 85L142.715 74.6364H150.251L148.524 85H147.708L149.3 75.419H143.396L141.804 85H140.987ZM151.353 88.8864L153.728 74.6364H154.531L154.153 76.9506H154.254C154.488 76.5053 154.78 76.096 155.131 75.7227C155.486 75.3493 155.903 75.0502 156.379 74.8253C156.861 74.5959 157.398 74.4812 157.992 74.4812C158.829 74.4812 159.519 74.7106 160.063 75.1694C160.608 75.6282 160.983 76.2602 161.19 77.0653C161.397 77.8705 161.415 78.7971 161.244 79.8452C161.069 80.8887 160.74 81.8153 160.259 82.625C159.782 83.4302 159.197 84.0644 158.505 84.5277C157.812 84.9865 157.052 85.2159 156.224 85.2159C155.635 85.2159 155.136 85.1035 154.726 84.8786C154.321 84.6536 154.002 84.3545 153.768 83.9812C153.534 83.6033 153.372 83.1895 153.282 82.7397H153.201L152.176 88.8864H151.353ZM153.674 79.8384C153.53 80.7201 153.53 81.5095 153.674 82.2067C153.822 82.8994 154.11 83.4482 154.537 83.853C154.969 84.2533 155.534 84.4535 156.231 84.4535C156.937 84.4535 157.578 84.2511 158.154 83.8462C158.734 83.4369 159.22 82.8836 159.611 82.1864C160.007 81.4892 160.277 80.7066 160.421 79.8384C160.565 78.9703 160.565 78.1899 160.421 77.4972C160.277 76.8045 159.991 76.2579 159.564 75.8576C159.137 75.4528 158.565 75.2504 157.85 75.2504C157.149 75.2504 156.508 75.4505 155.927 75.8509C155.347 76.2467 154.861 76.791 154.47 77.4837C154.083 78.1719 153.818 78.9568 153.674 79.8384ZM167.227 85.2159C166.291 85.2159 165.516 84.9843 164.899 84.521C164.283 84.0576 163.854 83.4234 163.611 82.6183C163.368 81.8131 163.332 80.8955 163.503 79.8654C163.674 78.8308 164.015 77.9087 164.528 77.0991C165.041 76.2894 165.669 75.6507 166.411 75.1829C167.153 74.7151 167.954 74.4812 168.813 74.4812C169.393 74.4812 169.921 74.5981 170.398 74.832C170.88 75.0659 171.284 75.401 171.613 75.8374C171.941 76.2692 172.168 76.7932 172.294 77.4094C172.42 78.0257 172.42 78.7184 172.294 79.4876L172.2 80.0004H163.995L164.123 79.2514H171.498C171.624 78.5047 171.588 77.83 171.39 77.2273C171.192 76.62 170.864 76.1387 170.405 75.7834C169.951 75.428 169.393 75.2504 168.732 75.2504C168.057 75.2504 167.414 75.446 166.802 75.8374C166.195 76.2242 165.673 76.7415 165.237 77.3892C164.805 78.0369 164.517 78.7499 164.373 79.5281L164.292 79.9464C164.148 80.837 164.166 81.6219 164.346 82.3011C164.53 82.9759 164.872 83.5044 165.372 83.8867C165.871 84.2646 166.523 84.4535 167.328 84.4535C167.891 84.4535 168.39 84.359 168.826 84.1701C169.267 83.9767 169.64 83.7428 169.946 83.4684C170.257 83.194 170.499 82.9286 170.675 82.6722L171.356 82.9759C171.149 83.3222 170.853 83.6686 170.466 84.0149C170.079 84.3568 169.613 84.6424 169.069 84.8718C168.525 85.1012 167.911 85.2159 167.227 85.2159ZM172.4 87.935L173.021 84.2173H173.919C174.197 83.9339 174.456 83.6303 174.695 83.3065C174.933 82.9781 175.153 82.616 175.356 82.2202C175.558 81.8198 175.747 81.3723 175.922 80.8775C176.102 80.3782 176.269 79.8204 176.422 79.2042L177.576 74.6364H183.257L181.685 84.2173H183.169L182.548 87.935H181.732L182.204 85H173.696L173.217 87.935H172.4ZM174.91 84.2173H180.868L182.312 75.419H178.203L177.231 79.2042C176.944 80.3152 176.622 81.2688 176.267 82.065C175.911 82.8612 175.459 83.5786 174.91 84.2173ZM189.493 85.2159C188.557 85.2159 187.781 84.9843 187.165 84.521C186.549 84.0576 186.119 83.4234 185.876 82.6183C185.633 81.8131 185.597 80.8955 185.768 79.8654C185.939 78.8308 186.281 77.9087 186.794 77.0991C187.307 76.2894 187.934 75.6507 188.676 75.1829C189.419 74.7151 190.219 74.4812 191.078 74.4812C191.659 74.4812 192.187 74.5981 192.664 74.832C193.145 75.0659 193.55 75.401 193.878 75.8374C194.207 76.2692 194.434 76.7932 194.56 77.4094C194.686 78.0257 194.686 78.7184 194.56 79.4876L194.465 80.0004H186.261L186.389 79.2514H193.764C193.89 78.5047 193.854 77.83 193.656 77.2273C193.458 76.62 193.129 76.1387 192.671 75.7834C192.216 75.428 191.659 75.2504 190.997 75.2504C190.323 75.2504 189.679 75.446 189.068 75.8374C188.46 76.2242 187.939 76.7415 187.502 77.3892C187.07 78.0369 186.783 78.7499 186.639 79.5281L186.558 79.9464C186.414 80.837 186.432 81.6219 186.612 82.3011C186.796 82.9759 187.138 83.5044 187.637 83.8867C188.137 84.2646 188.789 84.4535 189.594 84.4535C190.156 84.4535 190.655 84.359 191.092 84.1701C191.533 83.9767 191.906 83.7428 192.212 83.4684C192.522 83.194 192.765 82.9286 192.941 82.6722L193.622 82.9759C193.415 83.3222 193.118 83.6686 192.731 84.0149C192.345 84.3568 191.879 84.6424 191.335 84.8718C190.79 85.1012 190.176 85.2159 189.493 85.2159ZM195.368 85L195.503 84.2173H195.773C196.2 84.2173 196.549 84.1431 196.818 83.9947C197.093 83.8462 197.32 83.6011 197.5 83.2592C197.684 82.9129 197.851 82.4541 197.999 81.8828C198.152 81.3071 198.319 80.5941 198.498 79.744L199.605 74.6364H205.866L204.139 85H203.323L204.915 75.419H200.246L199.261 79.9599C199.085 80.7965 198.908 81.5297 198.728 82.1594C198.552 82.7892 198.341 83.3155 198.094 83.7383C197.851 84.1566 197.538 84.4715 197.156 84.6829C196.773 84.8943 196.285 85 195.692 85H195.368ZM211.61 85.2159C210.674 85.2159 209.898 84.9843 209.282 84.521C208.666 84.0576 208.236 83.4234 207.993 82.6183C207.751 81.8131 207.715 80.8955 207.885 79.8654C208.056 78.8308 208.398 77.9087 208.911 77.0991C209.424 76.2894 210.051 75.6507 210.794 75.1829C211.536 74.7151 212.336 74.4812 213.195 74.4812C213.776 74.4812 214.304 74.5981 214.781 74.832C215.262 75.0659 215.667 75.401 215.996 75.8374C216.324 76.2692 216.551 76.7932 216.677 77.4094C216.803 78.0257 216.803 78.7184 216.677 79.4876L216.583 80.0004H208.378L208.506 79.2514H215.881C216.007 78.5047 215.971 77.83 215.773 77.2273C215.575 76.62 215.247 76.1387 214.788 75.7834C214.334 75.428 213.776 75.2504 213.115 75.2504C212.44 75.2504 211.797 75.446 211.185 75.8374C210.578 76.2242 210.056 76.7415 209.619 77.3892C209.188 78.0369 208.9 78.7499 208.756 79.5281L208.675 79.9464C208.531 80.837 208.549 81.6219 208.729 82.3011C208.913 82.9759 209.255 83.5044 209.754 83.8867C210.254 84.2646 210.906 84.4535 211.711 84.4535C212.273 84.4535 212.773 84.359 213.209 84.1701C213.65 83.9767 214.023 83.7428 214.329 83.4684C214.639 83.194 214.882 82.9286 215.058 82.6722L215.739 82.9759C215.532 83.3222 215.235 83.6686 214.849 84.0149C214.462 84.3568 213.996 84.6424 213.452 84.8718C212.908 85.1012 212.294 85.2159 211.61 85.2159ZM211.968 72.8011C211.779 72.8011 211.623 72.7292 211.502 72.5852C211.381 72.4413 211.338 72.2726 211.374 72.0792C211.401 71.9218 211.482 71.7868 211.617 71.6744C211.752 71.5619 211.898 71.5057 212.055 71.5057C212.258 71.5057 212.417 71.5754 212.534 71.7148C212.651 71.8543 212.692 72.0252 212.656 72.2276C212.633 72.3761 212.555 72.5088 212.42 72.6257C212.289 72.7427 212.138 72.8011 211.968 72.8011ZM214.99 72.8011C214.801 72.8011 214.646 72.7292 214.525 72.5852C214.403 72.4368 214.36 72.2681 214.396 72.0792C214.428 71.9218 214.509 71.7868 214.639 71.6744C214.774 71.5619 214.921 71.5057 215.078 71.5057C215.28 71.5057 215.442 71.5754 215.564 71.7148C215.685 71.8543 215.723 72.0252 215.678 72.2276C215.647 72.3851 215.566 72.52 215.436 72.6325C215.31 72.7449 215.161 72.8011 214.99 72.8011ZM226.58 79.4336L226.452 80.2163H219.988L220.11 79.4336H226.58ZM221.135 74.6364L219.421 85H218.598L220.319 74.6364H221.135ZM227.936 74.6364L226.223 85H225.399L227.12 74.6364H227.936ZM237.657 79.4336L237.529 80.2163H231.065L231.187 79.4336H237.657ZM232.212 74.6364L230.499 85H229.675L231.396 74.6364H232.212ZM239.013 74.6364L237.3 85H236.477L238.197 74.6364H239.013ZM244.625 85.2159C243.762 85.2159 243.031 84.9843 242.433 84.521C241.839 84.0531 241.416 83.4099 241.164 82.5913C240.912 81.7726 240.874 80.837 241.049 79.7844C241.22 78.7589 241.558 77.848 242.062 77.0518C242.57 76.2512 243.191 75.6237 243.924 75.1694C244.657 74.7106 245.444 74.4812 246.285 74.4812C247.153 74.4812 247.884 74.7173 248.478 75.1896C249.076 75.6574 249.501 76.3029 249.753 77.1261C250.005 77.9447 250.048 78.8781 249.881 79.9261C249.711 80.9472 249.369 81.8581 248.856 82.6587C248.348 83.4549 247.727 84.0801 246.994 84.5344C246.261 84.9888 245.471 85.2159 244.625 85.2159ZM244.639 84.4535C245.377 84.4535 246.056 84.2466 246.677 83.8327C247.297 83.4189 247.817 82.8589 248.235 82.1527C248.658 81.4465 248.939 80.6571 249.079 79.7844C249.218 78.9388 249.198 78.1741 249.018 77.4904C248.838 76.8022 248.516 76.2579 248.053 75.8576C247.59 75.4528 247.003 75.2504 246.292 75.2504C245.559 75.2504 244.88 75.4595 244.254 75.8778C243.634 76.2962 243.112 76.8584 242.689 77.5646C242.266 78.2708 241.985 79.058 241.846 79.9261C241.702 80.7673 241.72 81.532 241.9 82.2202C242.084 82.9039 242.408 83.4482 242.871 83.853C243.339 84.2533 243.928 84.4535 244.639 84.4535ZM57.8253 102.434L57.6971 103.216H51.2333L51.3548 102.434H57.8253ZM52.3803 97.6364L50.6665 108H49.8434L51.5639 97.6364H52.3803ZM59.1815 97.6364L57.4677 108H56.6445L58.3651 97.6364H59.1815ZM60.2863 111.886L62.6613 97.6364H63.4642L63.0864 99.9506H63.1876C63.4215 99.5053 63.7139 99.096 64.0647 98.7227C64.4201 98.3493 64.8361 98.0502 65.3129 97.8253C65.7942 97.5959 66.3318 97.4812 66.9255 97.4812C67.7622 97.4812 68.4526 97.7106 68.9969 98.1694C69.5412 98.6282 69.9168 99.2602 70.1237 100.065C70.3306 100.871 70.3486 101.797 70.1776 102.845C70.0022 103.889 69.6739 104.815 69.1926 105.625C68.7158 106.43 68.131 107.064 67.4383 107.528C66.7456 107.987 65.9854 108.216 65.1578 108.216C64.5685 108.216 64.0692 108.103 63.6599 107.879C63.2551 107.654 62.9357 107.355 62.7018 106.981C62.4679 106.603 62.306 106.19 62.216 105.74H62.135L61.1095 111.886H60.2863ZM62.6073 102.838C62.4634 103.72 62.4634 104.509 62.6073 105.207C62.7558 105.899 63.0436 106.448 63.471 106.853C63.9028 107.253 64.4673 107.453 65.1645 107.453C65.8707 107.453 66.5117 107.251 67.0874 106.846C67.6677 106.437 68.1535 105.884 68.5448 105.186C68.9407 104.489 69.2106 103.707 69.3545 102.838C69.4984 101.97 69.4984 101.19 69.3545 100.497C69.2106 99.8045 68.9249 99.2579 68.4976 98.8576C68.0703 98.4528 67.499 98.2504 66.7838 98.2504C66.0821 98.2504 65.4411 98.4505 64.8609 98.8509C64.2806 99.2467 63.7948 99.791 63.4035 100.484C63.0167 101.172 62.7513 101.957 62.6073 102.838ZM74.8652 108.223C74.267 108.223 73.7385 108.103 73.2797 107.865C72.8253 107.627 72.4857 107.278 72.2608 106.819C72.0359 106.36 71.9752 105.803 72.0787 105.146C72.1551 104.714 72.2968 104.334 72.5037 104.006C72.7106 103.677 72.994 103.394 73.3539 103.156C73.7137 102.917 74.1545 102.721 74.6763 102.569C75.2026 102.411 75.8166 102.29 76.5183 102.204C77.0581 102.141 77.5394 102.078 77.9622 102.015C78.385 101.952 78.7269 101.856 78.9877 101.725C79.2486 101.595 79.4016 101.399 79.4466 101.138L79.514 100.706C79.64 99.9551 79.5118 99.3569 79.1294 98.9116C78.7471 98.4618 78.1376 98.2369 77.301 98.2369C76.5633 98.2369 75.902 98.4033 75.3173 98.7362C74.7325 99.0645 74.2962 99.4806 74.0083 99.9844L73.2931 99.6942C73.572 99.1995 73.9251 98.7879 74.3525 98.4595C74.7843 98.1312 75.2566 97.886 75.7694 97.7241C76.2866 97.5621 76.8129 97.4812 77.3482 97.4812C77.8115 97.4812 78.2433 97.5464 78.6436 97.6768C79.044 97.8073 79.3858 98.0052 79.6692 98.2706C79.9571 98.536 80.1618 98.8756 80.2832 99.2894C80.4092 99.6987 80.4226 100.189 80.3237 100.76L79.1227 108H78.2995L78.6167 106.131H78.5559C78.313 106.518 78.0072 106.871 77.6383 107.19C77.274 107.505 76.8579 107.757 76.3901 107.946C75.9223 108.13 75.414 108.223 74.8652 108.223ZM75.0204 107.46C75.6681 107.46 76.2709 107.303 76.8287 106.988C77.3909 106.669 77.8632 106.232 78.2456 105.679C78.6324 105.126 78.882 104.498 78.9945 103.797L79.2576 102.272C79.1362 102.362 78.972 102.443 78.7651 102.515C78.5582 102.582 78.3265 102.643 78.0701 102.697C77.8182 102.746 77.5551 102.791 77.2807 102.832C77.0108 102.868 76.7477 102.901 76.4913 102.933C75.7221 103.023 75.0856 103.162 74.5819 103.351C74.0781 103.536 73.689 103.779 73.4146 104.08C73.1447 104.381 72.9715 104.746 72.8951 105.173C72.7826 105.879 72.9266 106.437 73.3269 106.846C73.7317 107.256 74.2962 107.46 75.0204 107.46ZM82.5739 108L84.3011 97.6364H88.2347C89.3053 97.6364 90.1149 97.868 90.6637 98.3313C91.2125 98.7901 91.4194 99.4199 91.2844 100.221C91.181 100.819 90.9313 101.307 90.5355 101.685C90.1442 102.062 89.6269 102.344 88.9837 102.528C89.3795 102.614 89.7214 102.775 90.0092 103.014C90.3016 103.248 90.513 103.547 90.6435 103.911C90.7739 104.276 90.7987 104.694 90.7177 105.166C90.6232 105.728 90.4096 106.223 90.0767 106.651C89.7438 107.073 89.3188 107.404 88.8015 107.642C88.2842 107.881 87.6995 108 87.0472 108H82.5739ZM83.505 107.224H87.1822C87.8884 107.224 88.4934 107.028 88.9972 106.637C89.5009 106.241 89.8023 105.731 89.9013 105.105C90.0047 104.467 89.8945 103.954 89.5707 103.567C89.2513 103.18 88.779 102.987 88.1538 102.987H84.2067L83.505 107.224ZM84.3214 102.245H87.6072C88.0975 102.245 88.5473 102.157 88.9567 101.982C89.3705 101.802 89.7124 101.556 89.9822 101.246C90.2521 100.936 90.4163 100.58 90.4748 100.18C90.5647 99.6133 90.4051 99.177 89.9957 98.8711C89.5909 98.5652 88.9589 98.4123 88.0998 98.4123H84.9624L84.3214 102.245ZM99.3287 108L100.921 98.3988L97.9726 98.4123C97.1089 98.4123 96.441 98.5765 95.9687 98.9048C95.5009 99.2332 95.2085 99.7572 95.0915 100.477C94.9791 101.188 95.096 101.703 95.4424 102.022C95.7932 102.341 96.3915 102.501 97.2371 102.501H100.53L100.395 103.284H97.1022C96.3825 103.284 95.7955 103.178 95.3412 102.967C94.8869 102.751 94.5698 102.429 94.3898 102.002C94.2144 101.574 94.1784 101.046 94.2819 100.416C94.3898 99.7955 94.599 99.2804 94.9094 98.8711C95.2197 98.4573 95.6403 98.1491 96.1711 97.9467C96.7064 97.7398 97.3518 97.6364 98.1075 97.6364H101.852L100.125 108H99.3287ZM92.278 108L96.1643 102.845H97.1022L93.2158 108H92.278ZM103.699 98.419L103.827 97.6364H111.6L111.472 98.419H108.017L106.459 108H105.642L107.201 98.419H103.699ZM115.935 108.216C115.04 108.216 114.298 107.982 113.709 107.514C113.119 107.046 112.706 106.408 112.467 105.598C112.233 104.788 112.2 103.873 112.366 102.852C112.532 101.822 112.872 100.902 113.385 100.092C113.898 99.2827 114.53 98.6462 115.281 98.1829C116.032 97.7151 116.842 97.4812 117.71 97.4812C118.371 97.4812 118.949 97.6161 119.444 97.886C119.939 98.1559 120.323 98.5315 120.597 99.0128C120.872 99.4941 121.007 100.052 121.002 100.686H120.166C120.152 99.9664 119.921 99.3816 119.471 98.9318C119.025 98.4775 118.414 98.2504 117.635 98.2504C116.925 98.2504 116.257 98.4483 115.632 98.8441C115.011 99.2354 114.485 99.7752 114.053 100.463C113.621 101.152 113.331 101.943 113.182 102.838C113.038 103.716 113.056 104.503 113.236 105.2C113.421 105.893 113.749 106.441 114.221 106.846C114.698 107.251 115.296 107.453 116.016 107.453C116.529 107.453 117.017 107.352 117.48 107.15C117.944 106.943 118.351 106.655 118.702 106.286C119.052 105.913 119.313 105.477 119.484 104.977H120.321C120.114 105.621 119.792 106.185 119.356 106.671C118.924 107.157 118.414 107.537 117.824 107.811C117.24 108.081 116.61 108.216 115.935 108.216ZM128.849 108L130.442 98.3988L127.493 98.4123C126.629 98.4123 125.961 98.5765 125.489 98.9048C125.021 99.2332 124.729 99.7572 124.612 100.477C124.5 101.188 124.617 101.703 124.963 102.022C125.314 102.341 125.912 102.501 126.758 102.501H130.05L129.915 103.284H126.623C125.903 103.284 125.316 103.178 124.862 102.967C124.407 102.751 124.09 102.429 123.91 102.002C123.735 101.574 123.699 101.046 123.802 100.416C123.91 99.7955 124.119 99.2804 124.43 98.8711C124.74 98.4573 125.161 98.1491 125.692 97.9467C126.227 97.7398 126.872 97.6364 127.628 97.6364H131.373L129.645 108H128.849ZM121.798 108L125.685 102.845H126.623L122.736 108H121.798ZM133.948 108.088C133.742 108.088 133.573 108.018 133.442 107.879C133.312 107.735 133.249 107.561 133.253 107.359C133.262 107.161 133.341 106.992 133.49 106.853C133.643 106.714 133.818 106.644 134.016 106.644C134.218 106.644 134.387 106.716 134.522 106.86C134.661 106.999 134.724 107.166 134.711 107.359C134.702 107.494 134.661 107.618 134.589 107.73C134.522 107.843 134.43 107.93 134.313 107.993C134.2 108.056 134.079 108.088 133.948 108.088ZM138.903 108.088C138.696 108.088 138.527 108.018 138.396 107.879C138.266 107.735 138.203 107.561 138.208 107.359C138.217 107.161 138.295 106.992 138.444 106.853C138.597 106.714 138.772 106.644 138.97 106.644C139.172 106.644 139.341 106.716 139.476 106.86C139.615 106.999 139.678 107.166 139.665 107.359C139.656 107.494 139.615 107.618 139.544 107.73C139.476 107.843 139.384 107.93 139.267 107.993C139.154 108.056 139.033 108.088 138.903 108.088ZM143.857 108.088C143.65 108.088 143.481 108.018 143.351 107.879C143.22 107.735 143.157 107.561 143.162 107.359C143.171 107.161 143.249 106.992 143.398 106.853C143.551 106.714 143.726 106.644 143.924 106.644C144.127 106.644 144.295 106.716 144.43 106.86C144.57 106.999 144.633 107.166 144.619 107.359C144.61 107.494 144.57 107.618 144.498 107.73C144.43 107.843 144.338 107.93 144.221 107.993C144.109 108.056 143.987 108.088 143.857 108.088Z" fill="black"/>
</g>
<defs>
<filter id="filter0_d_5_8" x="44.7099" y="47.75" width="252.252" height="72.1364" filterUnits="userSpaceOnUse" color-interpolation-filters="sRGB">
<feFlood flood-opacity="0" result="BackgroundImageFix"/>
<feColorMatrix in="SourceAlpha" type="matrix" values="0 0 0 0 0 0 0 0 0 0 0 0 0 0 0 0 0 0 127 0" result="hardAlpha"/>
<feOffset dy="4"/>
<feGaussianBlur stdDeviation="2"/>
<feComposite in2="hardAlpha" operator="out"/>
<feColorMatrix type="matrix" values="0 0 0 0 0 0 0 0 0 0 0 0 0 0 0 0 0 0 0.1 0"/>
<feBlend mode="normal" in2="BackgroundImageFix" result="effect1_dropShadow_5_8"/>
<feBlend mode="normal" in="SourceGraphic" in2="effect1_dropShadow_5_8" result="shape"/>
</filter>
</defs>
</svg>
