<svg width="215" height="393" viewBox="0 0 215 393" fill="none" xmlns="http://www.w3.org/2000/svg">
<path d="M112.049 45.7959L111.149 45.2533L111.296 46.2941L115.281 74.4801H92.475L100.607 36.5751L100.659 36.3338L100.499 36.146C95.9463 30.8023 92.903 24.2981 93.4121 17.0406L92.9133 17.0056L93.4121 17.0406C93.7784 11.8187 95.8612 8.237 98.8328 5.93296C101.818 3.61807 105.749 2.55683 109.855 2.48414C113.96 2.41149 118.201 3.32797 121.767 4.92477C125.343 6.52588 128.182 8.78393 129.559 11.3504L129.559 11.3504C132.393 16.6339 133.673 26.0766 133.29 34.4826C133.099 38.6761 132.497 42.5681 131.49 45.5161C130.987 46.9904 130.39 48.2075 129.708 49.1056C129.028 50.0031 128.285 50.5545 127.492 50.7589L127.491 50.759C126.14 51.1076 123.915 50.8657 121.161 50.0086C118.431 49.159 115.258 47.7297 112.049 45.7959Z" fill="white" stroke="black"/>
<path d="M112.48 19.2341L112.576 19.0902C114.662 15.985 116.712 13.5387 119.42 12.109L119.533 12.0492L119.661 12.0512C122.289 12.0927 124.311 12.0053 125.868 11.7585C127.427 11.5114 128.478 11.1107 129.199 10.5577C130.569 9.5058 130.92 7.76405 130.939 4.71801C130.065 4.17199 128.306 3.44188 125.962 2.76562C123.432 2.03574 120.277 1.38463 116.946 1.09889L116.897 1.09475L116.851 1.08142C113.53 0.131002 109.576 0.305572 105.756 1.90359L105.729 1.91515L105.7 1.92333C100.98 3.26241 97.0391 6.12216 95.2926 11.4638L95.2763 11.5137L95.25 11.5591C88.9585 22.4155 93.5498 33.6556 99.8328 37.7372C101.389 35.8743 102.77 34.0633 104.017 32.3194C102.985 31.169 102.356 29.6475 102.356 27.9801C102.356 24.3903 105.266 21.4801 108.856 21.4801C109.12 21.4801 109.38 21.4958 109.636 21.5264L110.061 21.5771L110.076 22.0049C110.15 24.0733 110.341 28.6049 110.713 33.2248C111.088 37.868 111.642 42.5271 112.425 44.894C112.855 46.193 113.815 47.2777 115.126 48.1782C116.437 49.0789 118.07 49.7747 119.788 50.3009C123.226 51.354 126.915 51.7011 128.807 51.7011C129.562 51.7011 130.072 51.5235 130.426 51.2667C130.782 51.0091 131.027 50.6381 131.192 50.1699C131.533 49.2028 131.495 47.9484 131.453 46.7892L131.453 46.7879C131.451 46.7458 131.45 46.7037 131.448 46.6618C131.439 46.3881 131.43 46.1191 131.429 45.8727C131.411 45.8641 131.379 45.8518 131.328 45.8394C131.106 45.7853 130.776 45.7826 130.327 45.7831L112.48 19.2341ZM112.48 19.2341L112.493 19.4069L112.493 19.4121C112.509 19.6285 112.869 24.4087 113.953 29.1669C114.499 31.5662 115.237 33.9952 116.226 35.8356C117.198 37.6433 118.515 39.0648 120.282 39.0648C123.94 39.0648 127.249 37.6743 129.809 36.5984L129.841 36.5851C130.699 36.2247 131.463 35.9038 132.141 35.6719C132.824 35.4381 133.374 35.3112 133.806 35.3112C134.171 35.3112 134.34 35.4206 134.429 35.5276C134.53 35.6492 134.604 35.8619 134.593 36.1979C134.572 36.8769 134.207 37.8127 133.615 38.6419L133.614 38.6421C133.473 38.8397 133.195 39.0738 132.773 39.3488C132.361 39.6177 131.864 39.8937 131.327 40.1921C131.327 40.1921 131.327 40.1921 131.327 40.1921L131.304 40.2049C130.465 40.6703 129.53 41.1895 128.805 41.7727C128.09 42.3488 127.45 43.0888 127.45 44.0201C127.45 44.4238 127.553 44.7747 127.769 45.0568C127.982 45.3349 128.27 45.5004 128.56 45.6008C129.098 45.7868 129.764 45.7848 130.285 45.7832L130.326 45.7831L112.48 19.2341Z" fill="#191847" stroke="black"/>
<path d="M128.242 285.575L88.9906 163.616L141.232 162.109L175.094 375.058L156.941 375.582L128.242 285.576L128.242 285.575Z" fill="#191847" stroke="black"/>
<path d="M122.87 159.987C115.377 191.431 111.832 216.51 109.735 234.86C109.105 240.365 108.605 245.281 108.168 249.574C107.873 252.467 107.607 255.076 107.351 257.391C106.708 263.189 106.119 267.146 105.284 269.31C104.392 271.618 103.839 275.349 103.227 280.652C103.027 282.388 102.82 284.298 102.594 286.389C102.124 290.722 101.571 295.837 100.814 301.819C98.5806 319.484 94.5857 344.664 85.8277 379.205L66.8328 379.98C72.0311 344.606 73.7319 318.522 74.209 300.513C74.4489 291.458 74.3794 284.446 74.2898 279.325C74.2721 278.311 74.2537 277.374 74.2368 276.511C74.1676 272.991 74.1229 270.712 74.2474 269.543L74.2474 269.543C74.3329 268.739 74.2711 267.419 74.1177 265.645C73.9631 263.856 73.7106 261.559 73.3995 258.775C73.3637 258.455 73.3271 258.128 73.2898 257.794C72.6781 252.33 71.8708 245.118 71.1226 236.251C69.543 217.529 68.2264 191.424 69.5747 158.836L122.87 159.987Z" fill="#2F3676" stroke="black"/>
<path d="M124.798 389.181C125.089 389.265 125.325 389.331 125.5 389.38V392.5H88.0382L75.076 390.506L74.5 390.417V391V392.5H65.5244L66.4768 372.5H86.8422C94.3457 377.745 104.076 381.981 111.926 384.906C115.878 386.379 119.362 387.522 121.858 388.298C123.106 388.686 124.108 388.982 124.798 389.181Z" fill="#191847" stroke="black"/>
<path d="M213.798 389.181C214.089 389.265 214.325 389.331 214.5 389.38V392.5H177.038L164.076 390.506L163.5 390.417V391V392.5H154.524L155.477 372.5H175.842C183.346 377.745 193.076 381.981 200.926 384.906C204.878 386.379 208.362 387.522 210.858 388.298C212.106 388.686 213.108 388.982 213.798 389.181Z" fill="#191847" stroke="black"/>
<path d="M17.0397 202.152L17.0442 202.138L17.0479 202.123L20.8624 187.104L36.0066 190.84C35.8485 191.179 35.6231 191.662 35.3476 192.249C34.7855 193.448 34.0146 195.083 33.1795 196.83C31.5052 200.332 29.5851 204.255 28.5669 206.02L29 206.27L28.5669 206.02C27.1849 208.417 25.8401 212.952 25.0394 217.5C24.6374 219.783 24.369 222.09 24.3029 224.158C24.2372 226.216 24.3703 228.076 24.7962 229.447C24.983 230.049 25.1585 230.615 25.3146 231.137C24.7676 231.238 24.3175 231.218 23.9379 231.122C23.4509 230.998 23.0404 230.739 22.6659 230.378C22.2869 230.013 21.9535 229.552 21.6225 229.036C21.4911 228.832 21.3512 228.604 21.2084 228.37C21.015 228.055 20.8162 227.73 20.626 227.444L20.626 227.444C20.2926 226.943 20.1211 226.398 19.9828 225.843C19.9565 225.738 19.9309 225.629 19.9048 225.517C19.8021 225.08 19.6919 224.61 19.5092 224.232C19.3867 223.978 19.2205 223.735 18.9797 223.539C18.7367 223.341 18.4423 223.211 18.0933 223.148C17.4182 223.025 16.5187 223.149 15.2969 223.522L15.2969 223.522C14.2377 223.845 13.2884 224.675 12.632 225.369C12.2965 225.724 12.0225 226.059 11.8321 226.306C11.7368 226.429 11.6619 226.531 11.6104 226.603C11.6025 226.614 11.5951 226.624 11.5883 226.634C10.676 227.229 10.0103 227.703 9.46814 228.089C9.36226 228.165 9.26109 228.237 9.16372 228.306C8.5517 228.739 8.10067 229.042 7.55622 229.303C6.48575 229.818 5.01886 230.195 1.31458 230.944C1.3101 230.929 1.30568 230.913 1.3014 230.895C1.26388 230.744 1.246 230.531 1.26097 230.252C1.29089 229.695 1.44727 228.955 1.73455 228.094C2.30195 226.394 3.35262 224.301 4.79892 222.359C8.62548 219.523 11.6782 214.457 13.7653 210.156C14.8196 207.983 15.6372 205.985 16.1914 204.529C16.4686 203.802 16.6801 203.209 16.8226 202.797C16.8938 202.592 16.9478 202.431 16.9841 202.322C17.0023 202.267 17.0161 202.225 17.0253 202.196L17.0359 202.164L17.0386 202.155L17.0394 202.153L17.0396 202.152C17.0397 202.152 17.0397 202.152 16.5633 202L17.0397 202.152ZM181.552 183.224L181.566 183.251L181.584 183.277C182.015 183.925 182.506 184.669 183.044 185.485C184.993 188.441 187.57 192.349 190.264 196.091C191.984 198.48 193.757 200.809 195.452 202.786C197.124 204.738 198.742 206.373 200.172 207.38C200.461 207.689 200.748 208.055 200.943 208.414C201.156 208.806 201.21 209.095 201.167 209.272C201.14 209.387 201.038 209.585 200.51 209.711C199.967 209.84 199.077 209.859 197.688 209.654C196.356 209.458 194.71 208.81 192.977 207.994C191.86 207.468 190.739 206.888 189.661 206.33C189.066 206.022 188.484 205.721 187.924 205.44C187.144 205.049 186.409 204.698 185.757 204.433C185.113 204.171 184.513 203.977 184.013 203.924C183.532 203.874 182.96 203.942 182.646 204.443C182.371 204.882 182.422 205.479 182.599 206.11L182.612 206.183C182.623 206.247 182.64 206.34 182.661 206.455C182.704 206.685 182.768 207.005 182.849 207.368C183.009 208.084 183.245 208.995 183.539 209.694C184.017 210.829 183.949 212.13 182.976 212.898C181.954 212.64 180.948 211.846 179.979 210.528C178.951 209.129 178.009 207.2 177.168 204.884C175.488 200.254 174.244 194.17 173.496 187.94L173.479 187.796L173.386 187.683L165.459 178.028L174.368 168.854L181.552 183.224Z" fill="white" stroke="black"/>
<path d="M106.701 74.4685C104.846 69.7899 103.7 65.7849 103.708 63.0181L114.062 59.72C142.576 93.848 159.496 129.118 176.403 169.37L164.712 180.126C159.333 165.503 155.121 155.517 149.808 146.313C144.419 136.976 137.909 128.462 127.931 116.734C126.885 114.274 124.829 110.392 122.352 105.797C121.919 104.995 121.474 104.171 121.018 103.328C118.832 99.2819 116.413 94.8047 114.09 90.2876C111.284 84.8286 108.627 79.324 106.701 74.4685Z" fill="#C5CFD6" stroke="black"/>
<path d="M143.181 156.47L143.181 156.47C143.666 157.656 143.825 159.131 143.605 160.339C143.38 161.571 142.811 162.339 142.002 162.489C128.521 164.978 110.011 164.981 94.8403 164.356C87.2613 164.044 80.5272 163.575 75.6879 163.185C73.2684 162.99 71.3229 162.814 69.9826 162.688C69.3124 162.624 68.7936 162.573 68.4426 162.538C68.4267 162.536 68.4111 162.535 68.3959 162.533C72.3361 116.184 81.4379 83.9612 101.091 55.8899C101.148 55.897 101.211 55.905 101.281 55.9137C101.597 55.9527 102.052 56.0056 102.612 56.0621C103.731 56.1751 105.271 56.3023 106.953 56.359C108.632 56.4156 110.463 56.4021 112.16 56.2311C113.527 56.0934 114.837 55.851 115.919 55.4442C116.121 82.9157 127.178 117.257 143.181 156.47Z" fill="#323337" stroke="black"/>
<path d="M95.149 53.4804H95.3017L95.3783 53.4288L95.3753 53.4804H95.905H103.776C104.185 56.4045 104.775 65.1857 105.622 77.7767L105.624 77.8119L105.625 77.8257C107.244 101.909 109.786 139.743 113.769 176.494C117.705 212.818 123.054 248.149 130.329 268.086H29.7662C32.0133 223.391 48.4758 170.018 65.548 124.626L64.7274 124.096C58.3202 130.471 54.1471 139.141 50.0873 150.555C48.0564 156.265 46.0485 162.678 43.8049 169.849L43.7614 169.988C41.5659 177.005 39.142 184.752 36.2448 193.295L18.0979 188.637C37.5661 105.331 83.423 61.7595 94.3521 54.1344L94.4684 54.0534L94.5248 53.9233C94.5858 53.7825 94.6469 53.6413 94.7078 53.5006C94.7107 53.4939 94.7136 53.4871 94.7165 53.4804H95.149Z" fill="#DDE3E9" stroke="black"/>
<path fill-rule="evenodd" clip-rule="evenodd" d="M142.469 21.4157C142.388 21.4023 142.307 21.3896 142.226 21.3777C142.163 21.3419 142.089 21.3143 142.003 21.2977C141.806 21.2476 141.61 21.214 141.415 21.1958C138.612 20.565 132.127 21.4606 131.86 23.8526C130.967 24.1506 130.195 23.8838 129.16 23.9103C128.373 20.6187 114.758 21.0833 114.103 23.0678C114.101 23.0671 114.098 23.0665 114.096 23.0657C113.467 22.871 112.539 22.918 111.819 22.8871C110.281 22.8549 108.742 22.9919 107.238 23.3162C104.421 23.7639 100.576 24.288 102.535 27.8059C102.535 27.8065 102.536 27.8072 102.536 27.8078L102.537 27.8075C102.874 28.1536 103.447 27.8749 103.469 27.4063C102.81 25.7398 104.298 25.5396 105.442 25.0607C108.291 24.0374 111.191 23.8956 114.136 24.2121C114.358 24.473 114.694 24.7006 115.05 24.8196C117.019 25.1466 115.981 26.6076 117.226 26.8201C116.998 31.9132 123.181 34.6932 126.764 31.3452C128.194 29.9467 128.535 27.8749 128.867 26.0074C129.042 25.968 129.154 25.8721 129.219 25.7452C129.641 25.3241 129.906 24.9353 130.74 24.8196C131.574 24.7041 132.216 24.936 132.303 25.0071C132.325 25.0512 132.348 25.0954 132.375 25.1396C132.413 25.2055 132.465 25.2581 132.524 25.2994C131.701 30.3711 135.638 33.5785 139.613 30.948C141.34 29.3234 141.705 26.8361 141.777 24.6161C142.011 24.4748 142.159 24.201 142.078 23.8568C141.967 23.3822 142.228 22.9714 142.646 22.7651C143.188 22.4972 143.092 21.5188 142.469 21.4157ZM125.39 23.8218C124.897 23.7133 124.686 24.4739 125.181 24.5828C125.532 24.6598 125.828 24.8366 126.029 25.136L126.05 25.1685C126.32 25.597 127.001 25.2015 126.729 24.7702C126.424 24.2848 125.95 23.9449 125.39 23.8218ZM139.84 23.3502C139.666 23.2276 139.403 23.3186 139.302 23.4917C139.191 23.6824 139.264 23.8946 139.427 24.0193L139.443 24.0315C139.593 24.1368 139.738 24.3256 139.756 24.519L139.758 24.5432C139.778 25.0494 140.564 25.0519 140.545 24.5432C140.525 24.0455 140.237 23.6297 139.84 23.3502Z" fill="black"/>
</svg>
