<svg width="250" height="471" viewBox="0 0 250 471" fill="none" xmlns="http://www.w3.org/2000/svg">
<path d="M134.505 118.931L133.502 118.615L133.89 119.593L144.392 146.051L122.226 151.414L121.215 112.66L121.209 112.413L121.009 112.268C115.327 108.145 110.84 102.539 109.628 95.3655L109.135 95.4488L109.628 95.3655C108.756 90.204 109.938 86.2329 112.284 83.2946C114.642 80.3425 118.212 78.3866 122.186 77.3502C126.158 76.3144 130.496 76.2077 134.338 76.921C138.19 77.6362 141.481 79.1632 143.422 81.3339L143.422 81.3339C147.42 85.8026 150.884 94.6796 152.489 102.94C153.29 107.06 153.62 110.985 153.335 114.087C153.192 115.638 152.898 116.962 152.447 117.995C151.997 119.027 151.404 119.738 150.681 120.123L150.681 120.123C149.449 120.78 147.23 121.068 144.352 120.883C141.499 120.699 138.078 120.056 134.505 118.931Z" fill="white" stroke="black"/>
<path d="M128.676 93.0132L128.736 92.8506C130.033 89.342 131.451 86.4821 133.746 84.4557L133.842 84.3709L133.967 84.3428C136.531 83.7652 138.476 83.2047 139.931 82.5986C141.388 81.9918 142.315 81.3552 142.886 80.6481C143.971 79.3034 143.902 77.528 143.204 74.5631C142.226 74.2378 140.344 73.9419 137.907 73.8359C135.276 73.7215 132.057 73.8306 128.752 74.3363L128.704 74.3437L128.656 74.3417C125.205 74.1989 121.403 75.2984 118.066 77.75L118.042 77.7677L118.016 77.7824C113.743 80.1939 110.585 83.9003 110.144 89.5029L110.14 89.5552L110.125 89.6056C106.563 101.637 113.669 111.482 120.736 113.972C121.811 111.795 122.727 109.71 123.529 107.722C122.254 106.846 121.286 105.515 120.894 103.895C120.05 100.406 122.193 96.8927 125.683 96.0483C125.939 95.9863 126.196 95.9404 126.451 95.91L126.876 95.8594L126.992 96.2715C127.551 98.2644 128.801 102.624 130.25 107.027C131.706 111.452 133.34 115.85 134.658 117.966C135.382 119.128 136.57 119.956 138.055 120.523C139.541 121.09 141.292 121.382 143.086 121.49C146.676 121.705 150.343 121.175 152.182 120.73C152.915 120.552 153.369 120.26 153.653 119.927C153.938 119.593 154.089 119.174 154.139 118.681C154.243 117.66 153.911 116.45 153.598 115.333L153.597 115.332C153.586 115.291 153.575 115.251 153.563 115.21C153.49 114.947 153.418 114.687 153.359 114.448C153.339 114.444 153.306 114.44 153.253 114.439C153.024 114.439 152.703 114.514 152.267 114.62L128.676 93.0132ZM128.676 93.0132L128.73 93.178L128.731 93.183C128.798 93.3895 130.272 97.9511 132.444 102.321C133.539 104.524 134.828 106.712 136.222 108.268C137.592 109.796 139.206 110.868 140.924 110.453C144.479 109.593 147.368 107.463 149.604 105.815L149.631 105.794C150.381 105.242 151.048 104.751 151.652 104.366C152.261 103.978 152.766 103.725 153.186 103.624C153.54 103.538 153.731 103.604 153.842 103.688C153.969 103.782 154.091 103.971 154.159 104.3C154.298 104.965 154.164 105.961 153.783 106.906L153.783 106.906C153.692 107.132 153.476 107.425 153.131 107.791C152.794 108.149 152.376 108.534 151.924 108.951C151.924 108.951 151.924 108.951 151.924 108.951L151.904 108.969C151.199 109.618 150.412 110.343 149.845 111.08C149.285 111.808 148.837 112.678 149.056 113.583C149.151 113.976 149.334 114.292 149.61 114.516C149.882 114.736 150.201 114.829 150.507 114.859C151.073 114.913 151.72 114.754 152.226 114.63L152.266 114.62L128.676 93.0132Z" fill="#191847" stroke="black"/>
<path d="M144.608 359.155L144.604 359.112L144.592 359.07L108.518 232.48H161.272L172.766 452.5H154.45L144.608 359.155Z" fill="#191847" stroke="black"/>
<path d="M133.34 232.48C124.602 263.588 122.08 288.04 121.279 305.833C120.986 312.338 120.923 317.957 120.87 322.676C120.85 324.449 120.831 326.096 120.803 327.614C120.75 330.397 120.663 332.744 120.472 334.665C120.28 336.594 119.987 338.052 119.541 339.079C118.562 341.337 117.482 345.724 116.297 351.939C115.108 358.172 113.804 366.292 112.386 376.054C109.564 395.485 106.285 421.441 102.557 452H83.465C80.0238 417.773 81.7814 392.577 83.8402 374.466C84.3263 370.19 84.8315 366.292 85.2891 362.761C85.802 358.804 86.255 355.309 86.5542 352.26C87.112 346.575 87.1583 342.271 86.0137 339.222C86.9388 332.895 91.5261 297.259 98.6083 232.48H133.34Z" fill="#2F3676" stroke="black"/>
<path d="M45.2018 467.181C44.9109 467.265 44.6754 467.331 44.5 467.38V470.5H81.9618L94.924 468.506L95.5 468.417V469V470.5H104.476L103.523 450.5H83.1578C75.6543 455.745 65.9237 459.981 58.0736 462.906C54.1217 464.379 50.6379 465.522 48.1417 466.298C46.8935 466.686 45.8919 466.982 45.2018 467.181Z" fill="#191847" stroke="black"/>
<path d="M211.798 467.181C212.089 467.265 212.325 467.331 212.5 467.38V470.5H175.038L162.076 468.506L161.5 468.417V469V470.5H152.524L153.477 450.5H173.842C181.346 455.745 191.076 459.981 198.926 462.906C202.878 464.379 206.362 465.522 208.858 466.298C210.106 466.686 211.108 466.982 211.798 467.181Z" fill="#191847" stroke="black"/>
<path d="M36.3039 290.605L36.737 290.855L36.3039 290.605C34.8801 293.074 34.8229 296.28 35.2853 299.442C35.7489 302.612 36.7519 305.841 37.552 308.416L37.5555 308.427C37.743 309.031 37.9191 309.599 38.0757 310.122C36.7815 310.399 35.9073 310.161 35.2216 309.698C34.4079 309.149 33.8021 308.251 33.1125 307.213L33.0844 307.171C32.3404 306.051 31.5007 304.788 30.2058 304.018C28.8571 303.216 27.0959 302.988 24.5933 303.751L24.739 304.229L24.5932 303.751C22.7137 304.324 20.9112 305.058 19.1737 305.765L19.1576 305.772L19.3462 306.235L19.1576 305.772C16.1251 307.007 13.3084 308.15 10.468 308.355C7.66614 308.557 4.81678 307.845 1.73163 305.286C1.35139 304.971 0.952339 304.233 1.00463 303.403C1.05389 302.621 1.51255 301.683 2.98279 300.952C6.99465 298.957 11.9392 296.138 16.1108 293.481C18.1965 292.153 20.0953 290.861 21.5905 289.73C23.0657 288.614 24.2055 287.613 24.7137 286.866C25.2094 286.138 25.9719 284.585 26.9147 282.476C27.8648 280.352 29.0157 277.62 30.29 274.502C32.839 268.263 35.8868 260.462 38.8169 252.835C41.7473 245.208 44.561 237.751 46.6421 232.202C47.6826 229.428 48.54 227.13 49.1373 225.526C49.436 224.724 49.6696 224.095 49.8286 223.667L49.9313 223.39L66.5807 225.807L66.5402 225.895L65.6316 227.865C64.8478 229.564 63.7258 231.995 62.373 234.923C59.6673 240.779 56.0383 248.625 52.345 256.582C48.6516 264.539 44.8941 272.607 41.9314 278.909C38.9608 285.228 36.8052 289.736 36.3039 290.605ZM209.959 20.698L210.01 20.5791L209.998 20.4502C209.505 15.5263 210.359 10.276 211.998 6.75989C212.82 4.99508 213.809 3.73254 214.861 3.12915C215.379 2.83233 215.908 2.6965 216.449 2.72971C216.91 2.75803 217.406 2.91093 217.933 3.22744C217.412 5.44667 217.041 7.22436 216.809 8.61971C216.567 10.0761 216.471 11.1511 216.529 11.8866C216.558 12.2516 216.628 12.5829 216.774 12.8433C216.934 13.128 217.19 13.3302 217.532 13.3706C217.835 13.4064 218.132 13.3049 218.388 13.1744C218.652 13.0395 218.932 12.8419 219.222 12.6062C220.111 11.8847 221.272 10.6515 222.619 9.21981C223.005 8.81021 223.406 8.38436 223.82 7.94962C225.703 5.97298 227.901 3.7663 230.307 1.89467C232.381 0.28185 234.302 0.514136 235.736 1.14516C236.464 1.46522 237.065 1.88981 237.487 2.23733C237.696 2.4104 237.859 2.56251 237.969 2.66996C238.023 2.72363 238.064 2.766 238.091 2.79407L238.094 2.79748C238.097 2.80281 238.1 2.80865 238.104 2.81499C238.109 2.8247 238.115 2.83558 238.121 2.84759C238.156 2.91275 238.206 3.01102 238.264 3.13756C238.38 3.39127 238.526 3.75519 238.642 4.19133C238.876 5.06903 238.982 6.19992 238.536 7.3143C238.069 8.48129 237.577 10.0412 237.045 11.73C236.771 12.5997 236.486 13.5037 236.188 14.4057C235.3 17.0926 234.291 19.7911 233.076 21.735C232.295 22.9846 231.607 23.809 230.876 24.4122C230.147 25.0129 229.351 25.4147 228.323 25.7867C227.56 26.063 226.69 26.3157 225.636 26.6221C225.251 26.734 224.842 26.8531 224.404 26.9831C222.778 27.4656 220.797 28.0885 218.322 29.0328L218.069 29.1293L218.011 29.3938L215.609 40.4429L202.22 38.6413L209.959 20.698Z" fill="white" stroke="black"/>
<path d="M172.122 138.672C165.06 146.124 152.153 154.786 141.563 159.069L139.523 135.745C172.836 112.49 187.218 83.4925 200.584 37.7526L217.754 39.8657C208.423 76.1374 198.257 105.603 172.122 138.672Z" fill="#C5CFD6" stroke="black"/>
<path d="M167.181 230.47L167.181 230.47C167.665 231.656 167.825 233.131 167.604 234.339C167.38 235.571 166.811 236.339 166.001 236.488C152.521 238.978 134.01 238.98 118.84 238.356C111.261 238.043 104.527 237.575 99.6877 237.185C97.2681 236.99 95.3226 236.814 93.9823 236.687C93.3122 236.624 92.7934 236.573 92.4423 236.538C92.4264 236.536 92.4109 236.534 92.3957 236.533C96.3358 190.184 105.438 157.961 125.091 129.89C125.147 129.897 125.211 129.905 125.281 129.913C125.597 129.952 126.052 130.005 126.612 130.062C127.731 130.175 129.271 130.302 130.952 130.359C132.632 130.415 134.462 130.402 136.16 130.231C137.527 130.093 138.836 129.851 139.919 129.444C140.12 156.915 151.178 191.257 167.181 230.47Z" fill="#323337" stroke="black"/>
<path d="M119.149 127.48H119.302L119.378 127.429L119.375 127.48H119.905H127.776C128.185 130.404 128.775 139.185 129.622 151.776L129.624 151.812L129.625 151.825C131.244 175.909 133.786 213.743 137.769 250.494C141.705 286.818 147.054 322.149 154.329 342.086H53.7662C56.0133 297.391 72.4757 244.018 89.548 198.626L88.7274 198.096C76.0692 210.691 61.3281 231.734 49.3941 266.654L31.2467 261.995C50.7444 178.742 107.37 135.796 118.352 128.134L118.468 128.053L118.525 127.923C118.586 127.782 118.647 127.641 118.708 127.5C118.711 127.494 118.714 127.487 118.716 127.48H119.149Z" fill="#DDE3E9" stroke="black"/>
<path fill-rule="evenodd" clip-rule="evenodd" d="M158.358 88.5322C158.277 88.5388 158.195 88.5462 158.114 88.5543C158.044 88.5348 157.965 88.5261 157.877 88.5309C157.674 88.5303 157.476 88.5451 157.282 88.5749C154.41 88.6437 148.337 91.0875 148.658 93.4729C147.865 93.9788 147.051 93.9075 146.054 94.1845C144.49 91.1827 131.396 94.9401 131.243 97.0242C131.24 97.0241 131.238 97.0241 131.235 97.024C130.578 96.9879 129.689 97.2587 128.983 97.4037C127.484 97.7459 126.024 98.2527 124.643 98.9326C122.019 100.051 118.417 101.493 121.172 104.43C121.173 104.43 121.173 104.431 121.174 104.432L121.174 104.431C121.585 104.685 122.074 104.275 121.981 103.816C120.937 102.359 122.331 101.804 123.326 101.061C125.84 99.3765 128.619 98.5345 131.553 98.1261C131.832 98.3254 132.213 98.4645 132.587 98.4936C134.577 98.3324 133.925 100.002 135.184 99.9056C136.199 104.902 142.873 106.097 145.535 101.979C146.583 100.275 146.411 98.1821 146.279 96.2899C146.439 96.2091 146.524 96.089 146.557 95.9501C146.863 95.4392 147.026 94.9977 147.807 94.6829C148.588 94.3683 149.267 94.4374 149.369 94.4852C149.4 94.5227 149.434 94.5599 149.471 94.5961C149.524 94.6508 149.587 94.6892 149.655 94.715C150.087 99.8348 154.686 101.99 157.903 98.4728C159.183 96.4774 158.933 93.976 158.464 91.8049C158.657 91.611 158.734 91.3093 158.572 90.9951C158.348 90.5619 158.503 90.0998 158.857 89.7983C159.318 89.4068 158.987 88.481 158.358 88.5322ZM142.375 95.0143C141.87 95.0288 141.851 95.8179 142.357 95.8033C142.716 95.7929 143.047 95.8922 143.314 96.1339L143.343 96.1603C143.708 96.5106 144.272 95.9615 143.905 95.609C143.491 95.2123 142.948 94.9977 142.375 95.0143ZM156.278 91.0472C156.079 90.9706 155.846 91.1228 155.79 91.3152C155.729 91.5272 155.851 91.7154 156.039 91.7968L156.058 91.8046C156.229 91.8704 156.416 92.0182 156.481 92.2014L156.488 92.2245C156.63 92.7108 157.394 92.5222 157.251 92.0334C157.112 91.5553 156.731 91.222 156.278 91.0472Z" fill="black"/>
</svg>
