<svg width="391" height="780" viewBox="0 0 391 780" fill="none" xmlns="http://www.w3.org/2000/svg">
<path fill-rule="evenodd" clip-rule="evenodd" d="M306.436 364.501C306.396 367.224 306.123 373.479 305.438 376.115C313.066 363.909 324.496 350.568 326.234 335.619C325.692 335.471 323.289 335.249 322.869 334.935C318.922 336.765 319.669 331.132 319.086 328.527C317.511 323.011 314.201 317.585 312.764 312.032C308.984 310.401 316.574 309.709 317.677 309.677C313.092 304.581 310.984 297.576 307.719 291.632C302.923 281.53 298.628 271.203 294.792 260.714C293.954 267.286 293.803 273.93 294.314 280.538C295.891 308.845 306.543 336.062 306.436 364.501ZM41.695 314.218C44.068 314.616 48.022 314.993 50.391 315.187C47.282 313.337 38.094 309.812 43.884 306.645C45.67 305.994 47.585 306.922 49.386 307.209C56.862 308.438 66.094 308.373 73.657 307.754C70.9 305.495 67.27 302.241 64.579 299.903C63.149 298.661 61.763 298.19 63.371 296.335C66.207 293.699 71.277 295.64 74.555 296.798C83.598 301.856 93.809 307.342 103.514 311.234C103.616 309.876 103.553 308.121 104.864 307.209C108.71 305.4 111.541 305.929 115.633 305.447C120.403 304.733 124.642 303.922 129.365 302.662C132.455 300.31 134.339 293.373 139.279 294.149C134.903 283.157 141.572 271.689 144.077 261.164C147.203 250.393 148.846 239.206 148.89 228.007C148.921 210.076 159.324 196.317 174.357 187.116C180.283 183.121 184.262 173.403 191.599 171.457C192.532 167.883 192.588 166.313 193.408 162.711C193.819 161.677 194.125 156.063 195.159 156.254C196.3 150.694 202.114 148.463 207.144 147.299C213.685 145.946 222.813 144.306 228.693 148.125C230.396 149.54 231.145 151.909 231.269 154.025C231.923 156.843 233.282 159.762 234.866 162.207C237.569 161.295 236.039 159.596 238.713 159.2C263.128 155.588 290.228 173.469 306.069 190.913C334.782 220.35 357.721 260.536 353.966 302.49C354.976 302.342 359.452 301.641 359.387 303.053C359.168 309.193 358.036 314.314 357.724 320.448C358.035 328.576 349.577 329.555 343.467 331.559C343.844 355.139 335.263 378.724 321.833 398.107C318.57 401.921 313.674 415.156 307.719 409.884C307.017 409.064 312.46 403.387 313.428 401.985C316.735 397.829 325.493 377.254 319.303 373.144C317.927 377.586 304.602 398.943 302.227 386.821C299.073 388.649 293.86 389.896 290.088 389.707C282.999 393.541 276.1 397.682 269.292 401.985C266.121 408.203 261.469 414.175 257.572 420.145C284.542 482.341 310.868 584.71 345.575 643.291C348.601 647.117 331.954 653.619 329.013 655.023C334.636 664.139 335.34 674.702 339.618 684.518C340.433 684.386 341.255 684.559 341.99 684.952C347.268 688.52 349.259 701.293 349.56 707.591C349.316 710.4 350.359 714.649 348.083 716.718C348.401 717.062 348.638 717.482 348.808 717.91C350.41 719.156 350.212 721.907 349.356 723.613C346.343 729.857 324.317 729.278 317.169 730.614C291.85 732.755 270.6 733.092 245.285 730.752C242.177 730.102 244.527 725.262 246.061 723.949C245.353 723.519 244.9 722.733 245.21 721.723C250.965 705.291 271.765 706.403 284.352 697.628C281.042 695.717 283.178 696.327 285.258 697.07C287.464 695.685 289.611 694.127 291.6 692.406C290.072 691.464 290.826 690.842 292.478 691.631C295.082 689.546 297.11 686.323 300.428 685.312C303.677 684.518 303.677 683.13 303.677 682.256C301.743 674.493 299.631 666.533 298.545 658.66C297.387 660.365 287.395 646.702 285.258 643.291C276.951 630.156 276.973 617.213 271.16 602.929C259.222 571.822 234.769 506.627 219.857 476.877C184.965 533.642 201.96 610.414 180.435 670.945C179.479 672.763 177.68 679.583 175.189 677.616C174.22 677.842 173.191 677.964 172.269 678.094C172.535 684.711 173.032 691.311 174.133 697.858C175.159 698.129 176.03 698.667 176.482 699.607C178.209 698.34 181.517 717.025 181.8 718.928C181.804 721.383 183.924 726.85 181.988 728.309C184.778 729.449 185.234 733.661 183.272 735.827C177.446 743.643 149.051 741.495 138.575 742.806C125.328 742.477 69.91 747.429 66.062 734.883C65.297 732.019 66.609 728.403 69.276 727.301C68.208 724.813 70.764 722.412 72.328 720.666C81.548 711.092 95.725 709.583 108.001 705.416C107.543 704.948 124.025 696.517 127.598 694.432C127.362 691.601 133.255 694.44 133.271 694.432C136.081 689.475 138.071 681.761 139.955 676.413C136.478 675.337 128.101 674.381 126.549 670.945C121.559 669.274 126.564 662.049 127.598 658.66C156.848 585.595 129.098 493.433 172.269 424.471C164.355 419.946 155.277 410.044 163.093 401.737C164.658 399.74 168.484 393.523 168.421 394.609C169.875 388.689 173.121 378.492 174.133 372.507C177.846 350.53 175.412 329.948 172.269 307.754C167.904 324.454 152.861 338.368 137.558 345.999C131.586 348.459 123.7 353.537 117.143 351.935C111.225 350.187 100.478 338.058 99.211 332.233C81.96 334.281 64.048 332.637 47.562 327.223C45.445 326.424 42.941 326.492 43.595 323.493C44.248 320.948 48.902 321.597 50.903 322.07C47.844 320.377 39.904 319.934 39.965 315.509C40.068 314.586 40.75 314.06 41.695 314.218Z" fill="white"/>
<path fill-rule="evenodd" clip-rule="evenodd" d="M231.209 150.264C230.947 150.37 230.768 150.768 230.662 151.367C230.37 151.458 230.119 151.673 230.044 151.998C229.823 152.952 230.081 153.947 230.281 154.898L230.304 155.008C230.492 155.928 230.723 156.844 231.005 157.741L231.047 157.968C231.733 161.677 233.057 165.203 234.612 164.604L234.253 165.257C228.152 176.311 210.727 205.992 197.122 201.761C189.199 198.59 189.312 188.284 189.891 181.112C195.774 184.714 196.875 157.137 195.669 154.089C194.708 153.384 194.245 159.728 193.888 160.603C193.109 164.082 192.153 167.517 191.255 170.968C189.359 171.343 187.565 172.098 185.978 173.18C185.903 173.223 185.825 173.263 185.751 173.308C184.799 173.886 184.056 174.624 183.394 175.441C182.646 176.276 182.006 177.192 181.401 178.132C180.073 179.639 178.806 181.202 177.498 182.726C176.877 183.449 176.241 184.149 175.591 184.833L175.09 185.253C175.006 185.323 174.922 185.392 174.838 185.461C159.807 194.831 149.401 208.85 149.372 227.111C149.328 238.519 147.685 249.913 144.559 260.885C142.054 271.605 133.961 282.563 138.336 293.758C133.396 292.968 132.937 299.31 129.848 301.706L128.877 301.968C124.537 303.134 120.557 304.107 116.117 304.784C112.024 305.274 107.293 304.735 103.448 306.579C102.137 307.508 102.606 309.183 102.504 310.566C92.799 306.602 84.082 301.126 75.039 295.974L74.737 295.866C71.389 294.68 65.419 292.897 62.669 295.502C61.06 297.391 62.684 299.078 64.114 300.344C66.805 302.725 69.659 304.909 72.416 307.211C64.987 307.83 57.536 307.336 50.189 306.133L49.789 306.066C47.989 305.774 45.866 305.074 44.081 305.737C38.291 308.963 44.99 312.73 48.099 314.614C45.73 314.417 43.366 314.123 40.993 313.717C40.049 313.556 39.367 314.093 39.263 315.032C39.203 319.54 45.149 319.783 48.207 321.507L47.962 321.449C45.963 320.987 43.088 320.581 42.462 323.069C41.807 326.123 45.931 327.358 48.047 328.171C64.533 333.686 82.444 335.36 99.695 333.275C100.961 339.208 111.709 351.562 117.626 353.342C124.183 354.974 132.069 349.802 138.041 347.296C153.343 339.524 167.522 326.703 171.886 309.692C175.554 336.068 174.071 362.658 168.565 388.609C167.674 390.632 166.734 392.624 165.676 394.565C165.356 394.616 165.085 394.829 165.023 395.261C164.99 395.497 164.943 395.727 164.889 395.954C163.835 397.741 162.681 399.458 161.609 401.235C161.387 401.602 161.168 401.983 160.968 402.374C153.832 410.778 162.53 421.608 170.31 426.138C127.14 496.382 155.022 584.903 125.774 659.327L125.709 659.539C124.599 663.078 121.217 670.364 126.108 672.032C127.66 675.532 135.483 675.946 138.96 677.042C137.076 682.489 134.982 687.877 132.172 692.926L132.121 692.949C131.002 692.127 128.603 691.278 127.611 692.174C127.37 692.204 127.129 692.272 126.895 692.388C125.36 693.15 124.125 694.606 122.657 695.523C121.863 696.018 121.038 696.469 120.188 696.862C119.397 697.228 118.556 697.469 117.911 698.073C117.707 698.263 117.655 698.505 117.705 698.728C117.196 698.992 116.687 699.257 116.179 699.523L115.903 699.351C111.417 696.56 107.81 695.048 114.336 700.409C111.997 701.489 109.599 702.433 107.186 703.318C105.353 702.437 103.396 701.795 101.379 701.707C101.016 702.155 103.789 703.885 104.246 704.362C91.971 708.607 78.47 711.931 69.25 721.683L69.148 721.799C67.578 723.566 65.154 725.962 66.198 728.441C63.531 729.564 62.22 733.247 62.985 736.164C66.832 748.943 125.811 743.9 139.058 744.234C149.533 742.899 177.927 745.087 183.753 737.125C185.714 734.919 185.259 730.629 182.469 729.468C184.405 727.982 182.285 722.413 182.281 719.913L182.236 719.624C181.94 717.757 180.654 710.449 179.32 705.343C179.293 704.941 179.239 704.529 179.175 704.113L179.133 703.85C178.868 702.222 178.46 700.567 177.408 699.258C176.651 698.318 175.604 697.738 174.467 697.528C174.162 695.584 173.912 693.635 173.697 691.683C173.546 689.388 173.489 687.089 173.514 684.789C173.528 683.627 173.559 682.467 173.615 681.307C173.657 680.453 173.608 679.439 173.825 678.566C173.97 678.714 174.176 678.793 174.406 678.714C174.896 678.547 175.347 678.238 175.797 677.985C175.814 677.975 175.828 677.964 175.842 677.953C178.244 679.511 179.982 672.846 180.917 671.037C202.44 609.382 185.446 538.426 220.337 480.606C225.153 490.93 229.293 500.4 233.929 510.795C248.408 543.259 266.283 600.443 278.27 634.817C281.532 641.844 285.365 648.635 289.922 654.91C291.379 656.559 292.356 658.986 294.465 659.873L294.65 659.901C295.213 660.951 295.994 661.836 297.156 661.806C297.441 661.799 297.731 661.767 298.025 661.716C299.055 668.869 300.35 676.067 302.071 683.106L301.839 683.009C300.712 682.544 299.527 682.148 298.371 682.251C295.565 682.961 296.604 685.411 298.822 686.219C296.061 687.076 294.192 689.492 292.142 691.503C290.409 690.57 288.467 690.087 286.392 690.29C286.074 690.321 285.832 690.46 285.663 690.651C285.544 690.651 285.429 690.658 285.319 690.676L285.545 690.812C285.176 691.431 285.439 692.374 286.392 692.379C287.139 692.383 287.859 692.451 288.555 692.579C289.039 692.861 289.519 693.147 289.994 693.444C288.394 694.855 286.69 696.157 284.936 697.347C284.01 696.874 283.03 696.478 282.011 696.16C280.696 695.749 280.121 697.838 281.443 698.217C281.723 698.297 282.001 698.386 282.277 698.482L282.548 698.646C282.611 698.684 282.677 698.723 282.746 698.763C270.16 707.702 248.886 706.569 243.13 723.306C242.94 723.938 243.038 724.483 243.306 724.912C242.058 726.054 241.483 728.108 241.764 729.684L241.74 729.817C241.526 731.092 241.834 732.212 243.205 732.503C252.359 733.354 261.489 733.895 270.682 734.062L271.424 734.069C284.595 734.157 348.658 733.679 351.548 725.232C352.319 723.668 352.556 721.241 351.428 719.847C351.298 719.096 351.04 718.413 350.582 717.878C352.437 716.007 351.525 711.288 351.752 708.912C351.344 700.978 349.733 692.471 344.878 685.979C344.798 685.876 344.702 685.813 344.603 685.782C343.755 684.932 342.641 684.394 341.367 684.321C341.328 684.223 341.287 684.124 341.249 684.025C340.258 681.693 339.318 679.317 338.383 676.931C337.69 674.219 336.966 671.515 336.242 668.825C335.518 666.137 334.809 663.446 334.116 660.751C333.564 658.602 333.09 656.18 332.134 654.127C332.16 654.039 332.185 653.952 332.214 653.864L333.208 653.462C339.718 650.819 350.034 646.361 347.767 643.417C323.615 593.292 299.973 521.932 277.809 469.967C277.462 468.949 277.096 467.936 276.694 466.932C275.715 464.489 274.724 462.05 273.718 459.617L273.113 458.158L263.457 434.953C262.446 432.524 261.307 430.108 260.51 427.599C259.743 425.181 259.536 422.776 260.995 420.576C262.299 418.608 264.138 416.978 265.609 415.129C266.721 413.731 267.806 412.237 268.778 410.668C269.66 409.506 270.398 408.175 271.056 407.103C272.111 405.386 273.452 403.484 274.217 401.499C275.204 400.877 276.193 400.259 277.186 399.647C278.901 398.687 280.587 397.682 282.229 396.595C284.303 395.363 286.39 394.153 288.494 392.97C289.253 392.594 290.013 392.219 290.773 391.845C293.052 392.043 299.348 389.237 301.493 387.339C301.738 387.29 301.982 387.234 302.224 387.173C302.321 388.386 302.718 389.483 303.642 390.297C309.788 393.343 317.62 379.549 319.779 374.946C324.069 379.132 313.833 399.837 310.526 404.07L310.35 404.332C309.466 405.656 308.538 407.142 307.284 408.12L307.157 408.216C306.297 408.852 306.138 409.844 306.839 410.679C312.795 416.049 319.047 404.257 322.309 400.373C335.738 380.63 344.319 356.606 343.943 332.588C350.052 330.547 358.509 329.549 358.199 321.271C358.511 315.022 359.643 308.84 359.863 302.587C359.926 301.149 355.451 301.862 354.441 302.014C355.928 287.645 353.68 273.057 349.671 259.248C339.144 223.913 295.797 160.227 253.132 157.928C253.169 157.858 253.152 157.765 253.056 157.74C251.125 157.239 248.991 157.319 247.006 157.382C244.941 157.447 242.841 157.462 240.787 157.695C238.658 157.936 236.403 158.718 234.972 160.264L234.477 159.371C233.902 158.329 233.348 157.276 232.929 156.126C232.717 155.545 232.551 154.942 232.399 154.333C232.228 153.465 232.185 152.561 231.774 151.772C231.763 151.752 231.749 151.735 231.737 151.715C231.589 151.218 231.42 150.732 231.209 150.264ZM178.845 729.438C179.455 730.057 180.512 730.326 181.448 730.031C184.559 738.858 167.679 738.304 162.262 738.801C156.485 739.416 51.254 744.882 69.05 731.938C89.929 739.885 159.761 740.762 178.845 729.438ZM127.597 694.433C129.002 695.879 131.12 696.523 132.627 697.903C136.887 701.502 140.314 706.564 146.201 707.518C153.936 708.96 160.908 705.148 167.827 702.129C168.688 702.087 169.587 701.724 170.47 701.455C170.501 701.519 170.532 701.583 170.568 701.642C170.611 701.625 170.657 701.611 170.708 701.603C170.785 701.59 170.858 701.582 170.933 701.571C171.111 701.429 171.298 701.31 171.492 701.209C171.609 701.191 171.725 701.177 171.841 701.17C173.267 701.083 174.815 701.414 175.73 702.594C175.808 702.695 175.879 702.801 175.948 702.909C176.391 704.478 176.448 706.376 176.234 707.704C176.164 708.138 176.345 708.564 176.652 708.81C176.925 715.378 177.666 721.974 178.183 728.454C175.595 729.383 172.91 730.09 170.222 730.537C151.678 732.814 132.935 733.872 114.247 733.299C103.123 732.898 92.014 731.905 81.005 730.255C77.446 729.92 73.804 728.546 70.247 729.101C70.096 728.815 69.859 728.571 69.531 728.404C78.647 715.939 94.228 712.569 107.812 707.104C110.055 708.536 111.437 711.519 113.936 712.407C114.906 712.552 116.255 711.981 116.112 710.752C115.709 708.236 112.988 707.089 111.155 705.628C113.121 704.711 115.051 703.714 116.932 702.606C118.781 704.27 120.969 705.535 122.7 707.31C121.716 709.709 125.817 709.501 125.863 706.948C125.579 704.124 121.099 702.929 119.097 701.282C122.223 699.382 125.015 696.986 127.597 694.433ZM347.834 719.113C347.943 719.328 348.121 719.523 348.384 719.675C348.84 719.938 348.621 721.331 348.598 721.8L348.597 721.835C348.572 722.677 348.519 723.518 348.446 724.357C347.677 725.05 346.693 725.577 345.6 725.894C312.307 731.198 278.376 731.629 244.762 729.703C244.917 728.811 245.57 728.077 246.148 727.332C267.398 729.136 289.159 727.249 310.445 725.491C322.889 723.858 335.927 723.182 347.834 719.113ZM299.364 686.469C304.851 688.355 309.957 690.972 314.82 694.107C316.628 695.281 318.352 696.627 320.43 697.3C327.624 699.462 338.409 689.077 338.582 688.961C341.08 687.282 343.729 688.847 345.088 691.175C345.213 691.39 347.297 703.295 347.234 709.127C347.608 711.109 346.61 714.349 347.141 716.511C346.724 717.013 346.129 717.248 345.728 717.773C345.583 717.963 345.624 718.178 345.75 718.34C326.324 719.936 307.011 722.965 287.493 723.604C274.135 724.31 260.751 724.148 247.391 723.986C250.43 715.074 260.784 712.721 268.692 709.787C274.668 707.644 280.169 704.45 285.009 700.345C287.109 701.816 288.764 703.878 290.251 705.95C290.927 706.792 292.314 707.428 293.038 706.261C293.783 705.05 292.328 703.52 290.532 702.18C289.587 700.783 288.396 699.593 287.024 698.612C288.541 697.262 290.001 695.855 291.369 694.36C294.207 696.28 296.291 699.041 298.332 701.721C299.313 702.789 301.147 701.376 300.343 700.172C299.698 699.342 298.972 698.576 298.195 697.859C297.024 695.652 295.337 693.615 293.291 692.204L293.447 692.006C295.156 689.816 296.634 687.189 299.364 686.469ZM347.708 717.714C347.755 717.772 347.804 717.828 347.857 717.882C347.81 717.978 347.774 718.078 347.747 718.181L347.249 718.22C347.422 718.077 347.575 717.902 347.708 717.714ZM140.784 677.403C150.962 679.321 161.476 680.059 171.748 678.475C170.559 685.099 169.814 691.765 170.204 698.493C154.844 702.92 148.462 710.303 135.683 695.549C136.3 694.61 136.656 693.457 137.071 692.346C138.837 687.522 140.297 682.532 140.784 677.403ZM327.719 655.674C327.865 655.995 328.126 656.259 328.503 656.375C328.638 656.969 328.777 657.561 328.925 658.153C329.174 661.205 330.328 664.231 331.521 667.047C331.603 667.241 331.684 667.435 331.765 667.63C332.552 669.972 333.377 672.309 334.191 674.649C334.807 677.079 335.35 679.53 335.918 681.973C336.027 683.629 336.263 685.272 336.625 686.896C336.642 686.972 336.665 687.041 336.689 687.108C336.121 687.361 335.572 687.655 335.054 687.951C319.471 699.641 322.162 691.825 307.2 685.281C307.286 684.652 306.971 684.084 306.713 683.434L306.68 683.348C306.665 683.307 306.649 683.266 306.634 683.225C306.658 682.977 306.644 682.71 306.578 682.427C305.063 676.238 302.952 670.157 300.977 664.101C300.661 663.189 300.295 662.298 299.921 661.409C309.408 661.287 318.792 658.765 327.719 655.674ZM268.887 404.891C182.815 512.053 201.671 524.69 183.138 648.234C181.338 657.851 177.679 666.979 175.258 676.413L174.924 676.381C174.593 676.349 174.279 676.329 174.045 676.404L174.035 676.408L173.081 676.396C161.945 676.243 150.761 675.662 139.885 673.127C136.038 672.452 132.29 670.683 128.441 670.313C128.425 669.814 128.188 669.348 127.866 669.078C157.553 598.969 136.869 518.88 162.625 447.579C165.069 440.444 167.98 433.467 170.991 426.554C204.095 446.315 241.091 423.936 268.887 404.891ZM331.824 658.681C332.008 659.49 332.207 660.288 332.39 661.058L332.658 662.208C332.276 661.046 331.975 659.867 331.824 658.681ZM257.336 423.869C257.279 425.64 257.707 427.427 258.287 429.093C260.146 434.432 262.526 439.634 264.657 444.87C266.104 448.423 267.537 451.982 268.986 455.535C290.442 512.767 316.78 589.481 342.766 643.718C332.975 649.376 322.24 653.379 311.134 655.548C308.555 656.409 301.18 656.447 298.57 657.812L297.976 657.23C297.873 654.788 295.101 653.048 293.991 650.906C288.981 643.859 284.987 636.153 281.364 628.322L280.772 626.603C271.141 598.6 258.571 560.05 245.329 527.462L244.919 526.456C239.431 513.016 235.824 500.626 229.201 490.459C228.84 489.912 228.474 489.364 228.107 488.816C227.836 488.273 227.563 487.73 227.285 487.189C226.097 484.878 224.817 482.616 223.608 480.316C223.093 479.335 222.582 478.229 222.312 477.096C232.833 458.643 245.37 441.395 257.336 423.869ZM241.579 159.438C244.881 160.24 248.264 160.567 251.585 161.232C274.471 163.957 292.018 180.161 307.133 196.249C335.764 226.273 352.422 263.215 351.193 304.968C340.968 306.828 330.849 309.55 320.432 310.145C321.946 307.855 319.41 304.991 318.537 302.799C303.469 273.735 291.835 241.65 282.387 211.051L282.644 212.386C285.611 227.743 289.066 243.036 294.34 257.788C292.813 256.288 267.715 236.36 269.677 242.95C277.345 248.933 286.005 253.674 294.04 259.165C284.487 291.024 298.297 323.305 300.921 355.177C301.581 362.264 301.523 369.4 302.41 376.46C302.747 377.258 302.392 378.882 302.888 379.642C302.52 381.516 301.748 383.223 300.153 384.686C299.482 385.301 298.749 385.835 297.978 386.31C296.055 386.6 294.123 387.34 292.556 388.025C289.071 389.549 286.003 391.795 282.887 393.942L282.804 393.998C277.78 396.575 272.762 399.502 267.725 402.555L267.5 402.673C265.627 403.655 263.711 404.54 262.079 405.901C262.004 405.964 261.955 406.035 261.922 406.109L258.863 407.995C234.357 423.094 209.09 438.025 180.358 427.248C172.286 424.002 160.55 417.425 162.058 407.255C162.355 406.28 162.807 405.363 163.318 404.472C163.46 404.28 163.606 404.092 163.753 403.906C164.866 402.502 166.112 401.213 167.079 399.695C167.472 399.078 167.825 398.443 168.133 397.788C168.351 397.722 168.545 397.569 168.667 397.303C170.05 394.292 171.405 391.276 172.666 388.211C187.961 334.979 169.396 277.785 164.144 224.094C163.78 221.02 163.244 217.914 163.246 214.817C163.246 214.672 163.035 214.677 163.023 214.817C161.171 228.521 162.576 242.352 164.337 255.993C166.592 273.059 169.555 290.054 171.59 307.15C166.179 324.383 151.025 336.836 135.112 344.303C132.405 345.587 129.637 346.731 126.814 347.739L126.625 347.804C123.524 348.888 120.023 350.563 117.031 348.367C111.289 344.477 107.235 338.541 103.514 332.824C105.02 332.661 106.527 332.52 108.036 332.416C111.739 336.646 116.278 340.236 121.067 343.17C123.019 344.287 125.236 343.815 126.138 341.629C126.99 339.566 125.947 337.157 125.192 335.168L125.083 334.878C121.261 324.588 114.624 315.158 105.663 308.715C112.424 307.365 119.446 307.406 125.931 304.739C125.578 305.11 126.041 305.525 126.266 305.84C126.186 306.45 126.63 306.896 127.176 307.059C132.467 313.961 136.478 322.135 137.315 330.889C137.092 333.87 139.765 337.314 142.338 334.183C144.351 325.469 136.434 311.85 129.472 306.473C136.453 301.689 134.418 294.786 138.801 294.754C139.934 296.924 141.412 299.002 143.274 300.614C144.116 301.297 145.139 301.813 146.042 302.419C146.993 303.057 147.982 301.654 147.229 300.883L147.031 300.645C144.172 297.232 140.778 293.876 140.187 289.258C139.334 283.571 141.894 277.809 143.857 272.614C147.619 262.655 150.115 252.292 151.33 241.718C152.708 232.243 151.033 222.415 154.282 213.247C154.928 210.693 155.856 208.368 156.995 206.21C157.022 206.187 157.049 206.164 157.073 206.136C158.425 204.575 159.505 202.839 160.765 201.204C162.082 199.494 163.511 197.867 165.024 196.327C167.553 193.754 170.346 191.607 173.256 189.54C173.31 189.521 173.365 189.496 173.419 189.463C173.965 189.142 174.488 188.751 174.994 188.322L175.043 188.288C176.735 187.114 178.463 185.839 179.784 184.245C181.08 182.679 182.003 180.854 183.062 179.129C184.509 177.367 185.889 175.479 187.634 174.01C188.621 173.448 189.649 172.917 190.53 172.214C190.674 172.153 190.821 172.096 190.97 172.042C190.594 173.571 190.026 174.977 189.514 176.529C188.773 176.217 187.758 176.563 187.633 177.703L187.587 178.129C186.843 185.112 186.466 193.562 190.58 199.608C199.638 212.719 213.168 201.525 220.011 192.306C226.152 184.953 231.314 176.774 235.127 167.984L235.19 167.868C235.9 166.523 237.438 162.421 237.873 160.45C238.972 159.873 240.31 159.593 241.579 159.438ZM270.579 403.806C270.607 403.841 270.638 403.87 270.672 403.896C269.388 405.718 268.164 407.602 266.902 409.43C267.936 407.742 268.909 406.042 269.77 404.322C270.039 404.149 270.31 403.978 270.579 403.806ZM342.48 333.042C337.57 359.649 330.554 387.644 311.003 407.538C317.087 398.983 321.819 388.996 323.196 378.535C323.253 375.727 322.229 372.762 319.117 372.346C318.585 372.275 318.182 372.75 317.992 373.172L317.974 373.214C316.75 376.131 315.158 378.905 313.273 381.447L313.088 381.688C311.666 383.524 305.628 391.008 304.786 387.431C305.403 369.346 324.127 361.89 327.193 336.983C332.44 336.428 337.419 334.439 342.48 333.042ZM302.227 385.82C302.207 386.104 302.197 386.385 302.201 386.662C301.923 386.547 301.637 386.455 301.345 386.384C301.642 386.201 301.935 386.012 302.227 385.82ZM302.505 383.871C302.402 384.391 302.316 384.915 302.262 385.434C301.728 385.604 301.199 385.79 300.673 385.983C300.992 385.697 301.295 385.394 301.58 385.072C301.911 384.697 302.222 384.294 302.505 383.871ZM295.269 260.426C299.105 271.11 303.4 281.629 308.196 291.919C311.417 297.941 313.565 304.957 318.021 310.183C318.065 310.225 318.109 310.263 318.153 310.299L318.079 310.302C316.752 310.361 309.537 311.07 313.24 312.699C314.678 318.354 316.562 323.881 318.137 329.499L318.173 329.662C318.749 332.38 319.478 337.854 323.345 336.027C323.765 336.347 324.269 336.572 324.81 336.723C323.072 351.951 313.423 361.864 305.795 374.297C307.5 367.735 307.001 360.883 306.408 354.184L306.261 352.535C303.109 321.817 291.543 291.611 295.269 260.426ZM263.236 358.069C269.453 350.334 300.03 273.754 278.422 320.149C270.741 336.3 264.42 353.591 251.749 366.678C250.873 367.618 252.027 369.269 253.166 368.51C257.256 365.785 260.566 362.169 263.236 358.069ZM285.367 265.511C285.392 265.386 285.233 265.318 285.163 265.424C276.855 281.795 270.923 299.387 261.536 315.262C255.869 325.092 249.07 334.255 241.283 342.517C240.698 343.138 241.578 343.995 242.212 343.444C264.439 322.978 275.246 293.227 285.367 265.511ZM121.544 332.907L121.558 332.91L121.762 333.437C121.832 333.615 121.902 333.795 121.973 333.976C121.939 333.961 121.905 333.947 121.871 333.933C121.798 333.859 121.725 333.785 121.652 333.707C121.669 333.438 121.635 333.168 121.544 332.907ZM354.352 302.656C355.481 303.098 356.867 303.182 358.115 303.29C356.718 309.857 355.512 316.474 354.248 323.059C353.664 325.08 352.29 325.79 350.388 326.431L348.859 326.919C341.723 329.201 334.547 331.545 327.19 332.944C326.672 332.608 325.937 332.624 325.594 333.163C325.236 333.196 324.869 333.216 324.506 333.25C322.54 326.005 319.176 318.984 314.674 312.973C327.257 313.378 339.93 310.066 351.9 306.363C352.385 306.598 353.023 306.451 353.227 305.896L353.412 305.843C355.421 305.248 358.086 303.786 353.863 304.529C354.118 303.935 354.259 303.297 354.352 302.656ZM65.031 297.295C73.371 295.919 79.745 302.663 86.863 305.759C91.125 307.583 102.482 313.242 106.611 311.36C112.271 316.798 117.05 323.151 120.392 330.28C119.481 330.226 118.57 330.186 117.659 330.157C116.009 329.628 114.247 329.601 112.533 330.11C95.37 330.298 78.195 333.627 61.1 329.408L60.707 329.335C57.195 328.67 45.206 326.141 44.524 323.663C44.703 322.584 47.927 323.723 48.546 323.846C53.473 324.814 58.479 325.276 63.472 325.761C64.86 325.895 64.843 323.74 63.472 323.603C57.462 323.006 51.768 320.754 46.254 318.412C45.668 318.153 44.115 317.615 43.041 316.918C48.136 317.783 53.385 317.933 58.541 317.749C60.315 317.52 60.441 314.83 58.541 314.883C55.06 315.267 51.736 313.552 48.895 311.742L48.276 311.342C43.541 308.261 43.871 308.127 49.856 309.273C58.651 310.871 67.551 310.811 76.432 310.202C77.7 310.18 78.575 308.478 77.526 307.566C73.437 304.042 69.053 300.899 65.031 297.295ZM105.345 310.13L105.442 310.221C105.646 310.417 105.813 310.59 105.907 310.682L105.945 310.718C106.07 310.836 106.192 310.958 106.316 311.077C105.771 311.26 105.17 311.27 104.549 311.174C104.924 310.94 105.202 310.559 105.345 310.13ZM262.036 281.946L262.056 281.921L262.009 281.971C256.644 287.765 251.206 297.161 246.762 304.571C246.176 310.644 259.317 285.446 262.036 281.946ZM127.031 304.337C126.979 304.402 126.929 304.468 126.88 304.536L126.809 304.638L126.693 304.567C126.651 304.542 126.606 304.526 126.56 304.514C126.718 304.457 126.874 304.396 127.031 304.337ZM151.578 284.558C146.751 285.315 156.622 291.3 157.925 292.158C158.759 292.474 166.692 299.01 166.21 296.888C162.497 292.13 157.373 286.585 151.578 284.558ZM340.412 272.015C338.627 269.145 328.91 272.923 325.839 273.376C324.112 273.83 322.404 274.369 320.659 274.751C319.296 275.244 312.937 274.766 315.271 277.456C317.706 278.762 320.885 277.753 323.378 277.059C328.34 275.707 333.318 274.129 338.399 273.378C338.551 273.302 338.56 273.353 338.427 273.533C337.334 275.956 335.036 278.23 332.447 279.011C332.268 279.063 332.343 279.336 332.524 279.29L332.698 279.253C335.61 278.605 341.9 275.529 340.412 272.015Z" fill="black"/>
<path fill-rule="evenodd" clip-rule="evenodd" d="M166.646 109.781C166.74 104.471 166.845 99.0555 167.636 93.7977C168.409 88.6574 170.536 84.0111 174.192 80.2784C181.956 72.3497 193.211 70.4131 203.687 68.6384L221.598 65.6039C227.062 64.6784 232.892 63.199 238.413 64.5116C241.133 65.1584 243.444 66.661 245.555 68.4388C247.59 70.1524 249.779 71.9926 251.158 74.2979C252.539 76.6067 253.014 79.3055 253.463 81.9166C253.97 84.8605 254.364 87.8274 254.643 90.8014C255.203 96.7599 255.28 102.763 254.873 108.734C254.677 111.63 254.363 114.518 253.963 117.393C253.765 118.818 253.541 120.24 253.288 121.657C253.213 122.075 253.156 122.538 253.08 123.005C253.645 124.609 253.966 126.27 253.94 127.923C253.864 132.794 249.744 135.861 245.591 137.507C243.183 138.462 240.665 139.111 238.299 140.177C235.81 141.299 234.116 143.118 232.414 145.192C229.168 149.149 225.505 152.705 221.323 155.672C212.455 161.962 201.224 164.937 190.465 162.679C187.883 162.137 185.279 161.296 182.959 160.028C180.509 158.69 178.666 156.75 177.119 154.457C174.247 150.2 172.187 145.407 170.629 140.529C169.039 135.553 167.911 130.568 167.295 125.38C166.682 120.208 166.553 114.984 166.646 109.781Z" fill="white"/>
<path fill-rule="evenodd" clip-rule="evenodd" d="M223.803 47.1089C216.391 46.0914 206.161 49.3984 202.469 56.0664C184.846 51.9202 162.619 51.7844 148.094 65.5871C132.937 81.9603 151.974 103.548 164.598 108.416C163.679 112.873 165.112 141.429 175.251 154.167C183.298 164.959 202.038 169.94 210.709 157.049L210.777 156.943C211.706 155.454 210.906 155.502 209.952 156.609C201.461 164.061 189.916 164.189 181.019 156.324C164.346 141.95 166.065 106.704 173.999 86.3137C196.591 83.8374 220.781 90.6711 236.385 107.643L235.33 113.983C235.15 115.063 234.946 116.142 234.79 117.226C234.69 117.92 234.679 118.611 235.161 119.173C236.753 121.029 239.436 118.24 241.643 117.131C242.295 117.039 242.948 117.004 243.588 117.049C254.194 118.412 252.104 138.945 240.448 135.346C239.468 134.737 238.627 134.923 238.247 135.806C235.469 138.346 233.637 142.876 229.021 147.239C227.392 148.875 225.91 150.244 224.078 151.557C223.002 152.643 219.755 153.75 220.784 155.609C222.73 159.837 234.209 146.554 236.238 142.881C242.596 145.387 249.642 144.535 256.232 143.923C290.993 142.119 286.352 105.551 257.859 82.4637C252.496 78.5231 246.578 75.3086 240.427 72.8349C239.587 72.4972 239.954 71.1211 240.806 71.4636C244.876 73.1006 248.844 75.049 252.626 77.3042L252.632 75.9559C252.637 73.6851 252.602 71.3209 252.206 69.2461C252.009 67.8084 251.677 66.2728 251.165 65.1176C250.533 61.576 240.626 49.4193 223.803 47.1089ZM244.052 121.763C243.516 121.254 242.514 121.861 242.036 121.846C240.814 122.013 239.653 122.528 238.748 123.163C238.15 123.497 237.731 123.811 237.381 124.1L237.371 124.097C237.374 124.097 237.377 124.1 237.38 124.101L237.347 124.123C236.838 124.484 234.972 126.52 236.151 125.972C236.238 125.858 236.328 125.749 236.419 125.642C236.429 125.656 236.442 125.671 236.459 125.685L236.392 125.783C235.39 127.287 237.12 125.702 237.386 125.281C237.399 125.292 237.413 125.298 237.427 125.306L237.081 125.727C237.032 125.787 236.994 125.834 236.963 125.875L236.889 125.945C235.731 127.081 235.695 128.104 237.041 126.424C236.988 126.503 236.945 126.587 236.939 126.661L236.859 126.763C235.803 128.122 236.662 127.639 237.187 127.059L237.231 127.009L237.222 127.023C236.734 127.774 237.703 127.247 237.874 126.845L237.882 126.827C238.068 126.675 238.183 126.504 238.222 126.461L238.23 126.454C239.138 125.525 240.456 124.739 241.574 124.381C241.737 124.351 241.901 124.326 242.066 124.308C242.739 124.159 243.419 124.056 244.107 124.001C244.191 123.991 244.276 123.929 244.34 123.849C245.379 123.814 245.058 123.389 244.627 123.31L244.619 123.309L244.705 123.302C245.372 123.237 245.827 122.998 245.153 122.851L245.068 122.834C245.078 122.818 245.087 122.802 245.096 122.785C245.674 122.722 245.297 122.162 244.976 122.297C245.111 121.857 244.495 122.077 244.418 122.012C244.359 121.947 244.286 121.889 244.244 121.886C244.058 121.755 244.148 121.767 244.052 121.763ZM240.518 114.637L240.653 114.716C240.763 114.78 240.875 114.822 240.988 114.847C240.829 114.915 240.671 114.988 240.515 115.066C240.517 114.971 240.519 114.875 240.519 114.78L240.518 114.637Z" fill="black"/>
<path fill-rule="evenodd" clip-rule="evenodd" d="M187.674 143.666C189.423 144.172 191.301 144.217 193.084 143.695C194.702 143.221 196.363 142.178 197.553 140.799C198.611 139.573 199.296 138.084 199.269 136.494C199.266 136.313 199.201 136.161 199.101 136.044C198.993 135.917 198.842 135.83 198.681 135.792C198.515 135.754 198.34 135.767 198.191 135.835C198.056 135.896 197.94 136 197.868 136.152C197.685 136.392 197.503 136.628 197.32 136.858C195.849 138.671 194.424 140.026 192.212 140.511C191.012 140.775 189.813 140.658 188.714 140.256C187.536 139.825 186.472 139.068 185.638 138.099C185.261 137.661 184.816 137.483 184.381 137.48C183.888 137.476 183.401 137.705 183.034 138.07C182.673 138.429 182.431 138.918 182.409 139.428C182.39 139.876 182.537 140.344 182.926 140.762C184.21 142.138 185.874 143.146 187.674 143.666ZM187.727 120.962C185.934 122.05 183.201 124.587 185.131 127.284C187.402 129.662 190.671 126.935 192.282 125.702C193.776 124.747 195.455 127.204 194.069 128.32C182.426 136.923 177.701 121.247 186.82 119.683C187.824 119.511 188.197 120.626 187.727 120.962ZM204.503 116.175C205.08 115.807 205.758 115.681 206.509 116.022C207.096 116.289 208.126 117.177 208.843 118.345C209.334 119.144 209.681 120.082 209.609 121.058C209.592 121.285 209.676 121.452 209.808 121.576C209.913 121.673 210.064 121.745 210.242 121.767C210.392 121.786 210.561 121.769 210.698 121.726C210.959 121.645 211.097 121.476 211.149 121.339C211.651 120.008 211.434 118.524 210.872 117.185C210.113 115.378 208.734 113.864 207.831 113.376C206.286 112.54 204.463 112.502 202.915 113.353C201.597 114.078 200.774 115.247 199.954 116.439C199.78 116.693 199.607 116.944 199.429 117.191C199.07 117.687 199.035 118.178 199.173 118.599C199.327 119.065 199.719 119.459 200.209 119.665C200.661 119.856 201.187 119.883 201.652 119.687C202.044 119.522 202.405 119.199 202.633 118.652C203.017 117.732 203.657 116.716 204.503 116.175ZM175.23 118.224C175.624 118.429 175.933 118.491 176.371 118.36C176.613 118.288 176.853 118.149 177.04 117.962C177.226 117.776 177.36 117.546 177.412 117.29C177.54 116.659 177.886 116.069 178.379 115.684C178.8 115.354 179.332 115.18 179.922 115.278C180.559 115.384 181.165 115.792 181.583 116.272C181.722 116.433 181.832 116.616 181.942 116.797C182.148 117.136 182.348 117.451 182.632 117.7C182.739 117.795 182.901 117.861 183.058 117.861C183.122 117.861 183.187 117.85 183.249 117.831C183.882 117.196 184.004 116.715 183.984 116.237C183.962 115.737 183.764 115.23 183.445 114.757C182.695 113.647 181.271 112.737 180.31 112.531C178.994 112.249 177.688 112.588 176.64 113.321C175.562 114.076 174.763 115.247 174.514 116.568C174.454 116.886 174.48 117.229 174.601 117.527C174.72 117.817 174.926 118.066 175.23 118.224ZM201.602 104.344C202.391 105.112 203.326 105.231 204.271 105.337C204.797 105.396 205.216 105.444 205.629 105.537C206.763 105.793 207.884 106.177 208.907 106.732C209.977 107.311 211.142 108.01 211.98 108.905C212.18 109.118 212.368 109.342 212.556 109.566C212.728 109.77 212.893 109.967 213.067 110.156C213.267 110.374 213.457 110.602 213.646 110.83C213.763 111.022 213.786 111.069 213.81 111.119C213.845 111.192 213.886 111.275 213.933 111.364C213.998 111.485 214.073 111.618 214.152 111.739C214.284 111.96 214.354 112.02 214.415 112.047C214.516 112.092 214.612 112.115 214.705 112.103C214.793 112.091 214.875 112.049 214.956 111.981C215.362 111.639 215.481 111.078 215.469 110.483C215.45 109.579 215.116 108.578 214.808 107.963C214.093 106.534 213.1 105.049 211.906 103.982C210.544 102.765 209.053 101.843 207.341 101.208C206.278 100.813 205.046 100.45 203.887 100.496C203.053 100.529 202.256 100.777 201.599 101.395C201.195 101.774 201.001 102.314 201.001 102.853C201.001 103.403 201.202 103.956 201.602 104.344ZM173.623 111.375C173.674 111.457 173.743 111.514 173.82 111.548C173.902 111.584 173.992 111.594 174.079 111.579C174.165 111.565 174.248 111.526 174.313 111.466C174.375 111.409 174.423 111.333 174.444 111.24C174.968 108.942 175.986 107.232 178.159 106.129C179.228 105.587 180.457 105.242 181.62 104.968C181.959 104.888 182.316 104.836 182.676 104.784C183.803 104.619 184.939 104.431 185.674 103.522C186.117 102.974 186.303 102.273 186.198 101.632C186.099 101.029 185.745 100.476 185.103 100.144C183.504 99.3189 181.517 100.129 179.903 100.818C179.783 100.869 179.665 100.92 179.55 100.968C177.971 101.633 176.531 102.511 175.347 103.767C174.408 104.763 173.538 106.235 173.187 107.75C172.896 109.011 172.964 110.297 173.623 111.375Z" fill="black"/>
<path fill-rule="evenodd" clip-rule="evenodd" d="M208.885 145.333C206.962 140.837 202.766 137.533 197.934 136.325C194.386 135.441 190.662 135.469 187.045 135.82C185.15 136.003 183.118 136.153 181.332 136.855C179.807 137.455 178.564 138.589 177.63 139.92C176.517 141.498 175.761 143.303 175.229 145.154C175.154 145.417 175.083 145.682 175.017 145.949C175.248 147.345 175.738 148.533 177.034 149.411C178.299 150.269 179.808 150.619 181.312 150.744C181.46 150.673 181.602 150.6 181.733 150.526C184.077 149.187 185.727 146.022 188.685 146.45C191.325 146.833 193.063 150.148 194.633 152.092C199.673 152.678 204.709 151.167 208.81 148.291C209.018 147.307 209.031 146.314 208.885 145.333ZM171.592 141.923C171.995 140.793 172.503 139.7 173.105 138.67C175.094 135.263 178.149 132.548 181.776 130.997C190.354 127.331 201.454 129.915 208.382 135.927C210.748 137.982 213.141 141.002 213.865 144.251C214.081 144.293 214.285 144.406 214.453 144.564C219.458 141.419 224.613 138.393 228.646 134.033C231.575 130.866 233.612 127.118 234.86 122.998C234.962 122.659 235.51 122.709 235.493 123.084C235.488 123.172 235.484 123.259 235.479 123.347C235.531 123.186 235.778 123.269 235.797 123.425C236.468 128.429 237.308 133.735 236.534 138.765C236.072 141.766 234.706 143.963 232.88 146.336C230.923 148.879 228.708 151.245 226.443 153.513C225.005 154.953 223.504 156.614 221.744 157.67C219.697 158.896 217.375 159.829 215.191 160.775C212.969 161.741 210.713 162.633 208.415 163.407C203.821 164.958 199.073 166.031 194.241 166.501C190.373 166.876 185.952 167.284 182.245 165.832C179.404 164.719 177.11 162.707 175.291 160.287C173.311 157.651 171.745 154.648 170.88 151.482C169.98 148.193 171.402 142.453 171.592 141.923Z" fill="black"/>
</svg>
