<svg width="391" height="780" viewBox="0 0 391 780" fill="none" xmlns="http://www.w3.org/2000/svg">
<path fill-rule="evenodd" clip-rule="evenodd" d="M91.4165 271.171C85.0549 278.609 85.6173 280.678 89.0067 288.189C96.495 305.615 107.232 323.331 119.421 339.49C118.616 303.236 117.924 266.784 116.734 230.199C109.487 244.335 101.769 257.104 91.4165 271.171ZM90.2162 719.248C86.2119 718.861 58.0297 719.902 65.5719 711.687C63.2438 706.634 69.7479 702.371 73.7558 698.527C77.5057 694.95 81.2013 690.976 85.052 686.378C88.6378 682.115 92.6801 677.076 95.2935 671.196C95.872 670.274 96.4595 669.629 97.0414 669.276L97.3769 669.073L97.5859 668.741C99.7915 665.222 101.613 661.585 103.617 658C98.7152 656.23 94.2618 654.452 88.71 651.995C96.5438 605.872 108.285 560.936 115.876 514.678C120.497 474.424 122.977 433.791 133.551 394.147L134.903 394.251L135.657 391.653C134.547 391.625 132.297 391.55 131.183 391.506L131.444 392.835C126.403 392.252 121.464 390.816 116.564 389.598C114.063 389.256 111.556 387.468 112.456 384.488C112.745 380.164 113.64 375.947 114.061 371.624C112.466 370.536 110.821 369.293 109.245 368.02C105.078 369.984 100.042 376.328 95.4856 374.714C84.8373 360.424 75.9008 343.247 67.8138 329.524C48.2815 297.788 42.0821 277.95 62.2271 244.859C79.6439 217.138 98.4312 173.077 133.346 166.119C137.266 165.388 141.374 165.357 145.141 163.571C145.335 161.011 146.614 159.54 147.551 159.519C149.826 159.02 152.324 158.216 154.546 158.196C155.329 157.869 156.285 158.138 157.038 158.285C159.277 153.792 159.077 148.055 161.53 143.843C161.619 140.651 162.592 137.125 172.431 136.483C179.128 135.925 188.613 135.386 193.966 138.312C197.712 141.327 197.75 148.081 197.281 152.84C196.765 156.335 196.995 160.4 199.733 164.505C207.536 162.097 212.977 167.188 217.861 176.684C238.309 179.468 242.718 181.048 250.651 201.298C254.434 210.079 258.374 219.461 261.323 229.075C265.272 240.827 265.619 253.129 269.459 264.964C279.888 291.049 290.493 307.882 293.833 338.25C295.463 351.658 294.526 358.306 292.977 360.32C288.569 359.046 282.884 358.071 278.255 357.528L283.208 361.294C279.011 380.32 291.099 434.579 258.324 430.411C258.033 429.702 258.568 425.807 258.708 424.191C257.812 424.254 256.155 424.313 255.273 424.202C253.71 428.711 251.363 432.762 249.882 437.349C249.15 440.144 248.224 442.957 247.319 445.675C226.679 515.175 222.591 582.082 231.802 651.855L231.386 652.006L231.217 652.306L230.964 652.401C230.314 653.269 229.393 653.306 227.923 653.309C218.895 653.626 210.962 654.033 203.606 654.238C204.387 658.144 203.887 662.255 203.543 666.228C207.824 665.927 211.752 667.664 215.665 669.751C223.143 673.421 230.59 677.276 237.831 681.49C245.019 686.089 256.643 690.022 250.872 698.288L252.541 698.943C252.597 698.965 252.633 698.984 252.654 698.997C252.851 699.7 250.59 702.606 249.921 702.574C234.113 703.312 220.632 699.621 200.412 695.755C195.783 694.076 172.467 691.22 172.369 686.812C172.443 685.438 173.863 685.532 174.854 685.36C171.884 670.362 181.925 669.151 183.363 655.542C181.375 655.921 179.225 656.245 177.189 655.687C175.402 626.645 178.273 596.916 175.098 567.59L171.871 567.233C161.023 599.144 149.775 631.794 141.136 664.94C140.972 665.661 140.164 665.168 139.795 664.905C134.149 664.771 128.501 664.168 122.965 663.218C122.832 666.478 122.692 669.798 122.554 673.055L123.408 673.513C123.958 674.279 123.726 677.864 123.627 679.407C123.526 680.985 123.443 682.127 123.583 683.197C125.363 686.707 119.275 694.313 116.054 698.543C109.038 707.622 103.226 721.068 90.2162 719.248Z" fill="white"/>
<path fill-rule="evenodd" clip-rule="evenodd" d="M159.873 144.207C161.784 142.913 159.062 154.138 159.058 155.218L159.01 155.454C158.533 157.74 157.694 160.4 155.764 161.867C156.654 169.143 157.762 176.397 159.127 183.598L159.929 183.703C171.832 185.279 183.813 187.445 195.916 186.316C202.436 186.368 206.753 181.912 209.382 176.385C209.204 175.734 209.026 175.085 208.843 174.433C200.562 169.369 194.291 159.092 198.022 149.39C198.182 148.976 198.675 148.947 198.93 149.163C198.971 149.167 199.009 149.2 199.006 149.246L198.883 151.139C198.623 155.268 198.507 159.549 200.747 163.267C209.756 161.216 215.359 168.717 219.126 175.817L221.832 176.217C232.185 177.753 242.17 179.571 247.283 190.163L247.983 191.65C255.127 206.871 261.784 222.522 265.681 238.911C267.643 247.631 268.353 256.616 271.231 265.12C277.206 280.911 285.626 295.752 290.192 312.1C293.025 317.999 300.998 362.402 293.132 362.74C290.304 361.893 287.423 361.209 284.511 360.722C284.96 361.064 285.124 361.645 285.039 362.237C284.022 369.355 283.946 376.564 283.951 383.742C284.488 401.123 284.006 438.518 257.794 432.515C255.88 431.812 257.123 428.748 257.046 426.607C256.896 426.614 256.744 426.611 256.592 426.602C255.088 430.657 252.977 434.4 251.655 438.521C250.534 442.062 249.75 445.871 248.188 449.262C231.637 508.039 224.805 569.86 231.276 630.696C231.639 634.339 232.048 637.977 232.504 641.608C232.447 643.878 235.141 653.384 232.722 654.022C232.628 654.206 232.302 654.417 232.107 654.482C230.638 656.065 228.197 655.478 226.258 655.689C219.406 655.993 212.556 656.274 205.701 656.501C206.111 659.406 205.78 662.354 205.537 665.254C210.536 665.295 215.13 668.334 219.551 670.398C226.118 673.632 232.577 677.09 238.914 680.757C244.765 684.846 257.836 688.794 253.339 698.066C256.692 699.425 252.032 705.108 249.484 705.172C232.899 705.089 216.42 701.332 200.212 698.034C191.003 695.603 180.955 694.68 172.436 690.489C170.017 689.397 170.524 685.042 173.184 684.637C171.208 670.117 179.227 670.318 181.481 658.225C180.169 658.439 178.719 658.318 177.404 658.051C174.357 660.866 175.476 638.713 175.062 636.55C174.98 613.835 176.058 591.071 173.635 568.433L169.517 580.542C159.917 608.802 150.46 637.134 142.934 666.025C142.483 667.769 140.65 667.978 139.479 667.217C134.537 667.072 129.614 666.608 124.738 665.821C124.643 668.132 124.546 670.442 124.448 672.753C126.551 673.885 125.127 681.016 125.396 683.428C127.673 688.665 118.446 698.746 115.412 703.067C110.002 710.614 104.633 721.173 94.1712 721.525L93.8527 721.533C86.0447 721.723 78.166 721.267 70.4338 720.153L69.5993 720.017C67.3666 719.648 64.8672 719.125 63.5775 717.133C62.4898 715.455 62.6228 713.289 63.9433 712.007C62.1996 705.687 68.9868 701.86 72.7779 698.012C79.8598 691.187 86.2965 683.682 91.8625 675.576L92.1822 674.819C93.214 672.388 94.4467 669.689 96.3677 668.525C98.199 665.62 99.7638 662.562 101.419 659.559C96.902 657.902 92.4538 656.051 88.0555 654.103C87.1801 653.714 86.9018 652.577 87.0546 651.731L87.0657 651.674C95.6526 607.13 105.948 562.905 113.955 518.259C119.069 477.113 121.166 435.444 131.917 395.203C126.701 394.661 121.51 393.164 116.391 391.884C112.287 391.012 110.211 388.929 111.021 384.587C111.299 380.728 112.073 376.931 112.491 373.087C111.398 372.324 110.332 371.521 109.294 370.696C107.37 372.13 105.385 373.481 103.345 374.741C98.4607 378.255 94.6903 378.803 91.6725 373.042C82.9331 359.25 74.5049 345.256 66.5506 330.997C59.1728 317.318 50.029 303.667 48.1561 287.917C45.4355 259.573 78.7262 214.215 95.4032 191.179C104.6 180.084 115.801 168.665 130.367 165.438C134.847 164.775 139.571 164.685 143.842 163.061C144.189 160.987 145.164 159.077 147.366 158.569C149.683 158.057 152.167 157.267 154.5 157.209C155.028 157.06 155.65 156.967 156.208 157.069C157.805 152.926 158.04 148.257 159.873 144.207ZM70.641 715.282C71.0399 715.479 71.4532 715.65 71.8759 715.801C72.396 715.872 72.9137 715.939 73.4315 715.998C72.4934 715.787 71.5624 715.55 70.641 715.282ZM122.47 675C114.819 677.775 112.716 664.749 97.6686 670.02C91.7879 680.928 84.1747 690.836 75.4726 699.644C72.3796 703.485 63.2246 707.847 68.1582 713.481L68.9138 713.619C77.4816 715.176 86.1783 716.413 94.909 715.709C101.506 713.891 106.454 708.607 110.453 703.28C113.346 698.157 116.73 693.335 120.185 688.581C122.084 686.217 122.277 683.208 122.268 680.299C122.332 678.531 122.398 676.765 122.47 675ZM208.415 668.605C205.167 667.415 201.835 668.535 198.88 669.995C193.833 672.251 182.901 674.955 178.231 671.357C175.941 675.141 175.173 679.348 175.801 683.712L175.808 683.983C175.861 685.745 176.108 687.164 178.252 687.289L184.338 688.819C204.872 693.969 225.608 698.949 246.744 700.382C252.385 696.862 252.543 692.236 246.547 689.014L245.013 688.075C233.241 680.879 221.194 673.806 208.415 668.605ZM253.086 698.535C253.029 698.633 252.975 698.73 252.918 698.824C253.006 698.867 253.086 698.929 253.162 698.995C253.162 698.836 253.138 698.68 253.086 698.535ZM102.559 659.971C102.637 661.571 101.851 663.377 101.298 664.813C100.972 665.662 100.638 666.873 100.12 667.845C112.986 664.052 116.899 675.164 121.538 672.854L121.679 672.779V672.777C120.732 670.616 121.765 667.573 122.401 665.418C115.645 664.197 109.012 662.297 102.559 659.971ZM204.216 656.551L200.507 656.665C194.738 656.84 188.968 656.993 183.194 656.985C183.798 661.131 182.616 667.97 179.931 671.191C179.926 671.193 179.921 671.193 179.919 671.196C187.519 672.345 194.716 668.867 201.485 665.941C201.771 662.764 203.019 659.522 204.216 656.551ZM179.398 669.181L178.705 670.475C178.805 670.587 178.919 670.689 179.04 670.776C178.969 670.238 179.161 669.706 179.398 669.181ZM101.73 659.675C101.602 660.232 101.453 660.789 101.293 661.346C101.536 660.798 101.811 660.275 102.146 659.824L101.73 659.675ZM182.795 656.987L182.389 656.992L182.387 657.224C182.482 657.383 182.498 657.577 182.38 657.734C182.365 658.45 182.335 659.168 182.28 659.886L182.415 659.057C182.53 658.366 182.651 657.676 182.795 656.987ZM177.634 656.75L177.655 657.11C178.175 657.091 178.7 657.113 179.218 657.087C179.491 657.072 179.771 657.025 180.054 656.975C179.239 656.949 178.427 656.885 177.634 656.75ZM270.063 359.703C269.806 360.005 269.526 360.187 269.241 360.28C269.244 367.122 267.861 373.851 264.074 379.776C262.498 381.864 261.608 384.241 260.846 386.718C256.841 398.055 256.097 410.234 257.557 422.106C261.493 416.336 263.057 409.451 264.157 402.662C264.216 402.32 264.781 402.325 264.843 402.662C266.173 409.928 263.887 417.066 261.152 423.782C259.445 425.002 259.852 428.197 259.647 430.076C288.666 434.302 278.574 378.628 282.291 361.481C282.36 361.009 282.762 360.666 283.218 360.521C278.865 359.857 274.454 359.809 270.063 359.703ZM133.406 393.906C133.442 394.088 133.473 394.271 133.496 394.453L133.653 393.916C133.572 393.913 133.489 393.911 133.406 393.906ZM153.018 158.411L152.51 158.544C147.148 159.926 145.413 159.736 145.109 166.206C143.791 174.986 138.925 182.645 136.738 191.135C135.863 194.133 136.789 199.659 140.937 198.847C142.281 198.435 143.328 200.245 142.312 201.205C139.308 204.045 136.391 206.972 133.458 209.88C145.236 249.603 160.535 288.294 179.173 325.311C179.911 326.78 177.695 328.072 176.962 326.602C158.434 289.467 143.024 250.789 131.064 211.056L130.703 209.851C130.175 208.388 136.929 203.146 138.158 201.435C125.826 195.498 143.043 174.703 143.511 164.689C139.982 166.24 135.98 165.684 132.252 166.308C125.099 167.562 118.82 171.691 113.24 176.148C90.5716 196.149 76.0857 223.841 61.5951 249.942C51.7267 266.971 46.9693 287.79 56.8723 305.905C68.363 329.131 81.6924 351.518 95.7852 373.251C97.3327 375.263 99.7142 372.95 101.345 372.106C110.718 366.478 118.845 358.821 125.096 349.867C109.942 331.287 96.7423 310.982 87.4071 288.859L87.2783 288.602C85.1838 284.395 83.5277 279.306 87.0216 275.344C99.4288 259.464 110.463 242.606 120.847 225.354C120.954 225.181 121.194 225.333 121.116 225.513C120.05 227.926 118.926 230.32 117.755 232.692C120.12 267.769 119.721 303.532 120.743 338.832C123.5 342.48 126.338 346.066 129.243 349.595C138.665 343.107 149.748 338.875 161.131 337.564L161.866 337.49C166.701 336.993 174.687 336.057 175.321 342.329C174.537 350.045 158.578 345.707 153.476 350.083C161.84 353.451 171.424 354.401 179.103 359.478C181.567 360.914 186.395 365.49 181.678 367.24C179.62 367.416 177.494 366.618 175.437 366.442C177.752 367.221 179.881 368.541 181.236 370.611C182.212 372.03 182.925 374.976 180.593 375.583C175.276 375.733 169.981 374.001 164.745 373.14L165.21 373.328C169.028 374.89 174.962 377.695 169.82 381.831C164.673 384.494 158.441 379.965 153.315 378.756C139.505 375.545 129.29 384.344 115.133 374.818C114.732 378.001 114.128 381.163 113.887 384.364L113.856 384.545C113.365 387.468 113.785 388.523 116.939 389.081C120.74 390.228 124.722 390.588 128.673 390.801C147.685 391.806 166.823 391.093 185.706 388.66C188.423 387.931 194.806 388.618 195.942 385.63C193.813 308.728 161.746 236.366 152.916 160.463C152.771 159.733 152.761 158.989 153.018 158.411ZM206.617 164.983C205.101 165.045 203.689 165.374 202.181 165.526C203.016 167.302 207.425 169.813 207.023 170.695C207.342 170.942 207.665 171.179 207.992 171.408C207.536 169.806 207.076 168.207 206.614 166.604C223.367 207.4 225.668 255.668 227.894 300.171C228.628 322.611 229.026 345.12 227.941 367.546C227.338 373.502 225.742 379.522 226.177 385.537C236.009 386.953 245.983 387.074 255.856 386.026C256.148 385.26 256.478 384.507 256.852 383.767C271.631 365.754 263.794 343.18 256.678 323.668C252.375 323.85 248.046 323.578 243.739 323.631C245.07 327.748 245.413 332.105 246.121 336.363C246.604 339.397 247.219 342.407 247.926 345.395L248.14 346.292C248.403 347.366 248.725 348.516 248.349 349.576C247.969 350.655 246.658 351.09 245.788 350.251C244.222 348.466 244.39 345.804 243.884 343.589L243.791 342.892C242.928 336.534 241.792 329.937 243.369 323.628C241.821 323.296 237.591 324.516 237.369 322.436C237.435 319.001 234.942 311.559 237.716 309.296C239.367 308.038 242.205 308.436 244.141 308.358C246.378 308.268 248.612 308.184 250.847 308.199C232.888 264.806 237.882 251.449 239.705 208.264L239.759 206.946C239.754 206.661 240.212 206.59 240.263 206.877C243.008 224.566 239.348 242.476 241.082 260.221C244.162 293.936 265.531 322.884 269.103 356.438C276.808 355.544 284.603 356.64 292.071 358.573C292.227 357.21 292.349 355.842 292.434 354.475C293.852 329.43 285.062 305.107 274.806 282.644C268.66 270.721 264.861 257.995 263.271 244.69C260.183 227.359 253.255 211.034 246.349 194.935C241.983 182.897 232.546 180.059 220.843 178.661C224.79 185.203 228.713 191.758 232.63 198.319C233.503 200.303 230.825 201.719 229.656 202.94C244.033 210.779 235.638 234.985 235.936 248.548C234.868 261.011 234.466 273.546 232.584 285.922C232.447 286.78 231.131 286.529 231.119 285.725C231.292 267.181 233.504 248.711 234.475 230.196L234.593 228.846C235.349 220.08 236.09 207.435 225.548 205.028C224.125 204.796 224.016 202.682 225.158 202.047C226.678 201.201 228.01 200.167 229.202 198.937C225.175 192.18 221.154 185.418 217.169 178.632L216.982 178.317C214.151 173.516 211.522 167.929 206.617 164.983ZM172.407 341.859C171.244 338.434 159.957 340.665 156.944 341.037C145.834 343.134 134.653 348.05 126.191 355.62C125.669 356.087 125.051 356.08 124.565 355.826C120.775 360.667 116.398 365.054 111.598 368.909C112.476 369.601 113.379 370.272 114.307 370.914C114.752 370.962 115.153 371.192 115.333 371.604C128.54 381.172 138.256 373.709 151.976 375.432C157.098 376.465 161.815 379.722 167.094 379.859C170.968 378.978 167.557 377.359 165.748 376.733C161.651 374.778 157.474 372.995 153.289 371.237L149.94 369.834C148.295 369.144 148.86 366.658 150.698 367.091C153.916 367.85 157.143 368.57 160.373 369.279C166.584 370.546 172.944 372.171 179.22 372.787C177.825 368.91 163.022 364.722 158.718 363.181C157.092 362.413 152.456 362.559 152.985 360.04C153.413 357.696 158.346 360.38 159.991 360.571C166.705 362.274 173.559 363.306 180.401 364.344C173.052 356.973 161.66 356.337 152.275 352.885L152.017 352.826C150.348 352.438 148.062 351.705 149.418 349.809C154.24 342.702 173.214 346.297 172.407 341.859ZM158.521 302.281C161.944 299.473 163.777 305.24 163.56 307.922C163.722 310.147 163.895 312.373 164.04 314.598C163.827 316.338 165.682 322.683 163.202 322.74C152.357 322.189 141.531 322.328 130.682 321.676C130.668 323.863 130.561 326.048 130.673 328.238C130.614 330.977 131.566 333.712 131.01 336.42C130.67 337.664 128.977 337.833 128.316 336.771C126.335 332.11 127.697 326.098 129.1 321.384C123.789 320.402 123.056 315.41 124.455 310.956L124.441 310.714C124.363 309.34 124.369 307.866 124.982 306.756C126.623 304.825 130.025 306.079 132.285 305.934C139.213 305.22 146.267 305.022 153.113 303.75C154.885 303.292 156.693 302.368 158.521 302.281ZM115.459 237.205C110.066 247.497 103.861 257.29 97.2556 266.826C95.8402 268.862 94.3868 270.872 92.91 272.867L92.728 273.101C89.7495 276.9 86.5919 280.021 89.4092 285.045C96.7153 302.786 106.498 319.447 117.832 334.91C117.114 302.341 116.48 269.763 115.459 237.205ZM251.047 308.72C237.497 311.559 237.243 306.243 239.505 321.288C244.939 321.326 250.37 321.203 255.806 321.291C254.253 317.089 252.642 312.906 251.047 308.72ZM160.092 304.47C153.016 306.929 145.502 306.578 138.111 306.881C138.126 308.47 130.564 306.995 129.112 307.213L128.608 307.17C127.399 307.069 125.846 307.031 125.832 308.524C126.217 311.097 124.768 313.916 125.666 316.444C126.877 319.85 132.059 319.5 134.919 319.566C139.633 319.673 144.347 319.786 149.061 319.91C153.296 320.021 157.544 320.232 161.781 320.262C161.401 317.248 161.297 314.157 161.067 311.145C160.776 308.979 161.195 306.412 160.092 304.47ZM189.85 315.423C189.858 315.461 189.865 315.499 189.874 315.539C189.929 315.525 189.986 315.512 190.043 315.5L190.131 315.482V315.48C190.038 315.463 189.943 315.444 189.85 315.423ZM210.375 180.043C207.314 185.288 202.241 188.656 196.13 188.706C185.405 189.323 174.538 188.614 164.086 186.074C162.549 185.691 160.713 185.357 159.3 184.518C167.37 228.228 180.414 270.808 189.613 314.266C196.275 314.853 202.917 314.791 209.593 314.477C214.746 314.399 219.951 314.953 225.068 314.188L224.909 308.792C223.617 265.604 221.82 221.894 210.375 180.043Z" fill="black"/>
<path fill-rule="evenodd" clip-rule="evenodd" d="M141.088 66.9318C142.32 65.6128 143.895 64.6302 145.617 64.3162C144.043 65.1009 142.505 65.9188 141.088 66.9318ZM138.676 78.3045C138.458 77.2993 138.312 76.2845 138.266 75.2698C138.541 75.6874 138.98 75.9664 139.474 76.1105C139.155 76.8232 138.884 77.5574 138.676 78.3045ZM221.09 94.0641C219.668 88.1585 213.035 76.7993 211.468 74.613C209.765 69.1994 219.05 64.858 214 60.6247C211.714 58.7147 208.693 58.0387 205.859 57.3613C186.235 52.6581 165.151 55.0301 146.951 63.6788C144.183 63.0975 141.298 64.2337 139.285 66.2293C129.827 75.7163 142.717 92.8337 145.535 103.529C150.371 115.455 140.41 117.461 141.478 127.551C142.308 132.764 147.598 134.141 152.063 134.929C152.779 135.096 153.735 135.121 153.966 135.876C154.689 140.283 157.169 144.482 160.499 147.332C160.207 148.192 160.43 149.237 161.456 149.993C170.758 156.892 182.487 160.344 194.089 159.724C207.915 158.984 215.065 151.076 216.791 149.039C226.33 136.182 225.191 119.218 223.245 103.896C221.889 93.222 223.608 104.526 221.09 94.0641Z" fill="white"/>
<path fill-rule="evenodd" clip-rule="evenodd" d="M178.457 44.9231C178.891 43.5674 180.122 42.752 181.53 42.9203C182.777 43.0673 184.111 44.3021 183.959 45.6649C183.931 45.928 183.893 46.1745 183.848 46.4067L183.854 46.4088L183.86 46.4091L183.829 46.4992C183.736 46.9329 183.608 47.3216 183.418 47.689C183.176 48.3929 182.943 49.0992 182.713 49.8078C183.045 49.7936 183.385 49.8126 183.729 49.8766C184.085 48.9664 184.444 48.0587 184.8 47.1462C185.182 46.1721 185.451 44.9207 186.206 44.167C187.173 43.2047 188.849 43.0056 190.027 43.693C191.272 44.4182 191.716 45.7076 191.445 47.0893C191.307 47.7941 190.836 48.2846 190.252 48.5928L190.189 48.6251L189.74 49.687C189.878 49.6277 190.02 49.5732 190.174 49.5282C190.417 49.4571 190.654 49.412 190.887 49.3931C191.528 48.2341 192.233 47.1083 192.963 46.0038C193.801 44.7334 195.44 44.1931 196.815 44.9965C198.045 45.7147 198.705 47.6013 197.824 48.8408C197.154 49.7818 196.52 50.7416 195.896 51.711C196.002 51.73 196.109 51.7537 196.211 51.7845C196.259 51.7205 196.309 51.6565 196.361 51.5925C197.043 50.7488 197.836 50.1159 198.65 49.4144C199.413 48.7555 199.764 47.7198 200.766 47.2197C202.028 46.5916 203.547 46.8926 204.298 48.144C205.908 50.8246 203.205 52.7823 201.477 54.4058C202.98 53.4696 204.545 52.614 206.15 51.8746C207.053 51.4598 207.97 51.0592 208.9 50.7132C210.28 50.2013 211.397 50.365 212.529 51.3176C213.035 51.7442 213.287 52.6759 213.054 53.2966C212.603 54.4864 211.89 55.2093 210.641 55.5529C209.763 55.7947 208.862 55.9582 207.984 56.2118C206.511 56.6337 205.082 57.148 203.695 57.7903C203.794 57.8519 203.889 57.9183 203.977 57.9942C205.013 57.66 206.067 57.3708 207.126 57.1243C208.883 56.7133 210.671 56.4355 212.467 56.2618L213.064 56.2064C215.216 56.0002 217.805 55.6197 219.127 57.6766C219.561 58.3544 219.609 59.4731 219.127 60.1438C218.205 61.4332 217.289 61.6891 215.764 61.7128C217.265 61.8716 218.763 62.0684 220.255 62.2983C221.283 62.4547 222.311 62.632 223.334 62.8287L223.846 62.9287C225.093 63.1776 226.484 63.3221 227.555 64.0427C229.892 65.6164 228.795 68.6809 226.206 69.008C224.955 69.1644 223.565 68.6359 222.338 68.3894C221.145 68.15 219.948 67.9391 218.747 67.7542C218.125 67.6571 217.502 67.5717 216.878 67.4935C218.148 67.676 219.409 67.9344 220.637 68.2994L220.978 68.4021C223.352 69.124 226.556 70.2739 227.296 72.8049C227.745 74.3431 226.517 75.6846 225.031 75.7746C223.649 75.8576 222.497 75.0352 221.324 74.4284C220.469 73.9876 219.599 73.6581 218.678 73.3761C217.726 73.0846 216.754 72.8428 215.776 72.6461C216.603 73.1007 217.408 73.6004 218.181 74.1594L218.536 74.4214C220.591 75.9492 223.724 78.3146 223 81.1785C222.772 82.0815 221.763 82.9442 220.794 82.8518C218.272 82.6171 216.88 79.9365 214.978 78.5003C214.481 78.1258 213.938 77.756 213.368 77.3958C216.251 80.8277 218.545 84.7952 220.29 88.8931C224.127 97.9085 225.304 106.257 225.332 115.951V116.251C225.337 121.598 225.216 127.042 224.694 132.366C224.209 137.283 223.321 142.137 221.086 146.591C217.341 154.059 210.043 159.875 201.994 162.089C193.039 164.554 183.028 162.627 175.692 156.939C173.821 155.488 176.303 152.339 178.214 153.677C185.85 159.022 195.725 160.714 204.488 157.098C211.439 154.23 217.037 148.06 219.409 140.957C220.92 136.438 221.359 131.62 221.898 126.911L221.934 126.597C222.504 121.672 222.834 116.713 222.829 111.755C222.822 102.547 221.497 94.9677 217.438 86.6155C215.529 82.6811 213.052 79.0433 210.093 75.8505C209.195 76.033 208.24 75.777 207.333 75.6798C206.87 75.6301 206.407 75.5827 205.944 75.54C206.417 75.8453 206.881 76.1627 207.337 76.4875L207.935 76.918C209.807 78.2558 212.182 79.7795 211.7 82.3659C211.57 83.0651 210.872 83.7074 210.195 83.8662C207.742 84.4492 206.055 82.0696 204.398 80.6571C202.956 79.4293 201.448 78.3296 199.912 77.2275C199.562 76.9787 199.211 76.7298 198.857 76.4833C199.19 76.8701 199.513 77.263 199.828 77.6595L200.295 78.2494C201.706 80.0117 203.74 82.3023 202.484 84.5867C202.127 85.2313 201.367 85.6603 200.631 85.6461C198.099 85.594 197.093 82.7262 195.905 80.9154C194.884 79.363 193.775 77.9006 192.628 76.4383C192.312 76.0377 191.994 75.6372 191.671 75.2366C186.353 75.5116 181.055 76.2131 175.849 77.3342C172.272 78.1045 168.755 79.1025 165.264 80.1949L164.974 80.287C163.085 80.8941 161.138 81.6711 159.776 83.0035C159.581 83.9214 159.731 84.8896 159.917 85.8064L160.062 86.5081C160.659 89.4424 161.066 92.3224 160.761 95.3351C160.446 98.4423 159.507 101.237 158.363 104.123C157.821 105.484 157.261 105.237 157.068 106.697C156.921 107.809 157.012 108.957 157.113 110.079L157.197 111.029C157.408 113.52 157.514 116.235 155.879 118.29C155.624 118.605 155.081 118.479 154.9 118.164C154.829 118.038 154.753 117.917 154.67 117.801C153.881 116.661 152.672 116.012 151.29 115.761C151.115 115.73 151.183 115.495 151.331 115.476C152.499 115.339 153.606 115.63 154.546 116.232C154.1 114.693 150.648 115.442 149.513 115.741L149.474 115.751C148.058 116.13 146.719 116.747 145.538 117.619C143.163 119.373 141.791 122.108 141.86 125.054C141.928 127.95 143.427 130.626 146.001 132.012C147.243 132.681 148.657 133.003 150.062 132.989C151.53 132.975 152.836 132.332 154.306 132.422C155.157 132.475 155.807 133.385 155.316 134.179C154.988 134.71 154.561 135.127 154.067 135.447C155.271 138.217 156.807 140.86 158.579 143.299C159.56 144.652 160.671 145.901 161.894 147.041C162.849 147.932 164.917 148.963 164.801 150.449C164.761 150.985 164.483 151.312 163.994 151.511C162.473 152.132 160.623 149.995 159.606 148.965L159.524 148.883C158.256 147.622 157.099 146.228 156.092 144.749C154.306 142.123 153.197 139.163 152.739 136.053C150.3 136.786 147.07 136.098 145.08 135.2C138.824 132.38 136.78 123.973 140.582 118.375C141.318 117.292 142.24 116.365 143.289 115.616C143.059 115.49 142.843 115.329 142.65 115.125C141.586 113.997 140.834 112.525 140.087 111.168L139.998 111.006C139.335 109.812 138.709 108.598 138.123 107.366L137.905 106.904C136.597 104.095 135.45 102.867 134.516 99.9141C133.619 97.0653 132.911 94.1619 132.453 91.2087L132.331 90.4271C132.066 88.7135 131.815 86.8811 132.009 85.1413C130.676 85.575 129.337 85.8428 128.019 85.1911C127.149 84.7621 126.67 83.5107 126.967 82.6124C127.183 81.9511 127.544 81.4321 128.002 81.0244C127.729 80.887 127.472 80.7116 127.247 80.5172L127.05 80.3468C126.252 79.6545 126.195 78.3391 126.679 77.4716C126.727 77.3887 126.774 77.3034 126.819 77.2204C127.28 76.398 128.232 75.86 129.173 75.8742C129.325 75.8766 129.477 75.8766 129.631 75.8742C129.192 75.777 128.762 75.6277 128.354 75.3765C126.511 74.2459 126.743 71.1814 128.973 70.641C129.909 70.4158 130.942 70.5083 131.973 70.75C131.935 70.7287 131.897 70.7074 131.859 70.6837C131.08 70.2073 130.427 69.2758 130.5 68.3207C130.581 67.2636 130.923 66.5099 131.859 65.9553C132.671 65.4766 133.821 65.4315 134.628 65.9553C135.329 66.4128 136.015 66.9176 136.675 67.4603C136.013 66.6474 135.438 65.7633 135.205 64.8248C134.918 63.6563 135.398 62.3836 136.452 61.7674C137.293 61.2767 138.181 61.3313 138.974 61.7105C138.931 61.0966 139.081 60.4709 139.489 59.9163C140.325 58.7789 141.845 58.1245 143.168 58.954C143.342 59.0631 143.574 59.2503 143.8 59.4802C143.361 58.0842 143.757 56.6195 145.256 55.989C146.17 55.6027 147.407 55.7971 148.201 56.4631C147.697 53.7446 151.718 51.7466 153.28 54.5551C153.635 55.1914 153.986 55.8613 154.3 56.5467L154.416 56.8044L154.428 56.7996L154.348 56.6112L154.266 56.4228C153.831 55.4155 153.278 54.3679 153.126 53.2753C152.903 51.6589 153.625 50.1254 155.387 49.8884C156.297 49.7652 157.308 50.1776 157.919 50.8983C157.589 48.3905 160.396 46.5679 162.417 48.4403C163.374 49.3267 163.884 50.6231 164.492 51.7608C164.837 52.4031 165.188 53.043 165.533 53.6877C165.62 53.5834 165.715 53.4791 165.815 53.3772C165.305 51.8509 164.908 50.2866 164.573 48.7128C164.255 47.2292 164.998 45.6886 166.532 45.2693C167.926 44.8851 169.672 45.7433 169.983 47.2247C170.202 48.2673 170.46 49.2985 170.745 50.3245C170.94 50.2771 171.133 50.2439 171.323 50.2202C171.338 50.0275 171.356 49.8336 171.376 49.6409L171.451 48.9553C171.617 47.3888 171.785 45.6005 172.605 44.2689C174.004 41.9936 177.59 42.9369 177.628 45.627C177.649 47.0182 177.082 48.3976 176.885 49.7746C176.799 50.3743 176.749 50.981 176.721 51.5878C177.103 49.5732 177.628 47.5847 178.236 45.627C178.307 45.3923 178.383 45.1577 178.457 44.9231ZM147.517 122.61C150.664 122.124 153.54 123.876 155.404 126.329C155.744 126.777 155.521 127.41 155.214 127.787C154.993 128.064 154.697 128.097 154.362 128.14C153.977 128.189 153.49 127.879 153.321 127.545C152.122 125.156 149.982 123.646 147.517 122.717C147.472 122.7 147.458 122.62 147.517 122.61ZM151.878 79.8052L151.973 79.7031C152.61 79.0439 151.604 78.0371 150.966 78.6977C150.294 79.3931 149.847 80.2378 149.418 81.0938C149.009 81.9101 150.238 82.6311 150.648 81.8117L150.836 81.4393C151.129 80.8603 151.442 80.2882 151.878 79.8052ZM143.042 78.4524C143.944 78.3007 143.562 76.9301 142.663 77.0813C141.499 77.2771 140.339 77.4996 139.175 77.6956C138.273 77.8473 138.655 79.2179 139.554 79.067C140.718 78.871 141.878 78.6484 143.042 78.4524ZM196.802 69.095C195.93 68.8047 195.556 70.1777 196.423 70.4663C197.621 70.8652 198.809 71.2741 199.946 71.828C200.767 72.228 201.49 71.002 200.665 70.6C199.418 69.9921 198.117 69.533 196.802 69.095ZM142.836 67.252C141.985 66.9121 141.615 68.287 142.457 68.6233L145.535 69.8518C146.387 70.1916 146.756 68.817 145.914 68.4807L142.836 67.252ZM207.549 63.9131L207.436 63.8424C206.665 63.3432 205.949 64.5738 206.717 65.0703C207.168 65.3617 207.716 65.5593 208.128 65.9063L208.214 65.9831C208.881 66.6111 209.89 65.6076 209.222 64.9774C208.733 64.5168 208.114 64.2603 207.549 63.9131Z" fill="black"/>
<path fill-rule="evenodd" clip-rule="evenodd" d="M197.519 143.847C195.922 143.197 194.498 142.113 193.456 140.728C193.094 140.247 193.001 139.738 193.076 139.273C193.162 138.75 193.472 138.277 193.895 137.959C194.319 137.64 194.849 137.483 195.362 137.563C195.807 137.632 196.251 137.876 196.602 138.381L196.675 138.482C197.295 139.318 198.101 140.004 199.021 140.446C199.907 140.872 200.898 141.071 201.923 140.955C203.876 140.735 205.222 139.681 206.653 138.249C206.831 138.069 207.008 137.882 207.186 137.693C207.299 137.521 207.455 137.411 207.629 137.353C207.821 137.289 208.039 137.292 208.239 137.362C208.432 137.429 208.604 137.556 208.719 137.725C208.829 137.886 208.891 138.084 208.871 138.313C208.74 139.796 207.963 141.12 206.859 142.16C205.633 143.314 204.007 144.113 202.477 144.393C200.792 144.702 199.074 144.481 197.519 143.847ZM203.273 120.962C205.066 122.05 207.799 124.587 205.869 127.284C203.598 129.662 200.329 126.935 198.718 125.702C197.224 124.746 195.545 127.204 196.931 128.32C208.574 136.922 213.299 121.246 204.18 119.683C203.176 119.51 202.803 120.625 203.273 120.962ZM182.409 110.955C182.607 108.5 186.353 107.943 186.726 110.372C187.059 112.548 186.666 114.546 185.684 116.505C184.746 118.377 182.388 117.504 182.209 115.8C181.97 113.515 182.286 112.482 182.409 110.955ZM210.923 109.868C211.445 109.186 212.199 108.72 213.102 108.983C215.925 109.806 215.093 113.805 214.102 115.752C213.563 116.809 211.822 117.077 211.035 116.146C209.753 114.628 209.139 111.597 210.769 110.102C210.813 110.025 210.862 109.947 210.923 109.868ZM185.645 100.215L186.09 100.137C187.47 99.8986 189.185 99.6699 190.16 100.777C190.678 101.363 190.856 102.454 190.16 103.016C188.937 104.004 187.584 103.621 186.118 103.705C184.91 103.774 183.748 103.974 182.584 104.306C180.031 105.034 177.95 106.364 175.769 107.824C175.483 108.015 175.191 107.65 175.328 107.383C176.587 104.922 179.026 102.9 181.47 101.668C182.774 101.01 184.202 100.465 185.645 100.215ZM208.35 99.1123L208.691 99.182C212.405 99.9567 217.23 101.504 218.988 105.145C219.055 105.659 218.985 105.77 218.927 105.842L218.908 105.866C218.86 105.927 218.822 106.012 218.599 106.082C218.537 106.067 218.474 106.052 218.411 106.035C217.605 105.824 216.967 105.534 216.35 105.233L215.68 104.903C214.903 104.523 214.12 104.157 213.289 103.887C211.517 103.31 209.694 102.903 207.843 102.686C207.442 102.639 207.056 102.504 206.751 102.273C206.462 102.053 206.241 101.749 206.14 101.344C206.009 100.82 206.047 100.424 206.328 99.9517C206.54 99.597 206.843 99.3511 207.191 99.2099C207.545 99.066 207.949 99.0321 208.35 99.1123Z" fill="black"/>
<path fill-rule="evenodd" clip-rule="evenodd" d="M223.287 117.422C222.616 119.246 221.593 121.145 220.344 122.68C215.286 126.954 210.373 124.588 207.877 118.796C206.929 114.702 209.447 110.293 212.114 107.282C215.966 103.429 222.252 105.451 224.024 110.031C224.131 110.625 224.196 111.217 224.227 111.807C224.191 113.724 223.959 115.363 223.287 117.185M174.678 113.744C181.34 105.835 193.803 105.412 193.485 117.584C192.054 132.991 167.956 129.209 174.678 113.744ZM225.382 107.146C225.149 106.752 224.89 106.37 224.607 106.005C224.503 105.943 224.442 105.392 224.058 105.351C218.922 99.6962 209.899 102.905 206.639 108.539C206.043 109.252 205.558 110.086 205.2 110.967C201.987 110.379 198.242 110.493 195.255 111.704C192.292 103.984 183.324 103.295 177.413 106.593C173.737 108.398 171.353 112.176 167.778 114.252C159.374 114.856 150.354 112.977 142.101 115.081C135.592 116.431 141.033 119.72 142.125 117.525C149.905 115.231 159.124 117.17 167.202 116.653C168.042 118.071 169.653 119.231 171.259 119.181C172.993 134.521 195.408 131.977 196.181 118.342C197.058 116.958 198.149 115.633 199.71 114.771C200.308 114.647 200.885 114.487 201.413 114.239C202.315 114.112 203.705 114.493 204.534 115.243C207.377 132.264 223.753 130.281 226.68 115.37C226.738 115.311 226.9 115.089 227.025 114.732C228.027 113.41 230.479 112.919 230.088 110.687C229.739 108.455 226.914 108.482 225.382 107.146Z" fill="black"/>
</svg>
