<svg width="574" height="358" viewBox="0 0 574 358" fill="none" xmlns="http://www.w3.org/2000/svg">
<path fill-rule="evenodd" clip-rule="evenodd" d="M169.803 326.558C171.399 321.94 173.065 317.346 174.796 312.777C175.619 310.607 176.449 308.44 177.311 306.287C177.914 304.777 178.536 303.013 180.074 302.503C182.24 301.785 184.165 301.211 185.501 299.2C186.758 297.306 187.291 294.777 187.941 292.623C189.307 288.106 190.431 283.519 191.419 278.906C192.422 274.22 193.287 269.506 194.127 264.788C194.913 260.377 195.767 255.959 196.084 251.484C196.685 242.991 194.133 235.031 189.4 228.031C188.223 226.29 186.529 221.471 185.186 219.855C183.951 218.369 182.967 220.152 181.791 218.619C180.851 217.394 180.095 216.038 180.068 214.456C180.038 212.739 179.162 209.871 179.716 208.2C180.892 204.656 183.07 202.297 182.126 198.612C181.289 195.341 179.379 192.355 176.995 189.997C171.75 184.807 162.796 181.408 155.837 185.094C152.513 186.853 150.032 189.837 146.366 190.742C143.164 191.532 142.888 193.138 139.594 192.629C139.408 192.601 135.717 189.368 135.53 189.339C132.899 187.037 129.048 187.237 125.73 186.75C120.782 186.024 115.77 185.873 110.783 186.233C100.725 186.96 90.9218 189.718 81.7678 193.918C72.5378 198.152 64.0016 203.907 56.4363 210.675C54.5989 212.319 52.8191 214.028 51.1033 215.798C50.1426 216.789 49.1363 217.811 48.8528 219.215C48.6203 220.364 48.9075 221.475 49.3935 222.512C50.0525 223.918 51.9733 225.663 51.0415 227.235C50.3329 228.431 49.2107 229.478 48.3425 230.565C47.3085 231.859 46.3124 233.186 45.3172 234.512C40.7894 240.542 36.4391 246.718 32.4661 253.131C28.5542 259.444 24.6203 265.918 21.4617 272.648C21.2535 273.092 21.1624 273.555 21.1835 274.001C20.9508 273.967 20.7371 274.317 20.9476 274.5C21.0949 274.629 21.2418 274.758 21.3896 274.886C21.5905 275.342 21.9337 275.745 22.4236 276.039C22.7557 276.237 23.0852 276.44 23.413 276.646C26.5607 279.374 29.7312 282.061 33.0437 284.604C37.0699 287.695 41.1762 290.672 45.351 293.559C53.9292 299.491 63.0902 304.209 72.4368 308.79C81.7681 313.365 90.8919 318.299 99.8374 323.589C108.79 328.884 117.652 334.336 126.649 339.557C136.7 345.391 146.991 350.756 157.563 355.585C159.013 356.248 160.487 355.621 160.98 354.09C163.94 344.915 166.652 335.673 169.803 326.558Z" fill="white"/>
<path fill-rule="evenodd" clip-rule="evenodd" d="M132.811 187.559C133.772 188.04 134.645 188.725 135.53 189.339C135.607 189.393 135.568 189.536 135.466 189.504C133.594 188.921 131.67 188.477 129.753 188.047L128.932 187.863C126.769 187.379 124.652 186.943 122.447 186.674C118.052 186.141 113.553 186.218 109.162 186.738C92.2506 188.746 76.1747 197.089 63.0582 207.692C59.4959 210.571 56.1108 213.67 52.9304 216.967C52.1569 217.769 51.3962 218.583 50.6458 219.407C50.4258 219.649 49.7445 220.202 49.7425 220.573C49.7405 220.901 50.1907 221.356 50.3675 221.625L50.9662 222.53C52.1371 224.291 54.0976 227.206 54.296 227.495L54.6066 227.944C59.6935 235.272 65.5499 242.346 73.3127 246.931L73.7488 246.293C76.1709 242.769 78.7132 239.287 81.726 236.242C81.8881 236.078 82.098 236.281 82.0247 236.466C80.2085 241.046 77.6351 245.246 75.0524 249.425C70.4784 256.825 65.7928 264.159 61.1583 271.521C58.8395 275.205 56.4625 278.852 54.1106 282.514C51.7544 286.184 49.5089 290.035 46.863 293.502C46.2733 294.275 45.0347 294.184 44.3385 293.681C43.5688 293.123 43.3386 292.044 43.7988 291.208C45.0119 289.006 46.5258 286.936 47.8993 284.83C49.2042 282.829 50.5193 280.835 51.8383 278.843C56.6527 271.574 61.5504 264.363 66.4003 257.118C68.1204 254.548 69.8567 251.991 71.6 249.438C63.408 244.524 57.3359 237.093 51.9122 229.342C50.4435 231.727 48.8249 234.022 47.2179 236.316C42.7338 242.717 38.3337 249.163 34.0762 255.719C31.9259 259.03 29.8369 262.381 27.7698 265.744C26.7536 267.398 25.7514 269.058 24.7621 270.727C24.4325 271.283 24.104 271.841 23.7771 272.399L23.0312 273.679C22.5542 274.487 22.0476 275.201 21.0256 275.414C19.9876 275.63 19.0234 275.135 18.6857 274.111C18.2338 272.739 19.0465 271.665 19.7131 270.533C20.2755 269.576 20.8421 268.624 21.413 267.673C22.5551 265.773 23.7149 263.882 24.8919 262.002C29.0068 255.431 33.4541 249.081 38.0998 242.876L39.8971 240.483C43.2412 236.036 46.7115 231.515 50.7756 227.702C50.3589 227.093 49.9447 226.484 49.5333 225.875C48.8035 224.794 48.0217 223.726 47.35 222.608C46.8173 221.721 46.4857 220.726 46.7755 219.692C47.0984 218.54 48.0893 217.636 48.8886 216.782L48.9587 216.706C49.7571 215.843 50.5717 214.994 51.3983 214.157C54.7499 210.765 58.3223 207.598 62.0764 204.658C69.5926 198.772 77.8356 193.794 86.6141 190.031C94.5163 186.644 102.943 184.274 111.552 183.771C115.761 183.526 119.977 183.747 124.119 184.55C126.055 184.926 128.096 185.451 129.917 186.214C130.9 186.625 131.859 187.081 132.811 187.559ZM156.228 184.638C158.01 184.062 159.536 186.536 158.117 187.824C154.778 190.856 150.875 193.145 146.378 193.855C142.151 194.522 137.807 194.066 134.205 191.641C134.177 191.622 134.156 191.6 134.14 191.578L134.219 192.201C134.849 197.085 135.647 202 137.324 206.64C140.74 216.092 148.03 224.223 157.972 226.862C165.793 228.938 174.85 226.879 180.472 220.958C180.154 220.931 179.83 220.802 179.538 220.545C178.29 219.445 177.715 217.167 177.396 215.585C177.05 213.874 176.973 212.19 177.194 210.459C177.597 207.291 179.121 203.771 181.935 202.052C182.283 201.84 182.59 202.238 182.456 202.559L182.247 203.06C181.212 205.563 180.286 208.027 180.201 210.789C180.159 212.139 180.239 213.525 180.542 214.843C180.704 215.549 180.912 216.254 181.188 216.924C181.457 217.577 181.888 218.18 182.075 218.862L182.107 218.99L182.118 218.976C182.745 218.107 183.627 218.06 184.251 218.441C184.855 218.81 185.429 219.487 185.637 219.773L185.657 219.8C188.815 224.27 191.283 229.178 193.352 234.252C197.631 244.745 198.913 256.06 196.413 267.151C195.184 272.595 193.291 277.854 191.454 283.115L190.331 286.34C188.643 291.202 186.999 296.202 186.462 301.299C186.323 302.617 185.416 303.422 184.069 303.221C182.386 302.969 180.707 302.699 179.03 302.42C178.076 305.75 176.796 309.033 175.661 312.281C173.249 319.187 171.106 326.19 168.754 333.118C167.551 336.66 166.285 340.182 165.082 343.724C164.502 345.429 163.936 347.14 163.361 348.848C163.051 349.768 162.725 350.683 162.407 351.602L162.355 351.755C162.194 352.242 162.047 352.758 161.68 353.131C161.262 353.558 160.671 353.694 160.119 353.86C159.666 353.997 159.248 353.766 158.984 353.408L158.898 353.289C158.431 352.642 158.1 352.072 158.273 351.234C158.383 350.705 158.614 350.168 158.781 349.651C159.099 348.662 159.427 347.676 159.766 346.693C160.444 344.725 161.131 342.761 161.825 340.799L162.477 338.963C164.725 332.636 167.042 326.302 169.83 320.195C171.067 317.487 172.29 314.773 173.512 312.057L174.428 310.021C175.588 307.443 176.735 304.778 178.087 302.263L177.086 302.095L172.201 301.266C170.989 301.06 169.293 301.076 168.278 300.336C167.781 299.973 167.469 299.579 167.325 299.1C164.746 304.615 162.306 310.194 160.05 315.841C157.997 320.979 156.014 326.149 154.168 331.365C153.254 333.948 152.352 336.535 151.49 339.135C151.057 340.436 150.634 341.739 150.218 343.044C150.01 343.695 149.825 344.359 149.589 345.001C149.318 345.736 148.901 346.048 148.213 346.394C147.649 346.678 146.898 346.567 146.571 345.972C146.138 345.184 145.993 344.628 146.221 343.758C146.428 342.968 146.721 342.186 146.974 341.41C147.439 339.976 147.914 338.545 148.397 337.118C149.41 334.132 150.465 331.162 151.574 328.21C155.478 317.813 159.953 307.628 164.889 297.678C167.324 292.77 169.918 287.944 172.624 283.18C174.011 280.737 175.461 278.322 176.997 275.971C178.553 273.591 180.27 271.367 181.963 269.094C182.022 269.014 182.147 269.077 182.102 269.171C180.724 272.009 179.436 274.891 178.019 277.716C176.667 280.41 175.249 283.074 173.873 285.757C172.065 289.284 170.3 292.839 168.591 296.419C169.223 296.208 169.955 296.289 170.494 296.717C171.454 297.015 172.631 297.08 173.602 297.261L177.266 297.95C179.191 298.311 181.116 298.676 183.036 299.061C184.309 293.346 186.082 287.814 188.041 282.292L188.925 279.809C190.662 274.921 192.34 269.997 193.388 264.911C194.488 259.563 194.7 254.138 193.989 248.724C193.288 243.388 191.729 238.164 189.949 233.1C188.424 228.763 186.547 224.569 184.922 220.273C184.858 220.462 184.76 220.655 184.617 220.847C181.307 225.257 176.343 228.317 171.033 229.691C160.365 232.454 149.282 228.088 142.097 220.006C135.147 212.19 131.491 200.807 133.713 190.476C133.75 190.3 133.986 190.352 134.006 190.508C134.041 190.797 134.077 191.085 134.114 191.374C134.149 191.287 134.24 191.222 134.362 191.239C138.184 191.775 142.23 191.772 145.944 190.648C147.755 190.099 149.506 189.312 151.106 188.3C151.872 187.817 152.614 187.287 153.3 186.694L153.476 186.54C154.324 185.791 155.129 184.994 156.228 184.638Z" fill="black"/>
<path fill-rule="evenodd" clip-rule="evenodd" d="M214.501 146.073C213.963 139.578 214.704 132.764 212.165 126.601C207.742 116.378 195.48 113.029 185.965 109.18C182.156 108.077 169.36 107.99 164.899 106.527C154.803 103.215 152.373 99.2165 144.401 105.672C143.056 106.774 142.216 107.969 141.608 109.599L141.634 109.606C141.461 110.285 141.654 110.96 142.054 111.475C138.601 115.044 137.178 120.375 138.985 125.091C144.866 137.357 144.63 144.008 142.829 157.24C140.451 169.595 146.065 174.073 155.359 180.738C154.986 181.471 154.913 182.444 155.409 183.086C166.195 198.075 186.418 205.148 203.668 197.416C210.67 194.251 213.763 186.756 215.514 179.998C217.556 172.432 218.152 164.466 216.414 156.779C215.71 153.224 214.799 149.695 214.501 146.073Z" fill="white"/>
<path fill-rule="evenodd" clip-rule="evenodd" d="M152.361 74.4244C153.66 74.2221 154.645 75.0231 155.118 76.1572L155.143 76.2182C155.295 76.6042 155.464 76.9795 155.646 77.3484C158.888 75.7348 163.529 76.1193 165.605 79.3394C167.086 81.6393 166.206 84.3833 165.665 86.8337L165.311 88.4483C166.016 88.8916 166.55 89.6895 166.529 90.5188L166.527 90.5826L166.391 92.8322C166.858 92.354 167.284 91.8338 167.663 91.2802C167.925 90.7947 168.207 90.3176 168.511 89.8552C170.298 87.1337 174.357 89.468 172.886 92.38C172.603 92.9417 172.285 93.4739 171.944 93.9872C171.559 94.744 171.244 95.5213 171.003 96.3194C171.709 96.6221 172.253 97.2996 172.317 98.3264C172.463 100.724 171.214 102.733 169.219 104.001C168.631 104.375 168.023 104.45 167.47 104.315C167.374 104.447 167.278 104.578 167.186 104.712C167.988 105.357 168.712 106.092 169.336 106.909C171.197 106.62 173.07 106.478 174.944 106.464C177.228 105.329 179.971 105.337 182.435 105.744C184.02 106.006 185.545 106.524 187.106 106.894C188.751 107.282 190.42 107.288 192.085 107.549C194.182 107.878 196.026 108.835 197.19 110.374C198.459 110.405 199.797 110.918 200.909 111.617C203.495 113.248 206.067 114.901 208.647 116.542C209.638 117.172 210.011 118.184 209.837 119.316L209.825 119.389L209.741 119.858L209.946 120.146C210.738 121.253 211.602 122.413 212.117 123.637C213.067 124.991 213.926 126.41 214.689 127.875C215.716 129.843 216.566 131.931 217.146 134.075C217.29 134.618 217.435 135.164 217.531 135.717C217.668 136.499 217.467 137.106 217.359 137.857C217.225 138.809 217.179 139.773 217.037 140.727C216.941 141.36 216.406 141.673 215.844 141.693C216.065 143.3 216.226 144.919 216.379 146.524C216.597 148.818 216.75 151.119 216.882 153.42C217.508 154.319 218.782 155.026 219.701 155.268C220.973 155.602 222.301 155.224 223.499 154.785C224.252 154.508 224.876 155.453 224.511 156.089C223.367 158.087 220.895 158.092 219.018 157.221C218.224 156.853 217.526 156.318 217.007 155.619C217.042 156.287 217.08 156.954 217.117 157.624L217.152 158.231C217.572 165.316 218.433 172.642 217.141 179.666C214.903 191.834 204.9 201.144 192.621 201.93C186.178 202.343 180.8 200.468 178.125 199.42C175.45 198.372 176.476 196.2 178.332 196.809C181.529 197.859 187.402 199.415 192.645 198.7C205.004 197.015 215.457 190.774 214.233 164.146C214.06 160.37 213.568 156.594 213.446 152.817C213.329 149.126 213.344 145.431 213.161 141.742L213.1 140.483C213.028 139.012 212.952 137.535 212.834 136.063C212.698 135.493 212.585 134.914 212.419 134.355C211.969 132.834 211.384 131.355 210.66 129.945C210.503 130.067 210.325 130.154 210.133 130.189C208.675 130.459 207.306 130.393 205.935 129.792C205.296 129.514 204.732 129.143 204.205 128.683C203.955 128.467 203.787 128.256 203.655 128.037C202.994 128.051 202.332 127.856 201.915 127.383C201.439 126.844 201.358 126.284 201.54 125.765L201.559 125.713L201.513 125.697C200.963 127.143 199.859 128.42 198.644 129.284C196.725 130.656 194.316 131.062 192.005 131.111C189.454 131.163 186.759 130.785 184.239 130.397C183.573 130.295 182.911 130.178 182.262 130.019C182.236 130.045 182.211 130.074 182.184 130.1C180.034 132.181 176.997 132.73 174.248 131.564C172.66 130.89 171.325 129.798 170.144 128.545C170.13 129.205 170.1 129.864 170.047 130.518L170.024 130.777C169.914 131.994 169.696 133.285 168.783 134.168C167.305 135.599 165.146 135.04 163.428 134.124C163.431 134.168 163.431 134.214 163.431 134.261C163.903 135.831 164.376 137.403 164.849 138.975L164.951 139.31C165.295 140.426 165.672 141.543 165.781 142.713C165.987 144.948 164.512 147.165 162.023 146.428C160.718 146.043 159.668 144.953 158.661 144.08L158.027 143.537C159.69 148.869 160.853 154.394 160.989 159.967C160.997 160.269 160.739 160.498 160.451 160.511C159.78 160.542 159.056 160.413 158.379 160.148C158.341 160.146 158.303 160.144 158.263 160.138C157.108 159.977 156.034 159.567 155.087 158.957C155.308 159.647 155.41 160.389 155.357 161.164C155.343 161.352 155.05 161.42 155.006 161.213C154.447 158.534 151.298 156.524 148.597 157.052C145.697 157.62 143.573 160.13 143.064 162.976C142.519 166.033 143.614 169.559 145.619 171.904C146.542 172.985 147.753 173.885 149.187 174.105C149.843 174.206 150.523 174.166 151.157 173.976C151.427 173.895 151.68 173.781 151.938 173.674C152.313 173.52 152.752 173.495 153.106 173.332C153.909 172.966 154.722 173.703 154.319 174.532C153.968 175.255 153.651 175.743 153.064 176.118C153.545 176.698 153.983 177.507 154.144 177.724C154.97 178.827 155.808 179.869 156.748 180.876C157.704 181.897 158.746 182.831 159.847 183.693L160.31 184.055C161.372 184.887 162.295 185.658 163.047 186.856C163.64 187.802 162.886 189.093 161.785 189.085C158.342 189.055 155.821 186.042 154.024 183.408C153.767 183.031 153.527 182.633 153.303 182.225C153.224 182.354 153.135 182.475 153.037 182.585L153.236 183.112C153.827 184.665 151.321 185.695 150.584 184.247C150.048 183.198 149.428 182.199 148.738 181.256C148.335 181.201 147.938 180.958 147.717 180.642C147.157 179.84 146.529 179.03 145.998 178.175C145.705 177.899 145.404 177.635 145.096 177.377C145.008 177.455 144.917 177.534 144.831 177.617C144.451 178.496 143.98 179.3 143.395 180.057L143.27 180.219C142.148 181.649 140.685 183.114 138.867 183.472C138.312 183.581 137.774 182.893 138.264 182.448C139.531 181.296 141.033 180.508 142.201 179.223C142.776 178.59 143.304 177.893 143.757 177.163L143.86 176.995C143.935 176.869 144.013 176.745 144.092 176.617C143.56 176.258 143.028 175.898 142.495 175.537C141.043 176.793 139.145 177.375 137.536 178.416L137.376 178.522C135.921 179.507 134.372 177.356 135.535 176.163C136.819 174.854 137.887 173.295 139.022 171.842C138.479 170.854 138.218 169.684 138.116 168.502C138.077 168.167 138.046 167.831 138.015 167.497C137.195 167.514 136.369 167.238 135.67 166.757L135.404 166.571C134.559 166.846 133.67 166.981 132.819 166.963C130.816 166.915 129.983 164.631 131.228 163.176C132.498 161.69 134.733 161.354 136.51 162.063C136.567 162.032 136.626 162.001 136.683 161.969C136.596 161.58 136.613 161.227 136.707 160.917L136.678 160.729C136.285 160.132 136.025 159.45 135.924 158.729C135.844 158.158 135.857 157.591 135.986 157.026C136.029 156.838 136.119 156.643 136.188 156.446C136.042 156.083 135.955 155.708 135.927 155.329C135.886 155.282 135.846 155.233 135.807 155.18C134.921 153.949 135.091 152.46 135.922 151.455C135.926 151.392 135.931 151.328 135.939 151.265C135.89 151.155 135.844 151.044 135.803 150.931C134.98 150.11 134.374 149.121 134.48 147.889C134.541 147.165 134.835 146.511 135.283 146.022C135.202 145.786 135.192 145.512 135.288 145.283C134.559 143.375 134.637 141.072 135.142 138.931C135.027 138.606 134.966 138.254 134.976 137.88C135.027 136.292 136.392 134.826 138.019 134.836C138.214 134.837 138.398 134.861 138.574 134.898L138.576 134.86C138.636 134.383 138.765 133.942 138.954 133.546C138.86 133.513 138.772 133.465 138.696 133.4C137.656 133.962 136.556 134.393 135.401 134.689C134.552 134.907 133.675 133.945 134.199 133.144C134.443 132.772 134.712 132.438 135.001 132.132C134.587 132.137 134.166 132.167 133.741 132.224C132.977 132.328 132.12 131.81 131.62 131.107C131.006 131.711 130.39 132.312 129.775 132.914C128.216 134.442 125.841 133.337 125.583 131.335C125.115 131.213 124.679 131.004 124.295 130.704C121.829 131.791 119.172 132.395 116.454 132.522C114.502 132.613 113.349 130.346 114.253 128.734C114.86 127.653 115.615 126.681 116.487 125.835C115.129 126.259 113.726 126.567 112.292 126.767C111.517 126.875 110.417 126.238 110.103 125.528C108.9 122.795 108.986 119.939 110.338 117.267C110.391 117.161 110.449 117.059 110.506 116.957C110.645 116.603 110.798 116.254 110.963 115.911C109.271 114.166 109.111 111.558 110.005 109.37C109.639 108.783 109.496 108.073 109.739 107.429C110.432 105.576 111.437 103.863 112.709 102.389C112.585 102.153 112.476 101.902 112.384 101.632C111.652 99.4487 112.472 96.8043 114.147 95.2713C115.2 94.3059 116.414 93.7244 117.711 93.3495C118.253 92.3785 118.952 91.5018 119.767 90.7618C119.799 90.6919 119.83 90.6219 119.865 90.552C121.128 88.1398 123.445 86.8379 125.934 86.5261C126.026 85.585 126.655 84.6834 127.575 84.3866C127.824 83.5715 128.197 82.7917 128.713 82.083C129.525 80.9668 130.88 80.4351 132.165 81.1573C132.868 81.5528 133.543 82.0078 134.175 82.5115C134.457 82.3773 134.777 82.2897 135.139 82.2603L135.23 82.2542L137.312 82.1371C138.183 81.7455 139.051 81.335 139.921 80.9349C140.443 80.4988 141.026 80.1342 141.663 79.8622C142.383 79.556 143.122 79.3807 143.863 79.3196C144.464 79.1197 145.07 78.9431 145.686 78.8044C147.133 78.4794 148.649 78.2936 150.153 78.3001C150.182 77.9105 150.195 77.5162 150.19 77.1174L150.186 76.9176C150.145 75.6392 151.16 74.6127 152.361 74.4244ZM151.464 176.735C151.257 176.781 151.048 176.818 150.839 176.844C150.904 177 150.968 177.156 151.03 177.312C151.2 177.406 151.371 177.496 151.543 177.58C151.491 177.293 151.459 177.004 151.464 176.735ZM140.592 173.568L140.453 173.827C140.431 173.87 140.409 173.912 140.387 173.954C140.685 173.928 140.985 173.933 141.28 173.966L141.28 173.934C141.241 173.921 141.203 173.909 141.167 173.892C140.962 173.794 140.772 173.687 140.592 173.568ZM146.394 161.731C148.263 161.83 149.848 162.108 151.553 162.917L151.699 162.987C153.205 163.725 155.698 165.089 155.499 167.066C155.443 167.629 155.039 168.223 154.396 168.182C152.635 168.071 151.62 166.302 150.422 165.201C149.214 164.092 147.731 162.952 146.271 162.193C146.065 162.086 146.144 161.744 146.368 161.732L146.394 161.731ZM137.774 135.742C137.327 135.759 137.479 136.194 137.707 135.829C137.726 135.8 137.749 135.77 137.774 135.742ZM161.791 106.544C157.549 106.679 153.294 109.208 150.13 111.758C147.378 113.977 145.006 116.611 142.907 119.447C142.371 120.857 141.912 122.295 141.526 123.744C141.271 124.701 141.114 125.668 140.902 126.633L140.836 126.928C140.666 127.249 140.541 127.593 140.451 127.949C140.838 128.333 141.339 128.607 141.89 128.736C142.068 128.777 142.215 128.868 142.332 128.988C142.771 128.247 143.154 127.464 143.375 126.636L143.383 126.597C144.226 125.198 145.143 123.842 146.127 122.531C148.841 118.913 151.833 115.612 155.437 112.859C158.17 110.773 161.229 109.133 164.485 108.06C163.683 107.42 162.774 106.915 161.791 106.544Z" fill="black"/>
<path fill-rule="evenodd" clip-rule="evenodd" d="M195.295 184.893C193.872 184.32 192.6 183.36 191.666 182.131C191.342 181.703 191.256 181.251 191.321 180.835C191.394 180.369 191.668 179.944 192.042 179.659C192.418 179.372 192.889 179.23 193.345 179.299C193.743 179.359 194.138 179.574 194.453 180.022L194.519 180.112C195.074 180.855 195.794 181.462 196.615 181.851C197.405 182.227 198.288 182.4 199.199 182.292C200.936 182.086 202.128 181.139 203.394 179.856C203.551 179.694 203.708 179.526 203.865 179.357C203.964 179.203 204.104 179.104 204.257 179.051C204.428 178.993 204.622 178.995 204.8 179.056C204.972 179.115 205.125 179.227 205.229 179.378C205.327 179.521 205.384 179.698 205.367 179.901C205.257 181.225 204.573 182.409 203.596 183.342C202.511 184.377 201.068 185.098 199.709 185.354C198.211 185.639 196.682 185.45 195.295 184.893ZM200.302 164.457C201.902 165.418 204.346 167.667 202.643 170.081C200.634 172.213 197.712 169.797 196.273 168.706C194.94 167.861 193.458 170.06 194.696 171.049C205.095 178.663 209.222 164.662 201.103 163.311C200.208 163.163 199.882 164.159 200.302 164.457ZM181.693 155.636C181.857 153.446 185.186 152.931 185.53 155.095C185.837 157.033 185.498 158.817 184.633 160.569C183.808 162.242 181.706 161.475 181.539 159.957C181.315 157.921 181.591 156.998 181.693 155.636ZM207.052 154.527C207.514 153.916 208.183 153.497 208.987 153.727C211.502 154.447 210.782 158.017 209.909 159.758C209.435 160.703 207.888 160.951 207.183 160.125C206.035 158.777 205.474 156.078 206.916 154.736C206.956 154.667 207 154.598 207.052 154.527ZM184.518 146.042L184.915 145.971C186.141 145.752 187.665 145.539 188.538 146.521C189.002 147.042 189.165 148.014 188.549 148.518C187.466 149.406 186.26 149.071 184.956 149.152C183.882 149.22 182.85 149.404 181.816 149.705C179.548 150.367 177.704 151.563 175.771 152.876C175.518 153.048 175.256 152.724 175.376 152.485C176.483 150.284 178.644 148.47 180.811 147.359C181.969 146.766 183.236 146.273 184.518 146.042ZM204.711 144.948L205.015 145.009C208.323 145.681 212.622 147.038 214.204 150.275C214.267 150.734 214.204 150.833 214.153 150.897L214.137 150.919C214.094 150.974 214.061 151.05 213.863 151.113C213.808 151.1 213.751 151.087 213.695 151.072C212.976 150.888 212.408 150.632 211.857 150.367L211.26 150.076C210.567 149.741 209.868 149.419 209.128 149.182C207.549 148.676 205.925 148.322 204.278 148.138C203.921 148.098 203.576 147.979 203.304 147.774C203.046 147.58 202.848 147.309 202.756 146.949C202.637 146.483 202.669 146.129 202.917 145.707C203.103 145.389 203.372 145.169 203.68 145.041C203.994 144.911 204.353 144.879 204.711 144.948Z" fill="black"/>
<path fill-rule="evenodd" clip-rule="evenodd" d="M204.906 188.091C202.929 186.349 200.704 182.836 197.893 185.64C197.199 186.432 196.924 188.201 195.857 188.554C194.441 189.021 193.026 187.527 192.535 186.376C190.52 179.975 198.694 178.171 203.361 179.181C205.644 180.105 207.342 183.861 207.455 185.827C207.527 187.146 206.42 189.095 204.906 188.091ZM219.695 178.127C219.676 178.042 219.648 177.965 219.615 177.896C218.743 177.571 218.057 177.91 217.635 178.54C217.649 178.695 217.697 178.853 217.727 179.007C217.403 179.701 217.111 180.558 216.67 181.159C216.582 181.166 216.491 181.158 216.403 181.132C209.031 181.944 212.59 174.204 205.098 172.327C199.31 171.405 188.864 172.556 186.169 178.592C184.07 188.222 173.094 181.581 169.474 176.599C165.616 172.067 163.108 166.518 160.689 161.134C160.178 159.994 158.606 160.819 158.783 161.914C156.6 166.359 156.702 171.682 156.182 176.541C155.305 186.233 154.473 199.823 163.503 205.688C175.298 218.879 204.596 223.395 218.05 211.142C222.675 201.049 222.03 188.773 219.695 178.127Z" fill="black"/>
<path fill-rule="evenodd" clip-rule="evenodd" d="M218.126 166.251C216.713 168.17 214.08 168.793 211.647 168.596C206.398 168.12 204.714 162.169 204.517 157.537C208.04 158.508 204.186 151.518 216.207 150.681C220.444 150.304 219.289 152.872 221.173 154.733C221.155 158.66 220.526 162.93 218.126 166.251ZM193.114 161.875C190.097 176.402 173.119 173.043 171.265 159.974C172.903 158.803 172.454 155.938 174.493 154.887C177.72 152.799 181.77 152.866 185.448 152.894C190.152 153.191 191.502 155.132 193.929 157.245C193.821 158.665 193.495 160.35 193.114 161.875ZM224.745 148.231C224.571 148.203 224.397 148.176 224.222 148.152C224.086 148.075 223.927 148.017 223.74 147.982C223.317 147.877 222.895 147.807 222.475 147.77C216.44 146.446 202.506 148.45 201.959 153.599C200.043 154.25 198.378 153.685 196.154 153.755C194.422 146.683 165.15 147.844 163.765 152.12C163.759 152.119 163.754 152.118 163.748 152.116C162.394 151.705 160.4 151.817 158.85 151.759C155.544 151.708 152.235 152.021 149.004 152.736C142.951 153.733 134.689 154.906 138.944 162.45L138.947 162.454L138.948 162.453C139.678 163.194 140.907 162.588 140.947 161.579C139.511 158.002 142.708 157.555 145.164 156.51C151.277 154.275 157.511 153.936 163.85 154.582C164.33 155.141 165.056 155.626 165.821 155.878C170.061 156.558 167.846 159.713 170.526 160.156C170.094 171.115 183.425 177.023 191.089 169.778C194.149 166.753 194.858 162.291 195.549 158.27C195.925 158.183 196.164 157.975 196.303 157.702C197.205 156.791 197.77 155.951 199.562 155.692C201.354 155.434 202.738 155.925 202.925 156.077C202.972 156.172 203.024 156.267 203.083 156.361C203.166 156.503 203.278 156.615 203.405 156.704C201.694 167.624 210.199 174.477 218.716 168.771C222.411 165.256 223.165 159.901 223.295 155.124C223.796 154.817 224.112 154.226 223.933 153.487C223.687 152.467 224.246 151.58 225.141 151.132C226.303 150.549 226.085 148.445 224.745 148.231Z" fill="black"/>
<path d="M393.999 106.449L234.999 180.449C309.332 155.783 465.069 124.218 515.999 101C584 70 578.182 44.4493 557 26C530.5 2.91953 404.5 -4.00002 332.5 5.99999C276.151 13.8263 255.473 26.8986 250.999 44.4493C246.525 62 248.199 78.4 284.999 92C321.799 105.6 380.999 109.116 393.999 106.449Z" stroke="black" stroke-width="3"/>
<g filter="url(#filter0_d_17_2)">
<path d="M275.134 60L277.428 46.1818H281.685C282.558 46.1818 283.277 46.3617 283.844 46.7216C284.415 47.0769 284.818 47.5695 285.052 48.1992C285.286 48.8245 285.335 49.5374 285.2 50.3381C285.07 51.1297 284.784 51.8382 284.343 52.4634C283.903 53.0887 283.338 53.5835 282.65 53.9478C281.962 54.3076 281.181 54.4876 280.309 54.4876H276.638L276.773 53.7049H280.423C281.129 53.7049 281.759 53.561 282.312 53.2731C282.866 52.9807 283.318 52.5826 283.669 52.0788C284.024 51.5705 284.256 50.9903 284.364 50.3381C284.472 49.6768 284.433 49.0943 284.249 48.5906C284.065 48.0823 283.743 47.6842 283.284 47.3963C282.825 47.1084 282.241 46.9645 281.53 46.9645H278.136L275.977 60H275.134ZM289.252 60.2227C288.654 60.2227 288.125 60.1035 287.666 59.8651C287.212 59.6267 286.872 59.2781 286.648 58.8192C286.423 58.3604 286.362 57.8027 286.465 57.146C286.542 56.7141 286.684 56.334 286.89 56.0057C287.097 55.6773 287.381 55.3939 287.741 55.1555C288.1 54.9171 288.541 54.7215 289.063 54.5685C289.589 54.4111 290.203 54.2897 290.905 54.2042C291.445 54.1412 291.926 54.0782 292.349 54.0153C292.772 53.9523 293.114 53.8556 293.374 53.7251C293.635 53.5947 293.788 53.399 293.833 53.1381L293.901 52.7063C294.027 51.9551 293.898 51.3569 293.516 50.9116C293.134 50.4618 292.524 50.2369 291.688 50.2369C290.95 50.2369 290.289 50.4033 289.704 50.7362C289.119 51.0645 288.683 51.4806 288.395 51.9844L287.68 51.6942C287.959 51.1995 288.312 50.7879 288.739 50.4595C289.171 50.1312 289.643 49.886 290.156 49.7241C290.673 49.5621 291.2 49.4812 291.735 49.4812C292.198 49.4812 292.63 49.5464 293.03 49.6768C293.431 49.8073 293.773 50.0052 294.056 50.2706C294.344 50.536 294.548 50.8756 294.67 51.2894C294.796 51.6987 294.809 52.189 294.71 52.7603L293.509 60H292.686L293.003 58.131H292.943C292.7 58.5179 292.394 58.871 292.025 59.1903C291.661 59.5052 291.245 59.7571 290.777 59.946C290.309 60.1304 289.801 60.2227 289.252 60.2227ZM289.407 59.4602C290.055 59.4602 290.658 59.3028 291.215 58.9879C291.778 58.6686 292.25 58.2322 292.632 57.679C293.019 57.1257 293.269 56.4982 293.381 55.7965L293.644 54.2717C293.523 54.3616 293.359 54.4426 293.152 54.5146C292.945 54.582 292.713 54.6428 292.457 54.6967C292.205 54.7462 291.942 54.7912 291.667 54.8317C291.398 54.8677 291.134 54.9014 290.878 54.9329C290.109 55.0228 289.472 55.1623 288.969 55.3512C288.465 55.5356 288.076 55.7785 287.801 56.0799C287.531 56.3813 287.358 56.7456 287.282 57.1729C287.169 57.8791 287.313 58.4369 287.714 58.8462C288.118 59.2556 288.683 59.4602 289.407 59.4602ZM306.569 45.75L306.919 46.2965C306.627 46.5484 306.287 46.7126 305.901 46.7891C305.514 46.8655 305.098 46.906 304.652 46.9105C304.207 46.915 303.746 46.9308 303.269 46.9577C302.388 47.0027 301.63 47.2456 300.995 47.6864C300.361 48.1228 299.835 48.739 299.417 49.5352C298.998 50.3313 298.67 51.2894 298.431 52.4094H298.553C299.03 51.6358 299.614 51.0353 300.307 50.608C301 50.1761 301.742 49.9602 302.534 49.9602C303.321 49.9602 304 50.1604 304.571 50.5607C305.147 50.9566 305.561 51.5391 305.813 52.3082C306.065 53.0729 306.098 54.0063 305.914 55.1083C305.743 56.1384 305.424 57.038 304.956 57.8072C304.493 58.5719 303.906 59.1656 303.195 59.5884C302.489 60.0067 301.688 60.2159 300.793 60.2159C299.929 60.2159 299.198 60.0067 298.6 59.5884C298.002 59.1701 297.579 58.5629 297.332 57.7667C297.084 56.9705 297.055 56.0057 297.244 54.8722L297.419 53.7994C297.838 51.2804 298.521 49.398 299.471 48.152C300.424 46.906 301.706 46.2493 303.316 46.1818C303.784 46.1593 304.216 46.1526 304.612 46.1616C305.012 46.1706 305.374 46.1503 305.698 46.1009C306.027 46.0514 306.317 45.9344 306.569 45.75ZM300.874 59.4535C301.621 59.4535 302.284 59.2713 302.864 58.907C303.449 58.5426 303.933 58.0276 304.315 57.3619C304.697 56.6961 304.963 55.9135 305.111 55.0138C305.264 54.1097 305.239 53.3383 305.037 52.6996C304.839 52.0563 304.506 51.5661 304.038 51.2287C303.571 50.8913 303.008 50.7227 302.352 50.7227C301.785 50.7227 301.259 50.8441 300.773 51.087C300.287 51.3299 299.855 51.6605 299.477 52.0788C299.099 52.4972 298.785 52.9717 298.533 53.5025C298.285 54.0288 298.112 54.5775 298.013 55.1488C297.797 56.4847 297.957 57.5373 298.492 58.3065C299.027 59.0711 299.821 59.4535 300.874 59.4535ZM311.818 60.2159C310.954 60.2159 310.223 59.9843 309.625 59.521C309.031 59.0531 308.608 58.4099 308.357 57.5913C308.105 56.7726 308.066 55.837 308.242 54.7844C308.413 53.7589 308.75 52.848 309.254 52.0518C309.762 51.2512 310.383 50.6237 311.116 50.1694C311.849 49.7106 312.636 49.4812 313.478 49.4812C314.346 49.4812 315.077 49.7173 315.67 50.1896C316.269 50.6574 316.694 51.3029 316.946 52.1261C317.198 52.9447 317.24 53.8781 317.074 54.9261C316.903 55.9472 316.561 56.8581 316.048 57.6587C315.54 58.4549 314.919 59.0801 314.186 59.5344C313.453 59.9888 312.663 60.2159 311.818 60.2159ZM311.831 59.4535C312.569 59.4535 313.248 59.2466 313.869 58.8327C314.49 58.4189 315.009 57.8589 315.428 57.1527C315.85 56.4465 316.132 55.6571 316.271 54.7844C316.41 53.9388 316.39 53.1741 316.21 52.4904C316.03 51.8022 315.709 51.2579 315.245 50.8576C314.782 50.4528 314.195 50.2504 313.484 50.2504C312.751 50.2504 312.072 50.4595 311.447 50.8778C310.826 51.2962 310.304 51.8584 309.881 52.5646C309.459 53.2708 309.177 54.058 309.038 54.9261C308.894 55.7673 308.912 56.532 309.092 57.2202C309.276 57.9039 309.6 58.4482 310.064 58.853C310.531 59.2533 311.121 59.4535 311.831 59.4535ZM319.236 50.419L319.365 49.6364H327.137L327.009 50.419H323.555L321.996 60H321.18L322.738 50.419H319.236ZM330.332 60.2227C329.734 60.2227 329.205 60.1035 328.746 59.8651C328.292 59.6267 327.953 59.2781 327.728 58.8192C327.503 58.3604 327.442 57.8027 327.545 57.146C327.622 56.7141 327.764 56.334 327.971 56.0057C328.177 55.6773 328.461 55.3939 328.821 55.1555C329.181 54.9171 329.621 54.7215 330.143 54.5685C330.669 54.4111 331.283 54.2897 331.985 54.2042C332.525 54.1412 333.006 54.0782 333.429 54.0153C333.852 53.9523 334.194 53.8556 334.455 53.7251C334.715 53.5947 334.868 53.399 334.913 53.1381L334.981 52.7063C335.107 51.9551 334.979 51.3569 334.596 50.9116C334.214 50.4618 333.604 50.2369 332.768 50.2369C332.03 50.2369 331.369 50.4033 330.784 50.7362C330.199 51.0645 329.763 51.4806 329.475 51.9844L328.76 51.6942C329.039 51.1995 329.392 50.7879 329.819 50.4595C330.251 50.1312 330.723 49.886 331.236 49.7241C331.753 49.5621 332.28 49.4812 332.815 49.4812C333.278 49.4812 333.71 49.5464 334.11 49.6768C334.511 49.8073 334.853 50.0052 335.136 50.2706C335.424 50.536 335.629 50.8756 335.75 51.2894C335.876 51.6987 335.889 52.189 335.79 52.7603L334.589 60H333.766L334.083 58.131H334.023C333.78 58.5179 333.474 58.871 333.105 59.1903C332.741 59.5052 332.325 59.7571 331.857 59.946C331.389 60.1304 330.881 60.2227 330.332 60.2227ZM330.487 59.4602C331.135 59.4602 331.738 59.3028 332.295 58.9879C332.858 58.6686 333.33 58.2322 333.712 57.679C334.099 57.1257 334.349 56.4982 334.461 55.7965L334.724 54.2717C334.603 54.3616 334.439 54.4426 334.232 54.5146C334.025 54.582 333.793 54.6428 333.537 54.6967C333.285 54.7462 333.022 54.7912 332.748 54.8317C332.478 54.8677 332.214 54.9014 331.958 54.9329C331.189 55.0228 330.552 55.1623 330.049 55.3512C329.545 55.5356 329.156 55.7785 328.881 56.0799C328.612 56.3813 328.438 56.7456 328.362 57.1729C328.249 57.8791 328.393 58.4369 328.794 58.8462C329.199 59.2556 329.763 59.4602 330.487 59.4602ZM342.055 60.2159C341.12 60.2159 340.344 59.9843 339.727 59.521C339.111 59.0576 338.682 58.4234 338.439 57.6183C338.196 56.8131 338.16 55.8955 338.331 54.8654C338.502 53.8308 338.844 52.9087 339.356 52.0991C339.869 51.2894 340.497 50.6507 341.239 50.1829C341.981 49.7151 342.782 49.4812 343.641 49.4812C344.221 49.4812 344.75 49.5981 345.226 49.832C345.708 50.0659 346.113 50.401 346.441 50.8374C346.769 51.2692 346.996 51.7932 347.122 52.4094C347.248 53.0257 347.248 53.7184 347.122 54.4876L347.028 55.0004H338.823L338.952 54.2514H346.326C346.452 53.5047 346.416 52.83 346.218 52.2273C346.02 51.62 345.692 51.1387 345.233 50.7834C344.779 50.428 344.221 50.2504 343.56 50.2504C342.885 50.2504 342.242 50.446 341.63 50.8374C341.023 51.2242 340.501 51.7415 340.065 52.3892C339.633 53.0369 339.345 53.7499 339.201 54.5281L339.12 54.9464C338.976 55.837 338.994 56.6219 339.174 57.3011C339.359 57.9759 339.7 58.5044 340.2 58.8867C340.699 59.2646 341.351 59.4535 342.156 59.4535C342.719 59.4535 343.218 59.359 343.654 59.1701C344.095 58.9767 344.468 58.7428 344.774 58.4684C345.085 58.194 345.328 57.9286 345.503 57.6722L346.184 57.9759C345.978 58.3222 345.681 58.6686 345.294 59.0149C344.907 59.3568 344.441 59.6424 343.897 59.8718C343.353 60.1012 342.739 60.2159 342.055 60.2159ZM349.61 50.419L349.739 49.6364H357.511L357.383 50.419H353.929L352.37 60H351.554L353.112 50.419H349.61ZM362.054 62.935L362.675 59.2173H363.572C363.851 58.9339 364.109 58.6303 364.348 58.3065C364.586 57.9781 364.807 57.616 365.009 57.2202C365.211 56.8198 365.4 56.3723 365.576 55.8775C365.756 55.3782 365.922 54.8204 366.075 54.2042L367.229 49.6364H372.91L371.338 59.2173H372.822L372.202 62.935H371.385L371.857 60H363.349L362.87 62.935H362.054ZM364.564 59.2173H370.521L371.965 50.419H367.856L366.885 54.2042C366.597 55.3152 366.275 56.2688 365.92 57.065C365.565 57.8612 365.113 58.5786 364.564 59.2173ZM377.851 60.2227C377.252 60.2227 376.724 60.1035 376.265 59.8651C375.811 59.6267 375.471 59.2781 375.246 58.8192C375.021 58.3604 374.961 57.8027 375.064 57.146C375.14 56.7141 375.282 56.334 375.489 56.0057C375.696 55.6773 375.979 55.3939 376.339 55.1555C376.699 54.9171 377.14 54.7215 377.662 54.5685C378.188 54.4111 378.802 54.2897 379.504 54.2042C380.043 54.1412 380.525 54.0782 380.948 54.0153C381.37 53.9523 381.712 53.8556 381.973 53.7251C382.234 53.5947 382.387 53.399 382.432 53.1381L382.499 52.7063C382.625 51.9551 382.497 51.3569 382.115 50.9116C381.732 50.4618 381.123 50.2369 380.286 50.2369C379.549 50.2369 378.887 50.4033 378.303 50.7362C377.718 51.0645 377.282 51.4806 376.994 51.9844L376.278 51.6942C376.557 51.1995 376.91 50.7879 377.338 50.4595C377.77 50.1312 378.242 49.886 378.755 49.7241C379.272 49.5621 379.798 49.4812 380.334 49.4812C380.797 49.4812 381.229 49.5464 381.629 49.6768C382.029 49.8073 382.371 50.0052 382.655 50.2706C382.942 50.536 383.147 50.8756 383.269 51.2894C383.395 51.6987 383.408 52.189 383.309 52.7603L382.108 60H381.285L381.602 58.131H381.541C381.298 58.5179 380.993 58.871 380.624 59.1903C380.259 59.5052 379.843 59.7571 379.375 59.946C378.908 60.1304 378.399 60.2227 377.851 60.2227ZM378.006 59.4602C378.653 59.4602 379.256 59.3028 379.814 58.9879C380.376 58.6686 380.849 58.2322 381.231 57.679C381.618 57.1257 381.867 56.4982 381.98 55.7965L382.243 54.2717C382.122 54.3616 381.957 54.4426 381.75 54.5146C381.544 54.582 381.312 54.6428 381.055 54.6967C380.804 54.7462 380.54 54.7912 380.266 54.8317C379.996 54.8677 379.733 54.9014 379.477 54.9329C378.707 55.0228 378.071 55.1623 377.567 55.3512C377.063 55.5356 376.674 55.7785 376.4 56.0799C376.13 56.3813 375.957 56.7456 375.88 57.1729C375.768 57.8791 375.912 58.4369 376.312 58.8462C376.717 59.2556 377.282 59.4602 378.006 59.4602ZM384.898 60L390.707 54.7912L386.693 49.6364H387.705L391.402 54.4201H391.956L392.758 49.6364H393.575L392.779 54.4201H393.271L398.561 49.6364H399.634L393.899 54.7912L397.974 60H396.962L393.197 55.2028H392.657L391.848 60H391.031L391.841 55.2028H391.355L385.984 60H384.898ZM404.343 60.2159C403.408 60.2159 402.632 59.9843 402.016 59.521C401.399 59.0576 400.97 58.4234 400.727 57.6183C400.484 56.8131 400.448 55.8955 400.619 54.8654C400.79 53.8308 401.132 52.9087 401.644 52.0991C402.157 51.2894 402.785 50.6507 403.527 50.1829C404.269 49.7151 405.07 49.4812 405.929 49.4812C406.509 49.4812 407.038 49.5981 407.514 49.832C407.996 50.0659 408.401 50.401 408.729 50.8374C409.057 51.2692 409.284 51.7932 409.41 52.4094C409.536 53.0257 409.536 53.7184 409.41 54.4876L409.316 55.0004H401.111L401.24 54.2514H408.614C408.74 53.5047 408.704 52.83 408.506 52.2273C408.308 51.62 407.98 51.1387 407.521 50.7834C407.067 50.428 406.509 50.2504 405.848 50.2504C405.173 50.2504 404.53 50.446 403.918 50.8374C403.311 51.2242 402.789 51.7415 402.353 52.3892C401.921 53.0369 401.633 53.7499 401.489 54.5281L401.408 54.9464C401.264 55.837 401.282 56.6219 401.462 57.3011C401.647 57.9759 401.989 58.5044 402.488 58.8867C402.987 59.2646 403.639 59.4535 404.445 59.4535C405.007 59.4535 405.506 59.359 405.942 59.1701C406.383 58.9767 406.757 58.7428 407.062 58.4684C407.373 58.194 407.616 57.9286 407.791 57.6722L408.473 57.9759C408.266 58.3222 407.969 58.6686 407.582 59.0149C407.195 59.3568 406.73 59.6424 406.185 59.8718C405.641 60.1012 405.027 60.2159 404.343 60.2159ZM424.657 54.4336L424.529 55.2163H418.065L418.187 54.4336H424.657ZM419.212 49.6364L417.499 60H416.675L418.396 49.6364H419.212ZM426.013 49.6364L424.3 60H423.477L425.197 49.6364H426.013ZM430.472 60.2227C429.873 60.2227 429.345 60.1035 428.886 59.8651C428.432 59.6267 428.092 59.2781 427.867 58.8192C427.642 58.3604 427.582 57.8027 427.685 57.146C427.762 56.7141 427.903 56.334 428.11 56.0057C428.317 55.6773 428.6 55.3939 428.96 55.1555C429.32 54.9171 429.761 54.7215 430.283 54.5685C430.809 54.4111 431.423 54.2897 432.125 54.2042C432.665 54.1412 433.146 54.0782 433.569 54.0153C433.991 53.9523 434.333 53.8556 434.594 53.7251C434.855 53.5947 435.008 53.399 435.053 53.1381L435.12 52.7063C435.246 51.9551 435.118 51.3569 434.736 50.9116C434.354 50.4618 433.744 50.2369 432.907 50.2369C432.17 50.2369 431.508 50.4033 430.924 50.7362C430.339 51.0645 429.903 51.4806 429.615 51.9844L428.9 51.6942C429.178 51.1995 429.532 50.7879 429.959 50.4595C430.391 50.1312 430.863 49.886 431.376 49.7241C431.893 49.5621 432.419 49.4812 432.955 49.4812C433.418 49.4812 433.85 49.5464 434.25 49.6768C434.65 49.8073 434.992 50.0052 435.276 50.2706C435.564 50.536 435.768 50.8756 435.89 51.2894C436.016 51.6987 436.029 52.189 435.93 52.7603L434.729 60H433.906L434.223 58.131H434.162C433.919 58.5179 433.614 58.871 433.245 59.1903C432.88 59.5052 432.464 59.7571 431.997 59.946C431.529 60.1304 431.02 60.2227 430.472 60.2227ZM430.627 59.4602C431.275 59.4602 431.877 59.3028 432.435 58.9879C432.997 58.6686 433.47 58.2322 433.852 57.679C434.239 57.1257 434.488 56.4982 434.601 55.7965L434.864 54.2717C434.743 54.3616 434.578 54.4426 434.372 54.5146C434.165 54.582 433.933 54.6428 433.677 54.6967C433.425 54.7462 433.162 54.7912 432.887 54.8317C432.617 54.8677 432.354 54.9014 432.098 54.9329C431.329 55.0228 430.692 55.1623 430.188 55.3512C429.685 55.5356 429.295 55.7785 429.021 56.0799C428.751 56.3813 428.578 56.7456 428.502 57.1729C428.389 57.8791 428.533 58.4369 428.933 58.8462C429.338 59.2556 429.903 59.4602 430.627 59.4602ZM444.462 50.419L444.59 49.6364H452.363L452.235 50.419H448.78L447.222 60H446.405L447.964 50.419H444.462ZM456.853 60.2159C455.917 60.2159 455.142 59.9843 454.525 59.521C453.909 59.0576 453.479 58.4234 453.237 57.6183C452.994 56.8131 452.958 55.8955 453.129 54.8654C453.3 53.8308 453.641 52.9087 454.154 52.0991C454.667 51.2894 455.294 50.6507 456.037 50.1829C456.779 49.7151 457.58 49.4812 458.439 49.4812C459.019 49.4812 459.547 49.5981 460.024 49.832C460.506 50.0659 460.91 50.401 461.239 50.8374C461.567 51.2692 461.794 51.7932 461.92 52.4094C462.046 53.0257 462.046 53.7184 461.92 54.4876L461.826 55.0004H453.621L453.749 54.2514H461.124C461.25 53.5047 461.214 52.83 461.016 52.2273C460.818 51.62 460.49 51.1387 460.031 50.7834C459.577 50.428 459.019 50.2504 458.358 50.2504C457.683 50.2504 457.04 50.446 456.428 50.8374C455.821 51.2242 455.299 51.7415 454.863 52.3892C454.431 53.0369 454.143 53.7499 453.999 54.5281L453.918 54.9464C453.774 55.837 453.792 56.6219 453.972 57.3011C454.156 57.9759 454.498 58.5044 454.998 58.8867C455.497 59.2646 456.149 59.4535 456.954 59.4535C457.517 59.4535 458.016 59.359 458.452 59.1701C458.893 58.9767 459.266 58.7428 459.572 58.4684C459.883 58.194 460.125 57.9286 460.301 57.6722L460.982 57.9759C460.775 58.3222 460.479 58.6686 460.092 59.0149C459.705 59.3568 459.239 59.6424 458.695 59.8718C458.151 60.1012 457.537 60.2159 456.853 60.2159ZM462.728 60L462.863 59.2173H463.133C463.56 59.2173 463.909 59.1431 464.179 58.9947C464.453 58.8462 464.68 58.6011 464.86 58.2592C465.045 57.9129 465.211 57.4541 465.36 56.8828C465.512 56.3071 465.679 55.5941 465.859 54.744L466.965 49.6364H473.227L471.499 60H470.683L472.275 50.419H467.606L466.621 54.9599C466.446 55.7965 466.268 56.5297 466.088 57.1594C465.913 57.7892 465.701 58.3155 465.454 58.7383C465.211 59.1566 464.898 59.4715 464.516 59.6829C464.134 59.8943 463.646 60 463.052 60H462.728ZM478.97 60.2159C478.035 60.2159 477.259 59.9843 476.642 59.521C476.026 59.0576 475.597 58.4234 475.354 57.6183C475.111 56.8131 475.075 55.8955 475.246 54.8654C475.417 53.8308 475.759 52.9087 476.271 52.0991C476.784 51.2894 477.412 50.6507 478.154 50.1829C478.896 49.7151 479.697 49.4812 480.556 49.4812C481.136 49.4812 481.665 49.5981 482.141 49.832C482.623 50.0659 483.028 50.401 483.356 50.8374C483.684 51.2692 483.911 51.7932 484.037 52.4094C484.163 53.0257 484.163 53.7184 484.037 54.4876L483.943 55.0004H475.738L475.867 54.2514H483.241C483.367 53.5047 483.331 52.83 483.133 52.2273C482.935 51.62 482.607 51.1387 482.148 50.7834C481.694 50.428 481.136 50.2504 480.475 50.2504C479.8 50.2504 479.157 50.446 478.545 50.8374C477.938 51.2242 477.416 51.7415 476.98 52.3892C476.548 53.0369 476.26 53.7499 476.116 54.5281L476.035 54.9464C475.891 55.837 475.909 56.6219 476.089 57.3011C476.274 57.9759 476.616 58.5044 477.115 58.8867C477.614 59.2646 478.266 59.4535 479.071 59.4535C479.634 59.4535 480.133 59.359 480.569 59.1701C481.01 58.9767 481.383 58.7428 481.689 58.4684C482 58.194 482.243 57.9286 482.418 57.6722L483.1 57.9759C482.893 58.3222 482.596 58.6686 482.209 59.0149C481.822 59.3568 481.357 59.6424 480.812 59.8718C480.268 60.1012 479.654 60.2159 478.97 60.2159ZM489.946 63.5355L492.807 46.1818H493.623L490.763 63.5355H489.946ZM490.486 60.2159C489.766 60.2159 489.116 60.081 488.536 59.8111C487.96 59.5412 487.479 59.1656 487.092 58.6843C486.71 58.1985 486.442 57.6317 486.289 56.984C486.136 56.3318 486.123 55.6278 486.249 54.8722C486.375 54.1075 486.62 53.399 486.984 52.7468C487.353 52.0946 487.81 51.5256 488.354 51.0398C488.898 50.554 489.503 50.1761 490.169 49.9062C490.839 49.6364 491.539 49.5014 492.267 49.5014H492.503L490.722 60.2159H490.486ZM490.621 59.4535H490.749L492.26 50.2638H492.132C491.503 50.2638 490.904 50.3853 490.338 50.6282C489.771 50.8711 489.26 51.204 488.806 51.6268C488.352 52.0496 487.974 52.5399 487.672 53.0977C487.371 53.6509 487.169 54.2424 487.065 54.8722C486.926 55.7043 486.982 56.4667 487.234 57.1594C487.49 57.8522 487.909 58.4077 488.489 58.826C489.069 59.2443 489.78 59.4535 490.621 59.4535ZM491.302 60.2159H491.073L492.854 49.5014H493.084C493.812 49.5014 494.465 49.6364 495.04 49.9062C495.616 50.1761 496.095 50.554 496.477 51.0398C496.864 51.5256 497.132 52.0946 497.28 52.7468C497.433 53.399 497.447 54.1075 497.321 54.8722C497.199 55.6278 496.954 56.3318 496.585 56.984C496.217 57.6317 495.758 58.1985 495.209 58.6843C494.665 59.1656 494.06 59.5412 493.394 59.8111C492.728 60.081 492.031 60.2159 491.302 60.2159ZM491.437 59.4535C492.067 59.4535 492.663 59.3343 493.225 59.0959C493.792 58.853 494.303 58.5201 494.757 58.0973C495.211 57.6745 495.589 57.1864 495.89 56.6332C496.196 56.0799 496.401 55.4929 496.504 54.8722C496.639 54.0355 496.579 53.2686 496.322 52.5714C496.07 51.8742 495.654 51.3164 495.074 50.8981C494.498 50.4753 493.79 50.2638 492.949 50.2638H492.827L491.316 59.4535H491.437ZM503.172 60.2159C502.309 60.2159 501.578 59.9843 500.979 59.521C500.386 59.0531 499.963 58.4099 499.711 57.5913C499.459 56.7726 499.421 55.837 499.596 54.7844C499.767 53.7589 500.105 52.848 500.608 52.0518C501.117 51.2512 501.737 50.6237 502.471 50.1694C503.204 49.7106 503.991 49.4812 504.832 49.4812C505.7 49.4812 506.431 49.7173 507.025 50.1896C507.623 50.6574 508.048 51.3029 508.3 52.1261C508.552 52.9447 508.595 53.8781 508.428 54.9261C508.257 55.9472 507.916 56.8581 507.403 57.6587C506.895 58.4549 506.274 59.0801 505.541 59.5344C504.807 59.9888 504.018 60.2159 503.172 60.2159ZM503.186 59.4535C503.924 59.4535 504.603 59.2466 505.223 58.8327C505.844 58.4189 506.364 57.8589 506.782 57.1527C507.205 56.4465 507.486 55.6571 507.625 54.7844C507.765 53.9388 507.745 53.1741 507.565 52.4904C507.385 51.8022 507.063 51.2579 506.6 50.8576C506.137 50.4528 505.55 50.2504 504.839 50.2504C504.106 50.2504 503.426 50.4595 502.801 50.8778C502.18 51.2962 501.659 51.8584 501.236 52.5646C500.813 53.2708 500.532 54.058 500.392 54.9261C500.249 55.7673 500.267 56.532 500.446 57.2202C500.631 57.9039 500.955 58.4482 501.418 58.853C501.886 59.2533 502.475 59.4535 503.186 59.4535ZM518.396 54.4336L518.267 55.2163H511.804L511.925 54.4336H518.396ZM512.951 49.6364L511.237 60H510.414L512.134 49.6364H512.951ZM519.752 49.6364L518.038 60H517.215L518.935 49.6364H519.752ZM524.21 60.2227C523.612 60.2227 523.083 60.1035 522.624 59.8651C522.17 59.6267 521.83 59.2781 521.606 58.8192C521.381 58.3604 521.32 57.8027 521.423 57.146C521.5 56.7141 521.642 56.334 521.848 56.0057C522.055 55.6773 522.339 55.3939 522.699 55.1555C523.058 54.9171 523.499 54.7215 524.021 54.5685C524.547 54.4111 525.161 54.2897 525.863 54.2042C526.403 54.1412 526.884 54.0782 527.307 54.0153C527.73 53.9523 528.072 53.8556 528.332 53.7251C528.593 53.5947 528.746 53.399 528.791 53.1381L528.859 52.7063C528.985 51.9551 528.857 51.3569 528.474 50.9116C528.092 50.4618 527.482 50.2369 526.646 50.2369C525.908 50.2369 525.247 50.4033 524.662 50.7362C524.077 51.0645 523.641 51.4806 523.353 51.9844L522.638 51.6942C522.917 51.1995 523.27 50.7879 523.697 50.4595C524.129 50.1312 524.601 49.886 525.114 49.7241C525.631 49.5621 526.158 49.4812 526.693 49.4812C527.156 49.4812 527.588 49.5464 527.988 49.6768C528.389 49.8073 528.731 50.0052 529.014 50.2706C529.302 50.536 529.506 50.8756 529.628 51.2894C529.754 51.6987 529.767 52.189 529.668 52.7603L528.467 60H527.644L527.961 58.131H527.901C527.658 58.5179 527.352 58.871 526.983 59.1903C526.619 59.5052 526.203 59.7571 525.735 59.946C525.267 60.1304 524.759 60.2227 524.21 60.2227ZM524.365 59.4602C525.013 59.4602 525.616 59.3028 526.173 58.9879C526.736 58.6686 527.208 58.2322 527.59 57.679C527.977 57.1257 528.227 56.4982 528.339 55.7965L528.602 54.2717C528.481 54.3616 528.317 54.4426 528.11 54.5146C527.903 54.582 527.671 54.6428 527.415 54.6967C527.163 54.7462 526.9 54.7912 526.625 54.8317C526.356 54.8677 526.092 54.9014 525.836 54.9329C525.067 55.0228 524.43 55.1623 523.927 55.3512C523.423 55.5356 523.034 55.7785 522.759 56.0799C522.489 56.3813 522.316 56.7456 522.24 57.1729C522.127 57.8791 522.271 58.4369 522.672 58.8462C523.076 59.2556 523.641 59.4602 524.365 59.4602ZM533.929 49.6364L536.034 54.2447L539.664 49.6364H540.649L536.439 54.8519L538.882 60H537.957L535.852 55.4862L532.242 60H531.257L535.441 54.7979L532.998 49.6364H533.929ZM545.236 46.1818L543.562 55.9719H542.753L544.332 46.1818H545.236ZM542.571 60.0877C542.368 60.0877 542.2 60.018 542.065 59.8786C541.934 59.7346 541.871 59.5614 541.876 59.359C541.885 59.1611 541.966 58.9924 542.119 58.853C542.272 58.7135 542.447 58.6438 542.645 58.6438C542.843 58.6438 543.009 58.7158 543.144 58.8597C543.284 58.9992 543.347 59.1656 543.333 59.359C543.329 59.494 543.29 59.6177 543.218 59.7301C543.146 59.8426 543.054 59.9303 542.942 59.9933C542.829 60.0562 542.706 60.0877 542.571 60.0877ZM550.294 53.0909C550.038 54.6293 549.602 56.1249 548.986 57.5778C548.374 59.0262 547.605 60.4093 546.678 61.7273H545.909C546.345 61.1155 546.75 60.4633 547.123 59.7706C547.497 59.0734 547.836 58.3559 548.142 57.6183C548.453 56.8761 548.718 56.1226 548.938 55.358C549.159 54.5933 549.332 53.8376 549.458 53.0909C549.629 52.0878 549.712 51.078 549.707 50.0614C549.703 49.0449 549.62 48.0598 549.458 47.1062C549.3 46.1526 549.071 45.2687 548.77 44.4545H549.539C550.025 45.7815 550.335 47.1714 550.47 48.6243C550.609 50.0727 550.551 51.5616 550.294 53.0909Z" fill="black"/>
</g>
<defs>
<filter id="filter0_d_17_2" x="271.134" y="44.4545" width="283.546" height="27.081" filterUnits="userSpaceOnUse" color-interpolation-filters="sRGB">
<feFlood flood-opacity="0" result="BackgroundImageFix"/>
<feColorMatrix in="SourceAlpha" type="matrix" values="0 0 0 0 0 0 0 0 0 0 0 0 0 0 0 0 0 0 127 0" result="hardAlpha"/>
<feOffset dy="4"/>
<feGaussianBlur stdDeviation="2"/>
<feComposite in2="hardAlpha" operator="out"/>
<feColorMatrix type="matrix" values="0 0 0 0 0 0 0 0 0 0 0 0 0 0 0 0 0 0 0.1 0"/>
<feBlend mode="normal" in2="BackgroundImageFix" result="effect1_dropShadow_17_2"/>
<feBlend mode="normal" in="SourceGraphic" in2="effect1_dropShadow_17_2" result="shape"/>
</filter>
</defs>
</svg>
