<svg width="197" height="252" viewBox="0 0 197 252" fill="none" xmlns="http://www.w3.org/2000/svg">
<path fill-rule="evenodd" clip-rule="evenodd" d="M109.413 95.829C103.259 96.133 93.6763 98.773 93.1973 100.46C92.4483 103.094 94.0563 112.97 91.3673 118.289C90.2213 120.557 85.8683 120.354 84.1823 121.092C78.5393 123.563 61.8343 128.249 58.3893 134.15C57.0093 136.514 48.5293 165.847 44.0233 180.812C43.5153 182.499 42.9413 184.06 42.3183 185.505L42.0883 184.382C40.2513 175.337 39.3333 169.862 39.3333 167.955C39.3333 164.977 41.7083 152.41 39.3333 149.214C36.9813 146.051 31.3153 143.464 28.7663 143.412L28.6893 143.411C27.0153 143.411 25.5633 142.888 24.3323 141.841L22.5273 140.933C13.3463 136.324 7.98232 133.796 6.43532 133.349C3.96632 132.635 -0.23468 134.156 1.86632 136.439C3.26631 137.961 6.78531 140.654 12.4233 144.518L14.5483 146.208L14.2913 146.342C11.5443 147.789 9.92931 149.007 9.44531 149.995C8.94731 151.014 9.18631 152.22 10.1633 153.612L10.0153 153.756C8.78032 154.969 8.16231 155.782 8.16231 156.196V158.219C6.93431 160.019 6.62732 161.52 7.24132 162.722C7.85532 163.924 8.82932 164.966 10.1633 165.847C11.1453 168.433 12.3163 170.274 13.6743 171.369C15.0323 172.464 17.3783 173.376 20.7143 174.104L23.7333 181.324L26.1783 191.468L27.4113 202.786L27.0533 203.045C25.3943 204.254 24.3323 205.15 24.3323 206.075C24.3323 207.518 31.0243 241.435 41.4363 242.953C43.6883 243.281 55.3663 241.671 59.2013 238.551L59.1443 238.888C58.2423 244.339 58.4333 247.17 59.7173 247.38C75.4963 249.968 120.309 250.768 194.157 249.779C194.597 210.569 192.61 184.456 188.197 171.439C176.911 138.149 164.468 126.778 160.115 125.804C156.302 124.951 143.079 119.687 139.382 118.289C136.969 117.377 136.452 114.642 133.703 114.642L133.48 114.643C130.821 114.67 128.463 115.146 127.138 113.778C123.662 110.188 124.634 105.218 123.191 100.46C122.397 97.838 116.966 95.456 109.413 95.829Z" fill="white"/>
<path fill-rule="evenodd" clip-rule="evenodd" d="M126.322 105.23C125.961 104.514 125.002 104.607 124.369 104.932C122.471 106.32 124.457 109.01 124.982 110.704C126.332 113.989 128.678 117.2 131.916 118.735C131.648 122.001 131.344 125.26 131.231 128.536C127.092 133.672 120.112 135.547 113.916 136.989C104.185 139.681 93.2023 134.166 89.9183 124.543C93.6563 122.418 94.8663 116.855 93.7503 112.974C93.6533 112.701 93.2313 112.581 93.0813 112.885C92.0573 114.991 92.1943 117.561 91.0303 119.641C79.8613 120.711 65.4463 124.927 58.1293 133.963C54.8863 138.484 53.6013 144.364 52.0043 149.603C48.5963 160.405 45.8813 171.425 42.5393 182.238L42.1453 180.192C41.0653 174.556 40.0843 168.844 40.8133 163.112L40.8263 162.838C41.0653 158.278 42.4913 149.803 38.9563 146.724C35.7583 144.279 31.1253 142.315 27.1123 143.442C19.9713 140.263 13.8073 134.909 6.20132 132.824C3.86032 132.342 0.493332 132.913 1.04633 136.089C2.57933 141.646 9.00134 143.802 13.3903 146.667C10.5773 147.43 7.14632 150.853 9.34532 153.838C9.36432 153.891 9.38133 153.931 9.39833 153.963C7.61533 154.754 7.36533 156.74 7.80232 158.444C7.84732 158.894 7.96533 158.507 7.70132 158.915C5.68933 160.813 6.57832 166.104 9.60933 166.283C9.41032 168.789 11.0203 171.224 13.0593 172.592C15.2563 174.065 18.4333 174.128 20.2533 176.144C24.5243 183.679 25.9973 192.573 26.4633 201.201C23.6473 202.255 21.1213 205.408 23.6793 208.082C23.7303 208.088 23.7803 208.094 23.8313 208.098C25.3143 212.057 25.8873 216.277 26.6713 220.412C27.8783 227.466 31.0223 233.944 35.0373 239.82C39.6803 247.6 52.1663 246.366 58.4563 241.346C58.4313 242.663 58.2143 243.972 58.6363 245.245C59.2583 246.619 60.7753 246.025 60.9263 244.673C64.2513 246.543 65.0343 240.368 61.3383 241.348C61.6223 236.884 61.7873 232.414 61.9213 227.942C66.1053 229.297 66.2863 222.352 62.0053 223.74L62.0103 221.82C62.0423 207.097 61.8793 192.324 59.9373 177.717C59.7573 176.624 59.4533 175.567 59.2763 174.481C59.2573 174.369 59.0813 174.401 59.0813 174.508C58.7803 194.959 60.1163 215.453 58.7223 235.91C57.5623 236.264 57.0993 237.596 56.2403 238.372C54.3323 240.134 51.7343 240.992 49.1943 241.291C42.0813 242.288 39.0103 240.115 35.8423 233.93C37.2713 234.885 39.2013 233.198 38.3303 231.686L38.3033 231.641C37.3993 230.039 34.8453 230.999 35.1683 232.793C31.9833 227.691 30.3163 221.937 29.0853 216.1L28.9193 215.403C28.3203 212.925 27.5443 210.085 26.1073 207.843C34.8703 205.608 43.4433 198.8 44.8153 189.46C47.0403 196.454 50.0543 203.29 52.9273 210.091C53.8143 212.456 54.1843 214.999 55.4563 217.193C55.7523 217.7 56.5023 217.569 56.6693 217.034C57.8133 211.918 54.3473 207.052 52.5473 202.447C51.0783 199.844 46.8593 187.958 44.2443 187.929C47.1833 175.044 51.1033 162.255 54.8353 149.529C58.4453 132.347 65.8013 129.034 81.3833 123.624C78.5733 137.953 65.7403 151.822 72.5693 166.851L72.7353 167.241C73.4333 168.898 74.0133 170.568 73.5263 172.387C73.0523 174.151 71.9753 175.684 71.1133 177.271C66.2943 186.237 69.6113 196.707 71.4743 206.044C73.8283 216.994 76.1533 227.953 78.5863 238.886C79.0653 241.067 79.3763 243.314 80.1003 245.427C80.4743 246.518 82.3403 246.414 82.2193 245.142C81.9893 242.673 81.2963 240.266 80.7893 237.842C77.7603 222.147 73.6613 206.637 71.0553 190.873C69.3783 179.204 75.9783 177.411 75.7323 169.872C74.8353 166.015 72.4603 162.574 72.5963 158.465C72.0693 145.886 81.2273 135.509 82.3583 123.275L84.3553 122.562C85.3533 122.205 86.3493 121.845 87.3433 121.476C82.1133 158.066 83.7013 195.455 86.3153 232.226C86.8503 233.923 86.3413 245.775 88.5813 244.723C88.6943 245.386 89.0453 246.037 89.8103 246.033C96.7553 246.097 103.701 246.207 110.645 246.29C113.986 245.982 118.577 247.258 121.418 245.33C124.699 244.393 125.076 235.506 125.953 232.338L126.295 230.034C131.869 192.391 136.857 153.971 132.85 115.955C138.425 116.169 139.576 122.188 139.989 126.57C141.023 136.242 147.269 144.571 147.569 154.354C147.594 156.728 147.147 159.027 146.198 161.206C143.682 166.545 139.33 172.718 142.583 178.681C146.429 183.323 146.096 184.545 144.685 190.281C140.714 209.246 134.118 227.478 127.845 245.764C129.208 252.871 137.407 226.487 138.178 224.497C141.808 226.323 143.79 220.264 139.627 219.833C142.301 210.879 144.762 201.859 146.811 192.74L146.865 192.483C147.77 188.269 149.55 183.335 146.544 179.598C138.793 171.757 151.664 162.993 150.041 153.494C151.443 154.534 153.565 153.44 153.533 151.693C153.597 149.727 150.956 148.72 149.686 150.22C148.379 142.513 143.834 135.786 142.459 128.102L142.397 127.741C141.931 125.025 141.8 122.168 140.466 119.693C142.281 120.872 144.214 121.825 146.202 122.666C142.648 125.637 149.531 128.347 148.961 123.759C168.455 129.401 172.861 137.269 180.018 155.337C178.681 154.038 176.391 155.719 177.191 157.376C177.829 159.122 180.614 158.612 180.613 156.751L180.94 157.529C185.28 167.91 189.23 178.544 191.215 189.654C187.321 189.104 188.312 195.33 191.84 193.574C193.256 203.455 193.279 213.476 193.106 223.436C189.821 221.713 189.722 227.568 193.074 225.898C192.951 234.061 192.772 242.223 192.637 250.385C192.609 252.123 195.288 252.114 195.33 250.385C195.643 237.844 196.213 225.279 195.942 212.734C196.197 190.959 189.94 169.972 180.617 150.466C172.367 128.007 160.972 125.453 140.008 118.923C138.073 116.049 133.938 113.332 130.564 115.136C128.677 112.088 127.719 108.478 126.322 105.23ZM162.242 183.506C162.164 183.229 161.768 183.298 161.756 183.571C161.58 187.094 161.737 190.641 161.978 194.179C162.124 196.339 162.303 198.497 162.455 200.642C162.859 206.302 163.184 211.968 163.431 217.639C163.345 217.603 163.256 217.571 163.163 217.546C162.736 217.429 162.309 217.429 161.883 217.546C161.502 217.652 161.169 217.838 160.883 218.106L160.822 218.165C160.587 218.382 160.421 218.641 160.323 218.939C160.185 219.204 160.115 219.487 160.115 219.79L160.117 219.866C160.118 220.302 160.226 220.705 160.446 221.082C160.659 221.443 160.947 221.73 161.308 221.946C161.684 222.164 162.088 222.272 162.523 222.273C162.569 222.278 162.616 222.282 162.662 222.284C162.986 222.297 163.287 222.229 163.567 222.083L163.609 222.071C163.714 224.947 163.801 227.826 163.864 230.704C163.921 233.213 163.997 235.722 164.048 238.23L164.072 239.485L164.118 242.259C164.133 243.399 164.125 244.492 164.513 245.567L164.559 245.691C164.838 246.41 165.056 247.41 165.802 247.809C166.397 248.128 167.2 248.01 167.542 247.388C167.83 246.868 167.581 246.12 167.156 245.769C167.164 245.746 167.177 245.725 167.187 245.702C167.253 245.511 167.352 245.332 167.411 245.14C167.598 244.531 167.547 243.882 167.549 243.25C167.549 242.134 167.511 241.018 167.481 239.904C167.416 237.533 167.34 235.164 167.247 232.795C166.933 224.847 166.342 216.899 165.664 208.974L165.435 206.299C165.128 202.741 164.811 199.18 164.363 195.641C164.342 195.472 164.321 195.303 164.297 195.134C164.538 195.014 164.762 194.847 164.94 194.661C165.652 193.913 166.083 192.795 166.488 191.832L166.581 191.613C167.021 190.586 167.426 189.546 167.635 188.443L167.655 188.341C167.751 187.872 167.939 187.039 167.441 186.811C167.181 186.693 167.017 186.777 166.932 187.037C166.921 187.071 166.93 187.109 166.949 187.139C166.744 187.454 166.423 187.748 166.22 188.039L165.526 189.032L165.183 189.531C164.747 190.172 164.283 190.785 163.803 191.389C163.425 188.735 162.962 186.091 162.242 183.506ZM133.775 242.661C132.907 241.98 131.493 242.35 131.493 243.605C131.493 244.867 132.909 245.231 133.775 244.55L133.818 244.518L133.859 244.484C134.331 244.116 134.347 243.156 133.895 242.756L133.859 242.726C133.832 242.703 133.805 242.682 133.775 242.661ZM171.601 240.207L171.527 240.209C171.134 240.209 170.768 240.308 170.428 240.507C170.28 240.619 170.134 240.733 169.987 240.847C169.716 241.118 169.53 241.439 169.427 241.809L169.348 242.388C169.338 242.688 169.399 242.967 169.537 243.227C169.625 243.497 169.775 243.732 169.987 243.929C170.185 244.142 170.418 244.292 170.688 244.379C170.926 244.505 171.18 244.569 171.452 244.569L171.527 244.567C171.922 244.567 172.287 244.468 172.627 244.269C172.775 244.157 172.921 244.043 173.069 243.929C173.337 243.658 173.525 243.337 173.629 242.967C173.654 242.775 173.679 242.58 173.707 242.388C173.717 242.088 173.654 241.809 173.519 241.549C173.43 241.278 173.28 241.044 173.069 240.847C172.87 240.634 172.638 240.483 172.368 240.397C172.129 240.271 171.873 240.207 171.601 240.207ZM72.7043 236.189L72.1503 236.263C71.6203 236.383 71.1933 236.774 70.9083 237.22C70.7563 237.459 70.6743 237.717 70.6613 237.994C70.6003 238.269 70.6123 238.546 70.6993 238.822C70.7623 239.093 70.8873 239.329 71.0713 239.53C71.1343 239.63 71.2083 239.721 71.2933 239.801C71.4663 240.091 71.7283 240.281 71.9983 240.475C72.2263 240.621 72.4743 240.699 72.7403 240.712C72.9153 240.758 73.0933 240.758 73.2703 240.712C73.5343 240.699 73.7813 240.621 74.0103 240.475C74.1453 240.372 74.2803 240.266 74.4133 240.162C74.5313 240.025 74.6413 239.883 74.7453 239.735C74.8143 239.573 74.8823 239.412 74.9503 239.251C75.0743 238.864 75.0133 238.522 74.9453 238.136C74.9353 238.07 74.9183 238.011 74.8953 237.947L74.8493 237.824C74.7273 237.503 74.6623 237.394 74.4473 237.115L74.3653 237.005C74.3243 236.95 74.2823 236.896 74.2333 236.848C74.0983 236.709 73.9063 236.592 73.7543 236.472C73.4293 236.284 73.0783 236.191 72.7043 236.189ZM144.433 234.836H144.362C144.056 234.838 143.768 234.915 143.502 235.069L143.156 235.337C142.945 235.551 142.799 235.8 142.716 236.09C142.697 236.242 142.676 236.394 142.655 236.544C142.647 236.779 142.695 236.998 142.803 237.203C142.87 237.415 142.989 237.596 143.156 237.753C143.31 237.918 143.494 238.036 143.705 238.106C143.889 238.202 144.088 238.253 144.299 238.253L144.362 238.252C144.671 238.252 144.958 238.174 145.224 238.019L145.571 237.753C145.782 237.54 145.928 237.288 146.01 236.998C146.029 236.846 146.05 236.696 146.071 236.544C146.08 236.309 146.031 236.09 145.923 235.887C145.854 235.675 145.738 235.492 145.571 235.337C145.416 235.17 145.233 235.052 145.021 234.984C144.837 234.887 144.642 234.838 144.433 234.836ZM158.375 234.137C157.934 234.133 157.486 234.257 157.125 234.513C156.774 234.762 156.508 235.031 156.337 235.434C156.29 235.545 156.244 235.652 156.203 235.762C156.022 236.246 155.988 236.732 156.239 237.206C156.482 237.664 157.006 237.865 157.476 238.002C157.872 238.121 158.322 238.14 158.718 237.998C158.914 237.928 159.106 237.854 159.284 237.747C159.615 237.542 159.795 237.298 160.017 236.998C160.19 236.703 160.277 236.381 160.277 236.039C160.277 235.694 160.19 235.375 160.017 235.077C159.677 234.496 159.047 234.141 158.375 234.137ZM180.77 234.545C180.212 234.545 179.722 234.803 179.386 235.238C179.046 235.68 178.921 236.229 179.071 236.777C179.23 237.356 179.709 237.863 180.303 238.009C180.742 238.116 181.101 238.112 181.539 238.038C181.909 237.975 182.191 237.755 182.475 237.527C182.798 237.262 182.897 236.781 182.844 236.392C182.794 236.003 182.614 235.749 182.341 235.519L182.34 235.513L182.441 235.591C182.403 235.557 182.365 235.521 182.327 235.485C182.314 235.464 182.304 235.441 182.293 235.418C182.137 235.151 181.925 234.942 181.661 234.786C181.385 234.625 181.089 234.545 180.77 234.545ZM50.7153 228.143C50.4093 228.061 50.1013 228.061 49.7943 228.143C49.5683 228.196 49.3723 228.299 49.2053 228.453C49.0353 228.564 48.8973 228.705 48.7933 228.88L48.7593 228.94C48.5183 229.35 48.4803 229.819 48.5843 230.275C48.7123 230.84 49.2323 231.353 49.7943 231.486L49.8133 231.49L49.8323 231.495C50.0603 231.567 50.2913 231.577 50.5193 231.525C50.7493 231.514 50.9633 231.446 51.1593 231.32C51.4083 231.159 51.6173 230.952 51.7783 230.702C51.9053 230.504 51.9723 230.29 51.9833 230.06C52.0233 229.908 52.0233 229.756 51.9833 229.603C51.9723 229.373 51.9053 229.159 51.7783 228.961L51.5083 228.612L51.4803 228.589C51.2643 228.373 51.0093 228.225 50.7153 228.143ZM71.9863 216.958C69.2163 216.958 69.2203 221.257 71.9863 221.257C74.7553 221.257 74.7513 216.958 71.9863 216.958ZM173.39 216.415C173.099 216.35 172.807 216.362 172.518 216.453C172.342 216.527 172.169 216.601 171.996 216.673L171.552 217.016C171.47 217.085 171.43 217.161 171.354 217.26L171.258 217.385C171.121 217.569 171.118 217.608 170.967 218C170.866 218.376 170.866 218.752 170.967 219.129C171.016 219.311 171.089 219.482 171.185 219.64C171.271 219.792 171.375 219.926 171.493 220.049L171.552 220.109C171.751 220.323 171.985 220.473 172.256 220.562C172.427 220.661 172.611 220.71 172.807 220.71C173.099 220.775 173.39 220.763 173.68 220.671C173.855 220.598 174.028 220.524 174.202 220.452L174.645 220.109L174.987 219.666L175.096 219.405L175.207 219.144L175.285 218.562C175.296 218.26 175.235 217.981 175.097 217.719C175.045 217.535 174.951 217.372 174.816 217.237C174.719 217.072 174.588 216.941 174.423 216.844C174.288 216.709 174.125 216.616 173.942 216.563C173.77 216.464 173.587 216.415 173.39 216.415ZM36.4003 213.344C36.1703 213.336 35.9543 213.384 35.7563 213.49C35.6863 213.513 35.6183 213.543 35.5533 213.577C35.2973 213.727 35.0943 213.929 34.9443 214.183C34.8223 214.378 34.7543 214.587 34.7443 214.813C34.6983 215.017 34.7023 215.222 34.7573 215.426L34.7753 215.487C34.8223 215.654 34.8913 215.808 34.9843 215.95C34.9933 215.967 35.0033 215.984 35.0163 215.999C35.1583 216.223 35.3463 216.406 35.5783 216.544C35.8363 216.692 36.1133 216.768 36.4133 216.77C37.0103 216.77 37.5263 216.447 37.8413 215.95C37.8853 215.88 37.9103 215.791 37.9423 215.72C37.9703 215.652 38.0143 215.566 38.0373 215.487C38.1173 215.187 38.1173 214.887 38.0373 214.587C37.9853 214.367 37.8853 214.175 37.7353 214.012C37.6153 213.828 37.4563 213.682 37.2603 213.577C37.0163 213.434 36.7543 213.359 36.4763 213.346L36.4003 213.344ZM153.341 211.241C153.049 211.161 152.758 211.155 152.467 211.223L152.394 211.241C152.162 211.296 151.961 211.402 151.788 211.558C151.596 211.685 151.442 211.852 151.33 212.059C151.169 212.336 151.089 212.636 151.087 212.957C151.089 213.279 151.169 213.579 151.33 213.855C151.488 214.124 151.702 214.335 151.97 214.494L152.202 214.606C152.396 214.728 152.604 214.794 152.828 214.804C152.977 214.845 153.128 214.845 153.275 214.804C153.428 214.804 153.569 214.767 153.7 214.69C153.844 214.65 153.966 214.578 154.072 214.473C154.256 214.354 154.399 214.198 154.505 214.001L154.676 213.598L154.735 213.15L154.676 212.704L154.583 212.484C154.499 212.182 154.346 211.92 154.125 211.698C153.903 211.478 153.641 211.326 153.341 211.241ZM48.5693 207.676C48.2613 207.579 47.9543 207.566 47.6483 207.633C47.4413 207.633 47.2473 207.686 47.0673 207.792C46.8703 207.847 46.7013 207.944 46.5583 208.088C46.3063 208.25 46.1103 208.466 45.9643 208.734L45.7323 209.286C45.5923 209.643 45.6433 210.17 45.7273 210.529C45.7973 210.825 45.9323 211.083 46.1333 211.302C46.2343 211.474 46.3703 211.609 46.5413 211.71C46.7363 211.889 46.9623 212.015 47.2183 212.09L47.2893 212.11L47.3143 212.116C47.3183 212.118 47.3223 212.118 47.3273 212.118C47.3293 212.12 47.3333 212.12 47.3353 212.12C47.4363 212.146 47.5403 212.16 47.6483 212.165C47.9543 212.232 48.2613 212.22 48.5693 212.123C48.7513 212.046 48.9343 211.968 49.1183 211.89C49.2743 211.772 49.4293 211.651 49.5853 211.531C49.7053 211.374 49.8263 211.218 49.9463 211.064C50.1163 210.8 50.2063 210.512 50.2193 210.205C50.2743 210.001 50.2743 209.798 50.2193 209.593C50.2193 209.383 50.1663 209.191 50.0633 209.011C49.9703 208.724 49.8113 208.477 49.5853 208.268C49.4293 208.147 49.2743 208.026 49.1183 207.908C48.9343 207.83 48.7513 207.752 48.5693 207.676ZM183.315 200.109C182.997 200.023 182.677 200.023 182.358 200.109L181.93 200.289C181.718 200.403 181.551 200.557 181.425 200.754C181.264 200.927 181.156 201.132 181.102 201.367C180.977 201.688 180.991 202.197 181.091 202.525C181.203 202.897 181.376 203.193 181.644 203.472C182.09 203.933 182.775 204.066 183.381 203.926C183.548 203.888 183.706 203.814 183.85 203.723C184.308 203.44 184.617 202.946 184.615 202.398C184.615 202.339 184.61 202.28 184.602 202.221C184.632 202.1 184.642 201.976 184.638 201.844L184.575 201.367L184.571 201.354C184.486 201.052 184.334 200.79 184.112 200.568C183.907 200.365 183.668 200.218 183.395 200.13L183.326 200.109H183.315ZM23.8953 152.651C24.4723 147.917 26.6423 142.825 33.2603 145.604L33.7523 145.789C35.3893 146.409 37.2983 147.224 38.2943 148.656C38.9813 149.643 38.7493 151.556 38.8443 152.708C39.2753 156.453 39.0443 160.193 38.5943 163.922C38.0143 172.663 39.8513 181.72 43.5093 189.664C39.8483 195.59 34.9493 201.116 28.2663 203.586C27.9833 196.849 26.6653 190.236 25.2623 183.662L25.2063 183.376C24.6453 180.411 24.3643 177.369 22.4183 174.904C18.4593 170.604 13.0153 173.038 10.4093 166.131C10.9573 165.854 10.6553 164.907 9.99533 165.089C7.71033 165.494 7.33934 161.257 8.90334 160.236C10.5323 159.242 8.89233 157.408 9.58633 156.085C9.97234 155.514 10.8073 155.495 11.1853 154.838C12.1883 152.418 7.17033 150.868 13.0713 148.14C14.2793 147.71 15.6293 147.976 16.8473 147.972C18.6393 148.139 20.0633 149.402 21.7023 149.799C19.9173 154.421 24.4203 158.872 28.4833 155.181C30.6953 157.271 33.1683 162.038 27.7923 159.816C25.1613 158.059 22.8963 155.789 19.8423 154.707L19.7783 154.687C18.6443 154.315 13.6833 151.904 13.9293 153.991C15.7873 155.785 18.8523 155.764 21.0043 157.22C23.9883 158.601 25.8963 161.945 29.4683 161.899C30.2913 166.901 24.6173 163.858 22.5053 162.478L21.9193 162.16C18.9383 160.55 15.9133 159.058 12.4383 159.038C11.4783 159.031 11.4833 160.511 12.4383 160.523C16.9673 160.552 20.6543 163.384 24.4483 165.49C24.8223 168.41 20.5483 167.132 18.9263 166.701C17.2253 166.462 14.4943 164.622 13.0063 165.594C12.4243 167.09 14.9853 166.979 15.8773 167.433C11.8063 169.389 15.3733 170.621 16.4643 167.614L16.7843 167.723C19.5113 168.64 26.1223 170.527 25.3353 165.907C26.3333 166.348 27.5503 166.612 28.6523 166.367C31.4023 170.436 35.7883 168.861 29.4133 166.088C30.8503 165.42 31.3293 162.839 29.9493 161.878C34.9683 161.572 31.2423 156.305 29.1653 154.549C29.3613 154.351 29.5513 154.149 29.7283 153.944C30.9263 154.515 32.1853 154.861 33.5313 154.984C34.8193 155.1 35.1063 152.906 33.8353 152.727C32.4723 152.534 31.2173 152.171 30.0173 151.486C28.1993 150.7 27.5783 154.076 25.7583 154.196C24.7653 154.392 24.0933 153.521 23.8953 152.651ZM66.1443 196.208C65.7043 196.208 65.3143 196.392 64.9953 196.683C64.6763 196.975 64.5383 197.413 64.5193 197.831C64.5113 198.055 64.5573 198.264 64.6593 198.459C64.7243 198.659 64.8363 198.833 64.9953 198.981C65.2903 199.274 65.7283 199.456 66.1443 199.456C66.5833 199.456 66.9743 199.272 67.2933 198.981C67.6123 198.687 67.7503 198.252 67.7693 197.831C67.7773 197.609 67.7303 197.4 67.6293 197.205C67.5703 197.025 67.4743 196.864 67.3393 196.728L67.2933 196.683C66.9973 196.387 66.5603 196.208 66.1443 196.208ZM52.8293 186.184L52.7583 186.185C52.3863 186.188 52.0423 186.281 51.7213 186.467C51.5813 186.574 51.4423 186.68 51.3043 186.788C51.0493 187.046 50.8743 187.348 50.7763 187.697C50.6773 188.06 50.6773 188.426 50.7763 188.789C50.8103 188.999 50.8883 189.202 51.0113 189.377C51.1933 189.679 51.4333 189.922 51.7383 190.102C52.0533 190.286 52.3933 190.377 52.7583 190.379C53.1233 190.377 53.4643 190.286 53.7793 190.102C54.0833 189.922 54.3243 189.679 54.5033 189.377C54.6283 189.202 54.7063 188.999 54.7403 188.789C54.8393 188.426 54.8393 188.06 54.7403 187.697C54.6503 187.373 54.4923 187.089 54.2653 186.844L54.2123 186.788C54.0263 186.587 53.8063 186.446 53.5503 186.363C53.3263 186.245 53.0853 186.185 52.8293 186.184ZM154.448 186.297C154.292 186.255 154.138 186.255 153.981 186.297C153.749 186.308 153.531 186.378 153.33 186.505C153.212 186.598 153.094 186.689 152.976 186.78L152.872 186.903C152.652 187.172 152.646 187.218 152.477 187.627C152.407 187.855 152.397 188.084 152.447 188.312C152.447 188.466 152.487 188.61 152.564 188.743C152.606 188.889 152.678 189.016 152.785 189.121C152.862 189.25 152.963 189.354 153.092 189.43C153.257 189.58 153.451 189.683 153.675 189.736L154.129 189.797C154.188 189.789 154.249 189.781 154.309 189.774C154.38 189.772 154.449 189.764 154.517 189.751L154.586 189.736L154.648 189.719C154.731 189.695 154.811 189.663 154.89 189.622C155.038 189.58 155.166 189.506 155.276 189.396C155.466 189.273 155.618 189.108 155.728 188.904L155.758 188.836C155.798 188.764 155.832 188.69 155.857 188.61C155.929 188.483 155.965 188.348 155.967 188.202C156.009 188.008 156.006 187.816 155.956 187.623L155.938 187.559L155.775 187.172C155.69 187.042 155.602 186.908 155.488 186.8C155.419 186.74 155.251 186.609 155.157 186.543L155.099 186.505C154.898 186.378 154.68 186.308 154.448 186.297ZM179.918 183.275C179.614 182.077 178.042 181.699 177.187 182.555C176.331 183.411 176.709 184.983 177.907 185.287L178.044 185.321C179.202 185.615 180.246 184.569 179.952 183.411L179.918 183.275ZM34.9103 173.5C34.9193 173.382 34.7673 173.34 34.6903 173.41C33.6723 174.323 33.0243 175.417 31.7883 176.125C30.5453 176.836 29.2653 176.778 27.9703 177.237C27.5313 177.393 27.5293 177.981 27.9703 178.135C30.4213 178.991 34.7243 176.089 34.9103 173.5ZM150.062 173.314C149.789 173.23 149.515 173.217 149.242 173.278C149.056 173.278 148.883 173.325 148.725 173.418C148.549 173.467 148.399 173.555 148.27 173.682C148.116 173.773 147.994 173.898 147.901 174.052C147.719 174.251 147.596 174.483 147.533 174.749L147.461 175.297L147.533 175.844C147.603 176.007 147.673 176.172 147.74 176.335L147.929 176.59C148.082 176.795 148.106 176.797 148.478 177.072C148.714 177.222 148.97 177.305 149.242 177.315C149.424 177.366 149.606 177.366 149.789 177.315C149.973 177.315 150.147 177.269 150.307 177.176C150.48 177.127 150.632 177.038 150.761 176.912C150.985 176.766 151.16 176.573 151.289 176.335C151.359 176.172 151.429 176.007 151.496 175.844L151.57 175.297L151.496 174.749L151.492 174.733C151.395 174.39 151.222 174.092 150.973 173.84L150.563 173.523C150.402 173.42 150.235 173.367 150.062 173.314ZM51.4403 173.724C50.8553 173.564 50.2123 173.733 49.7833 174.162C49.3543 174.591 49.1853 175.231 49.3463 175.817C49.5043 176.387 49.9633 176.85 50.5353 177.005C50.7063 177.051 50.8803 177.076 51.0553 177.068C51.3493 177.066 51.6233 176.992 51.8793 176.844L52.2093 176.588C52.3693 176.44 52.4813 176.265 52.5473 176.062C52.6503 175.868 52.6973 175.658 52.6883 175.432L52.6903 175.392C52.6973 175.312 52.6863 175.231 52.6613 175.153C52.6613 175.071 52.6483 174.99 52.6273 174.912C52.4733 174.342 52.0083 173.881 51.4403 173.724ZM177.601 168.001C177.413 167.995 177.237 168.033 177.075 168.119C176.904 168.174 176.758 168.267 176.635 168.403C176.5 168.525 176.407 168.673 176.352 168.842C176.266 169.005 176.227 169.181 176.234 169.368C176.234 169.616 176.297 169.846 176.42 170.057C176.492 170.151 176.563 170.243 176.635 170.334C176.804 170.505 177.005 170.622 177.237 170.687L177.373 170.734C177.571 170.806 177.766 170.81 177.973 170.783C178.19 170.753 178.391 170.694 178.568 170.558C178.742 170.457 178.879 170.319 178.98 170.146L179.097 169.871C179.122 169.779 179.132 169.639 179.139 169.542C179.139 169.527 179.139 169.514 179.141 169.499C179.141 169.417 179.116 169.216 179.095 169.134C179.048 168.961 178.953 168.796 178.845 168.656C178.752 168.511 178.625 168.396 178.469 168.312L178.455 168.301L178.439 168.291C178.391 168.257 178.34 168.223 178.289 168.187C178.078 168.064 177.848 168.001 177.601 168.001ZM68.5043 166.5C68.1663 166.5 67.8513 166.587 67.5603 166.756C67.5493 166.76 67.5393 166.765 67.5303 166.769C67.2513 166.934 67.0303 167.156 66.8653 167.435C66.6953 167.724 66.6113 168.037 66.6113 168.371C66.6113 168.707 66.6953 169.018 66.8653 169.307C67.0303 169.586 67.2513 169.808 67.5303 169.973C67.5393 169.979 67.5493 169.983 67.5603 169.988C67.8513 170.157 68.1663 170.241 68.5043 170.243C68.8403 170.241 69.1553 170.157 69.4463 169.988C70.0173 169.654 70.3743 169.03 70.3743 168.371C70.3743 167.711 70.0173 167.088 69.4463 166.756C69.1553 166.587 68.8403 166.5 68.5043 166.5ZM156.24 164.056L156.182 164.055C155.958 164.047 155.749 164.093 155.557 164.197C155.356 164.262 155.181 164.374 155.033 164.533L154.725 164.791L154.635 164.863C154.62 164.875 154.606 164.888 154.592 164.901C154.384 165.11 154.243 165.355 154.163 165.638C154.137 165.801 154.116 165.961 154.099 166.124C154.053 166.547 154.302 166.98 154.577 167.28C154.725 167.439 154.9 167.551 155.103 167.618C155.297 167.72 155.508 167.766 155.733 167.758C156.191 167.718 156.626 167.621 156.956 167.265C156.994 167.223 157.03 167.179 157.068 167.134L157.332 166.83C157.532 166.627 157.672 166.388 157.748 166.114C157.769 165.968 157.788 165.824 157.807 165.68C157.826 165.247 157.615 164.841 157.332 164.533C157.07 164.247 156.626 164.072 156.24 164.056ZM166.904 159.606C164.707 159.606 164.711 163.015 166.904 163.015C169.099 163.015 169.095 159.606 166.904 159.606ZM56.4363 154.826L56.3673 154.828C56.0033 154.83 55.6633 154.921 55.3483 155.104L54.9393 155.419C54.6893 155.673 54.5163 155.969 54.4193 156.311C54.3963 156.491 54.3723 156.671 54.3473 156.848C54.3363 157.127 54.3963 157.387 54.5223 157.628C54.6033 157.877 54.7423 158.095 54.9393 158.279C55.1223 158.475 55.3383 158.615 55.5893 158.695C55.8303 158.822 56.0903 158.881 56.3673 158.871C56.7323 158.868 57.0723 158.778 57.3873 158.594C57.5243 158.488 57.6603 158.382 57.7973 158.279C58.0273 158.045 58.1923 157.775 58.2913 157.465L58.3143 157.387L58.3883 156.848C58.3993 156.571 58.3403 156.311 58.2133 156.07C58.1333 155.819 57.9933 155.603 57.7973 155.419C57.6133 155.223 57.3953 155.083 57.1463 155.003C56.9263 154.887 56.6893 154.827 56.4363 154.826ZM66.3323 148.445C66.1363 148.438 65.9543 148.478 65.7833 148.567C65.6083 148.624 65.4553 148.724 65.3273 148.861C65.0543 149.079 64.8873 149.514 64.8873 149.867C64.8873 150.22 65.0543 150.656 65.3273 150.873C65.5043 151.048 65.7133 151.171 65.9543 151.239L66.3323 151.29C66.7003 151.307 67.0743 151.114 67.3363 150.873C67.3893 150.825 67.4393 150.776 67.4923 150.729C67.7313 150.51 67.8343 150.182 67.8493 149.867C67.8553 149.7 67.8193 149.544 67.7443 149.398C67.6953 149.246 67.6103 149.117 67.4923 149.005C67.4393 148.958 67.3893 148.91 67.3363 148.861C67.0503 148.597 66.7173 148.464 66.3323 148.445ZM3.63232 137.076C2.24432 135.385 3.05234 134.181 5.13834 134.599C8.73233 135.085 12.1143 137.357 15.2793 138.987C18.7343 140.812 22.2943 142.317 25.8183 144.032C24.3643 144.925 23.2823 146.323 22.4563 147.919C20.8073 146.666 18.7003 146.067 16.6423 145.989C12.9093 142.412 6.72733 141.593 3.63232 137.076ZM167.643 142.692C167.267 142.694 166.914 142.782 166.584 142.959L166.513 142.998L166.061 143.349C165.841 143.552 165.687 143.793 165.596 144.07C165.457 144.336 165.394 144.626 165.404 144.934C165.394 145.243 165.457 145.53 165.596 145.797C165.687 146.076 165.841 146.314 166.061 146.517C166.186 146.68 166.346 146.807 166.539 146.9C166.718 146.974 166.896 147.05 167.075 147.126C167.276 147.189 167.508 147.198 167.726 147.208C168.121 147.206 168.488 147.107 168.831 146.908L169.275 146.566C169.488 146.367 169.64 146.133 169.729 145.86C169.855 145.62 169.918 145.364 169.918 145.09L169.917 145.015C169.917 144.998 169.917 144.979 169.914 144.96C169.889 144.761 169.862 144.562 169.835 144.364C169.765 144.072 169.632 143.816 169.433 143.601C169.382 143.499 169.315 143.417 169.228 143.349C168.949 143.07 168.62 142.88 168.239 142.772C168.041 142.747 167.842 142.719 167.643 142.692ZM69.6163 137.092L69.5523 137.093C69.2673 137.093 69.0033 137.165 68.7573 137.307C68.6503 137.389 68.5443 137.471 68.4383 137.554C68.2423 137.75 68.1073 137.983 68.0333 138.249L67.9763 138.667C67.9693 138.885 68.0143 139.086 68.1133 139.274C68.1763 139.469 68.2843 139.638 68.4383 139.782C68.5803 139.936 68.7493 140.044 68.9453 140.107C69.1313 140.206 69.3343 140.251 69.5523 140.242C69.8353 140.242 70.1013 140.17 70.3463 140.027C70.4523 139.946 70.5603 139.864 70.6653 139.782C70.8433 139.601 70.9723 139.391 71.0493 139.152L71.0693 139.086L71.1263 138.667C71.1343 138.45 71.0903 138.249 70.9913 138.061C70.9273 137.865 70.8173 137.696 70.6653 137.554C70.5223 137.399 70.3523 137.292 70.1583 137.228C69.9893 137.139 69.8083 137.094 69.6163 137.092ZM155.295 134.803L155.221 134.804C154.801 134.806 154.41 134.912 154.047 135.123C153.89 135.244 153.734 135.364 153.577 135.487C153.288 135.776 153.089 136.119 152.977 136.514L152.895 137.131C152.882 137.452 152.95 137.75 153.096 138.027C153.189 138.317 153.349 138.566 153.577 138.778C153.786 139.004 154.036 139.164 154.325 139.258C154.602 139.403 154.9 139.471 155.221 139.458C155.642 139.458 156.032 139.352 156.396 139.141C156.552 139.021 156.708 138.898 156.867 138.778C157.154 138.486 157.353 138.143 157.465 137.75L157.547 137.131C157.56 136.812 157.492 136.512 157.347 136.235C157.254 135.948 157.093 135.696 156.867 135.487C156.655 135.259 156.406 135.098 156.117 135.005C155.861 134.87 155.588 134.804 155.295 134.803ZM77.0673 128.992C76.8743 128.941 76.6823 128.941 76.4903 128.992C76.2033 129.005 75.9343 129.091 75.6853 129.25L75.2483 129.588C75.2413 129.594 75.2353 129.601 75.2293 129.609C74.9653 129.875 74.7813 130.191 74.6803 130.552L74.6033 131.12C74.5933 131.414 74.6543 131.689 74.7873 131.943C74.8663 132.187 74.9983 132.399 75.1783 132.582L75.2483 132.65C75.4443 132.862 75.6753 133.012 75.9433 133.099C76.1123 133.198 76.2963 133.247 76.4903 133.247C76.7773 133.312 77.0673 133.3 77.3543 133.208C77.5253 133.134 77.6993 133.063 77.8723 132.991L77.9273 132.959C78.5803 132.602 78.9833 131.854 78.9833 131.12C78.9833 130.387 78.5803 129.637 77.9273 129.279C77.9073 129.271 77.8913 129.26 77.8723 129.25C77.6223 129.091 77.3543 129.005 77.0673 128.992Z" fill="black"/>
<path fill-rule="evenodd" clip-rule="evenodd" d="M79.0943 17.8267C90.3903 14.51 129.239 17.9098 130.199 18.6282C131.771 19.9349 139.419 24.0813 140.608 25.0279C151.367 36.4354 141.111 53.3756 141.9 67.1371C141.85 72.018 143.929 76.475 144.885 81.171C145.288 83.632 145.199 86.178 143.917 88.387C141.663 92.335 136.902 93.136 133.03 94.728C131.104 95.557 129.304 96.734 127.654 98.021C116.545 107.853 110.361 114.585 94.1513 112.367C94.0683 113.141 93.3823 113.902 92.5333 113.556C90.5423 112.745 88.5663 111.885 86.5593 111.117C86.1303 112.151 84.8973 112.446 84.0623 111.533L84.0583 111.539C80.3423 108.524 77.9783 104.401 76.2233 99.987C74.9953 97.44 73.9893 94.783 73.2203 92.047C73.1343 91.737 73.1453 91.461 73.2243 91.222C69.6773 78.997 68.3653 66.1124 69.2983 53.4194C69.4873 50.8005 69.9823 48.147 69.8603 45.5172C69.7513 43.1412 68.7273 40.8937 67.9473 38.6809C63.9253 29.2739 70.0743 20.7886 79.0943 17.8267Z" fill="white"/>
<path fill-rule="evenodd" clip-rule="evenodd" d="M77.6733 2.55311L77.5533 2.45971C76.2503 1.43751 75.0223 0.0979066 73.1863 0.600207C71.6803 1.01241 70.9193 2.25931 70.5963 3.76631C70.1373 3.28651 69.6923 2.78981 69.2563 2.27621C68.0733 0.881305 65.4303 1.60411 65.0773 3.38161C64.3633 6.96191 64.3273 10.6055 65.0223 14.1922C65.1283 14.7353 65.2533 15.2764 65.3993 15.8111C64.6063 14.8241 63.8693 13.7948 63.2083 12.7106C62.4923 11.5334 60.8733 12.1167 60.7613 13.3742C60.7323 13.6997 60.7153 14.0294 60.7113 14.3612C60.2063 14.5388 59.8573 15.0587 59.9903 15.697C60.7253 19.2096 61.6573 22.6736 62.7773 26.0785C60.9773 25.1232 58.9593 24.5568 57.0603 25.231C54.0433 26.3046 53.3253 29.5975 53.9143 32.4317C54.6563 35.9951 56.9883 38.9772 59.9963 40.9322C60.3533 41.469 60.7063 42.0101 61.0423 42.5617C61.0493 44.1194 61.3323 45.6728 61.9023 47.1163C62.5443 48.7374 63.6773 50.1386 65.0713 51.2038C65.5613 52.2714 66.8593 53.0512 67.9993 52.8351L68.0583 52.8228L68.0613 52.8249C67.7693 53.8689 67.5183 54.9236 67.3003 55.9803C65.6153 64.1676 66.4683 72.69 68.0053 80.831L68.0543 81.091C69.4343 88.336 71.0393 95.839 74.1603 102.566C76.9823 108.649 81.7683 113.998 88.6063 115.325C96.6513 116.887 105.556 114.412 112.475 110.285C114.983 108.788 112.684 104.845 110.187 106.366C106.583 108.56 102.668 110.092 98.5273 110.9C94.6573 111.652 90.3283 111.908 86.6163 110.348C81.4463 108.175 78.3753 102.868 76.4313 97.872C75.2863 94.924 74.4283 91.88 73.6303 88.824C72.6013 84.895 71.6423 80.941 70.9213 76.942C69.5803 69.484 69.1443 61.7375 70.5643 54.2578C71.0163 51.8717 71.6563 49.4707 72.4913 47.1628C72.6223 47.0001 72.7463 46.8183 72.8583 46.6196C73.7313 45.0895 74.3333 43.35 74.9823 41.6952C75.5503 40.7082 76.1713 39.7592 76.8303 38.8314C77.8163 38.0737 78.7543 37.2636 79.6143 36.3797C77.1173 34.762 74.9133 32.7369 73.3283 30.1571C73.0663 29.7317 73.2323 29.3251 73.5423 29.0957C74.8083 30.6802 76.4473 32.0221 78.1713 33.2109C79.0543 33.9676 80.0053 34.6473 81.0023 35.2615C81.7143 35.4024 82.4343 35.4992 83.1323 35.5787C85.1203 35.8048 87.1193 35.7203 89.0963 35.4561C93.3733 34.8855 111.457 29.9031 119.08 31.8399C120.667 32.2434 121.416 33.6681 122.257 35.0059C122.986 36.1696 123.914 37.1329 125.027 37.926L125.151 38.0135C127.327 39.5204 131.703 44.2876 133.542 48.5425C135.916 54.0359 138.198 70.498 137.148 70.64C134.401 71.012 132.88 72.457 130.642 74.009C130.494 74.11 130.581 74.385 130.771 74.315C132.248 73.782 133.845 73.467 135.394 73.21C136.794 72.975 138.269 72.933 139.621 73.434C141.696 74.203 142.708 75.942 143.124 77.904C143.287 78.671 143.359 79.472 143.367 80.264L143.368 80.494C143.367 82.993 142.902 85.763 141.088 87.607C140.317 88.391 139.271 88.919 138.176 89.065C136.978 89.226 136.239 88.685 135.138 88.404C133.87 88.08 132.882 88.915 133 90.004C132.732 90.238 132.472 90.485 132.214 90.737L132.212 90.739C132.043 90.815 131.882 90.917 131.737 91.039C131.498 91.242 131.297 91.464 131.137 91.703C130.78 91.773 130.437 91.971 130.156 92.335C129.577 93.081 129.043 93.835 128.546 94.605C127.657 95.549 126.772 96.496 125.899 97.458C124.849 98.614 123.827 99.796 122.798 100.971L122.282 101.558C121.727 102.19 121.173 102.822 120.62 103.456L120.455 103.642C119.898 104.266 119.471 104.726 119.411 105.624C119.369 106.29 120.085 106.742 120.679 106.59C121.594 106.354 122.019 105.635 122.567 104.922L123.396 103.859L124.175 102.858C124.562 102.359 124.953 101.862 125.342 101.366C125.458 102.281 126.425 103.018 127.308 103.059L127.514 103.067C129.588 103.136 132.108 102.843 133.687 101.38C134.396 102.097 135.28 102.661 136.368 102.999C138.84 103.769 141.367 102.406 142.366 100.332C144.303 101.163 146.492 101.33 148.586 100.719C149.793 100.365 150.211 98.859 149.369 97.938L149.331 97.897L149.322 97.886C149.495 97.661 149.591 97.384 149.606 97.083C149.625 96.717 149.359 96.33 149.413 95.988C149.623 94.687 151.745 95.651 152.419 95.933C152.548 95.987 152.669 96.012 152.782 96.016C153.825 96.32 154.958 94.95 154.412 93.818C153.189 91.291 151.995 88.744 150.757 86.22C150.914 86.273 151.074 86.322 151.233 86.362C153.457 86.933 156.155 85.838 155.642 83.156C155.524 82.526 154.953 82.095 154.387 81.9C153.284 81.52 152.456 81.795 151.607 81.44C150.65 81.042 149.65 80.313 148.809 79.626C147.912 78.895 147.136 78.073 146.45 77.181C146.175 75.885 145.7 74.647 144.939 73.582C144.893 73.518 144.846 73.455 144.798 73.393C149.675 72.23 149.036 67.4314 151.188 63.1787L151.37 62.8262C152.831 59.9815 154.106 56.7743 153.369 53.535C153.238 52.9623 153.048 52.4149 152.802 51.9034C153.193 51.952 153.586 51.9964 153.977 52.0408C154.875 52.1422 155.788 50.984 155.431 50.1323C155.243 49.6863 155.036 49.2552 154.812 48.8367C154.19 47.6827 153.428 46.6344 152.53 45.6876C154.038 45.6474 155.549 45.6474 157.04 45.4741C158.45 45.3114 159.931 44.5399 159.887 42.9147C159.844 41.365 158.484 40.192 157.224 39.436C155.984 37.7856 154.411 36.414 152.631 35.3946C152.983 35.3154 153.34 35.2568 153.702 35.2207L153.884 35.2046C154.9 35.1243 155.813 34.8453 156.734 34.4205C157.558 34.0401 157.545 32.8861 157.007 32.3049C155.265 30.4213 152.655 31.0347 150.625 32.114C150.766 31.9346 150.921 31.7617 151.09 31.5963L151.193 31.4979C152.19 30.5686 150.693 29.0773 149.699 30.0035C149.385 30.2962 149.103 30.6143 148.852 30.9514L148.828 30.9015C147.515 28.236 145.594 25.8502 143.321 23.9384L142.786 23.4941C138.687 20.0688 137.423 18.4453 131.971 18.9497C132.203 17.9591 132.181 16.8447 132.128 15.9284L132.121 15.8048C131.912 12.3598 130.642 8.23631 127.283 6.68921C126.411 6.28981 125.422 6.94281 125.654 7.94251C125.817 8.65061 126.015 9.3396 126.263 10.0095C125.53 9.2381 124.744 8.51741 123.911 7.85381C120.518 5.14851 115.984 2.82151 111.525 3.58241C109.074 4.00301 107.151 5.54161 105.1 6.82661C103.038 8.12011 100.735 8.88731 98.3203 9.16411C94.9463 9.55301 91.5603 9.162 88.2243 8.5449C85.9323 7.5452 83.7073 6.3743 81.5353 5.1126C80.2003 4.3369 78.9013 3.48941 77.6733 2.55311ZM137.576 77.377C136.861 77.194 136.06 77.196 135.344 77.375C133.496 77.84 131.776 79.387 131.668 81.338C131.62 82.219 132.329 83.063 133.153 83.289C134.087 83.547 134.89 83.09 135.435 82.359C136.02 81.577 136.166 80.729 136.882 80.019L137.048 79.858C137.657 79.276 138.577 78.523 139.422 78.658C139.547 78.677 139.64 78.508 139.513 78.44C138.824 78.064 138.372 77.58 137.576 77.377ZM127.973 68.1901C127.647 67.9238 127.216 68.2362 127.37 68.6191L127.382 68.6466C127.768 69.462 127.314 70.42 126.845 71.103C126.442 71.692 127.204 72.252 127.741 71.999C129.249 71.282 129.171 69.162 127.973 68.1901ZM122.459 43.6797C122.487 43.481 122.223 43.3986 122.155 43.5951C121.029 46.8647 120.706 49.7602 120.889 53.2179L120.907 53.5247C121.106 56.8552 121.689 60.3802 123.704 63.1154C124.17 63.7474 125.125 63.3754 124.971 62.5807C124.352 59.3999 123.163 56.3797 122.7 53.1608C122.216 49.7961 121.999 47.0465 122.459 43.6797ZM132.977 55.564C132.812 54.6912 131.471 53.7929 130.792 54.67C130.564 54.968 130.833 55.3337 131.107 55.4436C131.365 55.545 131.595 55.4055 131.849 55.4562C132.054 55.4977 132.204 55.6256 132.303 55.8006L132.324 55.8388C132.523 56.2192 133.047 55.936 132.977 55.564ZM133.526 48.6106C133.045 47.7187 131.935 47.1502 130.987 47.706C130.674 47.8899 130.797 48.4246 131.177 48.4077L131.402 48.3986C132.079 48.3739 132.755 48.3876 133.323 48.8156C133.45 48.9107 133.59 48.7311 133.526 48.6106ZM131.833 24.2529C134.535 23.0376 137.222 24.1347 139.428 25.8458C139.611 25.9874 139.7 26.1527 139.719 26.3188C138.246 25.745 136.677 25.3688 135.178 25.0583C133.952 24.8043 132.715 24.6329 131.476 24.5653C131.546 24.4408 131.659 24.3309 131.833 24.2529Z" fill="black"/>
<path fill-rule="evenodd" clip-rule="evenodd" d="M93.8473 97.274C95.2673 96.694 96.5343 95.727 97.4613 94.492C97.7833 94.063 97.8663 93.61 97.7993 93.195C97.7233 92.729 97.4473 92.306 97.0713 92.023C96.6943 91.738 96.2223 91.598 95.7663 91.67C95.3693 91.732 94.9753 91.949 94.6623 92.399L94.5973 92.489C94.0463 93.235 93.3293 93.846 92.5113 94.24C91.7233 94.62 90.8413 94.798 89.9293 94.695C88.1913 94.498 86.9943 93.558 85.7213 92.282C85.5633 92.121 85.4053 91.954 85.2473 91.786C85.1473 91.632 85.0073 91.534 84.8533 91.482C84.6823 91.425 84.4883 91.428 84.3103 91.49C84.1393 91.55 83.9863 91.663 83.8833 91.814C83.7863 91.958 83.7303 92.135 83.7483 92.338C83.8653 93.661 84.5563 94.842 85.5383 95.769C86.6293 96.798 88.0753 97.511 89.4363 97.76C90.9353 98.036 92.4633 97.839 93.8473 97.274ZM88.7283 76.866C87.1333 77.836 84.7023 80.098 86.4183 82.503C88.4393 84.624 91.3473 82.192 92.7803 81.093C94.1093 80.241 95.6033 82.432 94.3703 83.427C84.0133 91.098 79.8093 77.12 87.9213 75.725C88.8153 75.572 89.1463 76.566 88.7283 76.866ZM107.288 67.9426C107.112 65.7538 103.78 65.2568 103.448 67.4227C103.152 69.363 103.501 71.145 104.375 72.892C105.209 74.561 107.307 73.782 107.466 72.263C107.679 70.226 107.398 69.304 107.288 67.9426ZM81.9233 66.9736C81.4583 66.3649 80.7873 65.9494 79.9843 66.1842C77.4733 66.9182 78.2133 70.484 79.0953 72.22C79.5743 73.163 81.1233 73.402 81.8233 72.572C82.9643 71.218 83.5103 68.5154 82.0603 67.1822C82.0203 67.1133 81.9763 67.0438 81.9233 66.9736ZM104.41 58.3651L104.013 58.2957C102.786 58.0834 101.261 57.8794 100.393 58.8662C99.9323 59.3895 99.7743 60.3622 100.393 60.8631C101.481 61.7444 102.685 61.4029 103.989 61.4775C105.064 61.5392 106.097 61.7171 107.132 62.0132C109.404 62.6627 111.255 63.8484 113.195 65.1503C113.449 65.3211 113.709 64.9954 113.588 64.7572C112.468 62.5627 110.298 60.7601 108.124 59.6613C106.963 59.0748 105.694 58.5883 104.41 58.3651ZM84.2123 57.3821L83.9083 57.4442C80.6043 58.1351 76.3123 59.515 74.7483 62.7613C74.6883 63.2203 74.7513 63.3187 74.8023 63.3829L74.8193 63.4043C74.8623 63.4592 74.8953 63.5349 75.0943 63.5974C75.1493 63.5842 75.2053 63.5703 75.2613 63.5555C75.9793 63.3675 76.5463 63.1085 77.0953 62.8398L77.6913 62.5462C78.3823 62.2073 79.0793 61.8807 79.8183 61.6396C81.3943 61.1252 83.0163 60.7628 84.6623 60.5693C85.0193 60.5274 85.3633 60.4069 85.6343 60.2004C85.8913 60.0044 86.0883 59.733 86.1783 59.3722C86.2943 58.9053 86.2603 58.5518 86.0103 58.1306C85.8223 57.8143 85.5523 57.5951 85.2433 57.4692C84.9283 57.3408 84.5693 57.3106 84.2123 57.3821Z" fill="black"/>
</svg>
