<svg width="434" height="635" viewBox="0 0 434 635" fill="none" xmlns="http://www.w3.org/2000/svg">
<path fill-rule="evenodd" clip-rule="evenodd" d="M211.557 371.865C212.132 377.847 210.958 383.559 208.161 388.389L207.251 389.96L208.983 390.564C212.135 391.665 215.64 392.2 219.699 392.2C223.876 392.2 228.22 391.619 231.711 391.152L233.946 390.854L232.848 388.916C231.965 387.358 231.802 385.471 231.629 383.472C231.582 382.936 231.534 382.381 231.471 381.831C228.164 352.317 223.983 322.418 219.94 293.503C218.876 285.894 217.776 278.026 216.709 270.287L213.647 270.404C212.824 284.73 212.025 299.297 211.252 313.385C210.912 319.58 210.572 325.775 210.229 331.969C209.008 347.63 209.429 360.31 211.557 371.865ZM212.806 548.851C208.31 548.851 203.806 548.384 199.418 547.462C185.688 544.584 173.214 537.795 162.6 531.658C162.058 531.351 161.508 531.044 160.944 530.729C156.788 528.408 151.617 525.52 148.376 521.997C144.82 518.132 144.208 514.28 146.45 509.876L146.805 509.179L146.434 508.491C144.113 504.177 144.286 498.84 146.854 495.512L149.013 492.716L145.464 493.092C141.885 493.471 138.279 493.985 134.79 494.481C130.92 495.033 126.918 495.602 122.976 495.984L121.881 496.09L121.629 497.144C121.489 497.73 121.316 498.087 120.1 498.087C119.045 498.087 117.628 497.778 116.129 497.452C114.267 497.048 112.158 496.589 110.123 496.589C109.228 496.589 108.424 496.674 107.662 496.849L107.219 496.951L106.904 497.273C106.703 497.479 106.359 497.607 106.009 497.607C105.744 497.607 105.498 497.534 105.333 497.405L104.836 497.017L104.205 497.086C93.2171 498.291 83.7419 500.405 75.2396 503.548L75.2011 503.563L75.0167 503.642C71.9423 504.967 68.7637 506.337 65.8688 506.337C63.7526 506.337 62.0342 505.618 60.4604 504.075L60.0157 503.639L59.3883 503.633C53.023 503.575 50.1145 496.164 49.7124 491.197L49.6618 490.572L49.1766 490.165C38.0833 480.871 31.5343 468.106 29.1547 451.141C26.9874 435.687 28.6515 419.394 30.5651 405.494C34.9917 369.472 39.6086 337.179 51.3446 306.552L51.8929 305.12L50.4318 304.596C45.363 302.777 41.4891 300.608 38.5885 297.963L38.3877 297.779L38.1348 297.676C33.9778 295.971 31.9419 289.676 31.4168 287.788L31.3748 287.636L31.3014 287.495C30.4532 285.871 30.2576 283.611 30.7649 281.296L30.8192 281.046L30.7877 280.793C30.5138 278.594 31.423 276.296 32.3856 273.862C32.8254 272.75 33.2799 271.601 33.6121 270.456C34.7539 267.185 35.8945 263.857 36.9979 260.637C39.4734 253.413 42.0328 245.943 44.7595 238.677L45.1324 237.683L44.3109 236.998C42.9084 235.829 43.3768 234.452 45.3991 231.161C45.8769 230.383 46.3289 229.647 46.6725 228.923C49.2648 224.45 52.043 220.158 54.9315 216.161L54.991 216.079L55.0384 215.991C69.8602 188.354 96.1512 173.134 129.068 173.134L129.739 173.135L130.11 172.912C136.279 169.208 140.683 162.853 143.574 153.483L143.666 153.185L143.63 152.874C143.531 152.011 143.423 150.879 143.46 149.78C143.554 146.998 144.646 144.515 146.457 142.968C149.891 140.033 155.105 139.787 160.151 139.787L160.876 139.788C167.328 139.807 171.883 140.925 175.211 143.308C179.077 146.077 181.214 150.547 181.744 156.973C181.902 158.896 181.897 160.888 181.892 162.814L181.891 163.352L181.956 163.565C182.419 165.093 182.963 166.56 183.57 167.928L184.195 169.334L185.616 168.7C186.535 168.29 187.7 168.079 189.178 168.055C189.604 168.046 190.02 168.041 190.439 168.041C193.872 168.041 197.543 168.354 201.095 168.656C203.77 168.884 206.537 169.12 209.215 169.225L209.252 169.226C209.252 169.226 209.622 169.224 209.788 169.224C216.297 169.224 221.016 170.246 224.638 172.441C228.537 174.803 231.341 178.595 233.462 184.374C244.835 217.499 249.51 253.178 253.634 284.657C255.974 301.118 256.685 317.994 257.373 334.314C258.1 351.54 258.851 369.352 261.51 386.764L261.721 388.141L263.133 388.05C269.347 387.649 276.063 386.787 283.174 385.874C293.977 384.486 305.147 383.052 315.946 383.052C331.045 383.052 342.493 386.018 350.94 392.119C356.828 397.658 359.874 405.159 359.749 413.815C359.572 426.045 353.092 439.567 343.242 448.262L343.205 448.296C330.753 460.04 308.025 470.226 275.651 478.571C245.882 486.245 215.089 490.415 199.382 492.218L195.495 492.664L198.65 494.942C199.927 495.864 201.093 496.675 202.213 497.423L202.935 497.905L203.727 497.543C205.984 496.51 207.417 496.293 208.223 496.293C208.938 496.293 209.8 496.448 209.847 497.187C209.878 497.67 209.534 498.388 208.806 498.479L204.942 498.96L208.097 501.207C210.204 502.707 213.348 504.515 216.989 506.61C228.9 513.461 246.9 523.816 243.804 532.909L243.601 533.506L243.888 534.069C244.72 535.697 244.791 537.208 244.105 538.689C242.635 541.862 238.038 544.271 234.133 545.25L234.067 545.267L234.001 545.29C227.207 547.653 220.076 548.851 212.806 548.851Z" fill="white"/>
<path fill-rule="evenodd" clip-rule="evenodd" d="M199.735 490.437C200.205 489.96 200.402 489.335 199.964 488.601C198.268 486.439 194.752 487.917 192.564 488.417C191.738 487.731 190.918 487.042 190.128 486.316C190.402 484.616 188.355 483.485 187.514 482.174C186.688 481.208 185.911 480.111 184.921 479.301C182.508 477.422 179.163 478.693 176.362 478.607C174.205 475.868 171.984 473.215 169.932 470.385C172.297 466.417 172.464 461.768 171.679 457.347C207.953 443.605 239.351 417.587 278.583 411.573C279.932 411.349 280.688 409.712 280.352 408.511C277.615 401.991 238.289 418.815 232.411 421.862C215.073 430.151 198.832 440.482 181.982 449.598C178.468 451.462 174.603 452.463 170.761 453.432C164.857 434.085 154.869 416.351 147.211 397.698C147.708 396.838 148.131 395.935 148.491 395.007C148.237 405.265 158.229 405.121 159.609 395.39C159.04 400.463 162.882 411.326 168.427 404.198C169.727 402.407 170.189 400.114 170.409 397.801C170.694 399.401 171.017 400.992 171.376 402.579C172.799 405.722 176.685 401.9 177.588 400.261C178.109 400.167 178.596 399.93 178.953 399.64C188.758 401 200.307 400.922 207.502 393.193C219.705 397.867 233.211 393.68 245.553 391.813C270.668 388.93 295.882 384.536 321.222 384.872C332.536 385.528 345.883 387.351 353.039 396.989C362.218 410.882 357.03 429.646 346.904 441.673C322.546 472.463 238.936 485.851 199.735 490.437ZM200.42 501.528C200.863 501.409 201.31 501.301 201.754 501.198C208.863 507.107 242.347 522.453 239.8 531.62C238.9 532.76 236.745 533.019 235.383 533.388C233.011 534.028 230.615 534.583 228.197 535.022C220.379 536.442 212.282 536.69 204.475 535.07C201.602 534.634 199.009 533.411 196.393 532.228C187.94 528.515 178.629 524.413 170.217 520.731C159.529 516.501 140.783 508.164 148.493 494.097C155.798 502.3 165.069 501.583 169.74 491.388C171.35 488.293 172.756 484.121 176.539 482.87C178.535 481.523 181.086 481.243 182.754 482.744C182.874 482.557 182.982 482.295 183.041 482.063C184.921 484.734 186.542 487.547 188.745 489.988C187.988 490.029 180.114 495.847 182.438 495.85C185.234 494.412 188.011 493.214 191.03 492.44C193.218 494.637 195.624 496.68 198.117 498.569C195.696 500.166 193.521 502.121 191.771 504.242C191.62 504.429 191.805 504.671 192.03 504.57C194.747 503.362 197.54 502.3 200.42 501.528ZM236.461 541.164C209.266 553.36 180.476 539.78 157.285 525.301C151.933 522.317 144.892 518.087 145.975 511.063C149.917 516.821 156.416 520.1 162.654 522.943C173.133 527.672 183.682 532.25 194.188 536.922C195.18 540.208 199.925 540.334 202.793 541.063C215.558 543.535 229.279 542.307 241.293 537.378C240.598 539.434 238.323 540.377 236.461 541.164ZM127.96 493.676C127.289 493.762 126.616 493.84 125.945 493.916C126.014 493.028 125.478 492.14 124.616 491.865C125.003 489.983 125.147 488.038 124.939 486.129C126.063 489.027 129.689 488.147 131.992 487.312C135.283 486.419 138.553 485.458 141.805 484.434C143.088 486.813 144.447 489.156 146.117 491.31C140.038 491.85 134.016 492.922 127.96 493.676ZM125.284 484.56C125.123 484.901 124.892 485.261 124.887 485.67C124.723 484.26 124.402 482.868 123.915 481.533C124.371 482.542 124.828 483.551 125.284 484.56ZM121.448 477C118.457 473.109 112.93 469.928 107.821 471.012C107.493 471.083 107.485 471.61 107.821 471.676C114.684 472.607 120.712 478.042 120.95 485.07C121.491 488.25 119.275 491.373 120.022 494.425C119.873 494.435 119.724 494.443 119.578 494.453C119.524 494.657 119.475 494.839 119.411 494.998C120.153 495.121 120.371 496.312 119.496 496.524C118.978 496.65 118.437 496.715 117.885 496.743C115.087 495.989 112.135 495.815 109.46 494.7C106.813 493.532 107.475 490.251 106.541 487.978C105.856 485.357 105.069 482.747 104.076 480.232C104.005 480.03 103.73 480.075 103.707 480.28C103.007 485.297 103.03 490.399 103.199 495.457C102.281 495.55 101.368 495.654 100.452 495.767C100.511 494.354 96.2665 477.145 94.03 481.561C95.156 486.417 95.2919 491.489 95.4125 496.486C88.7722 497.578 82.2294 499.205 75.8635 501.42C71.3777 502.777 66.0426 506.792 61.6879 503.162C58.3152 500.378 57.1789 495.52 57.497 491.386C61.8828 466.926 96.523 464.069 116.972 465.877C118.903 470.327 120.871 474.761 122.864 479.185C122.451 478.423 121.979 477.692 121.448 477ZM51.7037 490.909C51.3293 485.355 52.2654 478.441 56.3871 474.302C65.8204 466.339 79.0291 463.834 90.817 460.951C96.308 459.869 101.874 459.15 107.463 458.792C109.445 458.636 111.964 459.084 113.364 457.465C114.085 459.17 114.816 460.873 115.547 462.576C92.0789 459.506 43.1168 470.17 56.8282 502.267C53.9246 499.127 52.001 495.303 51.7037 490.909ZM168.296 472.549C169.376 475.243 170.697 477.808 172.423 480.154C170.461 481.435 168.86 483.329 167.732 485.365C160.499 504.257 152.764 494.138 143.153 484C151.286 480.936 162.059 478.64 168.296 472.549ZM47.9067 487.065C29.099 468.516 25.4493 437.614 32.3973 413.324C33.0154 404.317 36.1701 395.733 38.9965 387.205C47.9964 361.336 59.833 336.448 74.0292 312.95C91.6417 317.78 109.223 322.739 126.877 327.41C129.308 327.938 131.742 328.979 134.238 329.131C135.13 329.698 136.026 330.324 136.954 330.873C135.602 337.485 136.849 344.234 137.164 350.886C137.451 356.122 136.885 361.25 136.19 366.431C135.413 373.968 132.214 398.482 138.624 402.97C140.796 404.017 142.738 400.917 143.674 401.769C144.518 401.181 145.305 400.417 145.946 399.575C148.421 407.566 152.466 414.979 154.964 422.977C158.288 434.731 169.204 453.757 166.78 464.969C164.905 471.893 156.703 473.386 150.783 475.649C143.943 478.025 137.026 480.206 129.996 481.977C126.564 474.705 123.284 467.365 120.065 459.997C105.353 426.004 92.3239 391.301 80.6797 356.185C80.4617 355.406 77.7841 346.961 77.2942 349.317C77.2531 349.075 76.9479 348.449 76.8325 348.984C78.8074 357.23 80.8103 365.473 82.9778 373.673C77.6533 372.929 71.9286 372.639 67.0555 375.244C66.8041 375.378 66.9888 375.708 67.2373 375.668C73.0081 374.669 78.574 376.556 84.1166 377.91C91.9007 404.365 101.945 430.148 112.576 455.609C109.288 454.562 105.471 455.72 102.039 455.803C91.2313 456.918 80.5464 459.279 70.3359 462.951C57.5016 467.106 48.4273 472.523 47.9067 487.065ZM37.5522 294.017C34.3926 290.619 31.9096 286.281 32.3895 281.678C34.2875 279.15 34.9159 275.854 36.0213 272.932C40.343 260.709 44.3543 248.392 49.0582 236.301C59.0635 239.373 68.9069 243.058 78.1918 247.898C79.8999 248.769 81.5901 249.672 83.2598 250.607C85.009 251.586 86.9172 253.286 89.0152 252.799C86.7223 256.04 82.0005 259.413 81.2029 263.158C81.031 264.344 81.8723 265.444 83.1649 265.179C103.399 279.529 124.294 293.576 143.42 309.559C157.742 320.88 168.737 330.061 173.649 348.429C176.96 360.327 176.97 372.762 176.483 384.996C176.388 387.374 176.385 389.808 176.193 392.202C176.48 393.993 175.934 397.638 173.918 397.703C173.964 398.137 174.108 398.538 174.336 398.891C174.272 398.977 174.205 399.058 174.136 399.141C174.036 398.652 173.938 398.165 173.846 397.675C172.276 390.734 172.066 382.68 172.328 375.29C172.438 373.171 169.183 373.221 169.001 375.29C168.511 380.877 168.021 386.464 167.532 392.048C166.944 395.668 167.87 400.402 164.972 403.154C162.025 400.435 163 395.072 163.143 391.564C163.374 385.841 163.623 380.12 163.836 374.397C163.902 372.583 160.894 372.116 160.552 373.96C159.586 379.217 158.539 384.458 157.413 389.685C156.734 391.705 156.267 400.77 152.871 399.196C150.848 397.817 152.307 389.727 152.04 387.049C152.166 381.747 152.24 376.452 152.63 371.163C152.789 369.029 149.309 368.575 148.832 370.659C148.057 374.031 147.316 377.403 146.644 380.798C145.169 386.522 145.705 394.28 140.381 398.084C138.295 383.217 141.296 368.454 141.717 353.64C141.465 348.84 140.64 344.088 139.911 339.346C139.106 334.102 138.636 328.394 140.522 323.337C140.006 321.072 137.98 327.198 137.79 327.708C136.264 324.706 132.548 324.474 129.608 323.539C123.076 321.427 116.384 319.836 109.775 317.959C92.2466 313.099 74.6983 308.314 57.145 303.539C50.1328 301.602 42.7513 299.309 37.5522 294.017ZM213.075 373.095C210.656 360.007 210.723 346.744 211.756 333.512C212.892 312.99 213.995 292.463 215.175 271.944C220.297 309.083 225.758 346.179 229.933 383.437C230.23 386.03 230.184 388.774 231.495 391.087C224.252 392.056 216.532 393.032 209.489 390.573C212.58 385.238 213.67 379.164 213.075 373.095ZM249.672 280.906C255.148 316.105 252.024 351.922 257.336 387.081C249.967 387.906 242.655 389.127 235.363 390.469C236.161 386.125 234.647 381.641 234.386 377.267C230.426 346.07 226.053 314.894 220.259 283.97C218.838 276.57 217.402 269.199 215.755 261.839C216.004 257.382 216.222 252.925 216.366 248.466C224.406 243.419 233.473 240.152 242.85 238.505C245.383 252.6 247.915 266.685 249.672 280.906ZM186.283 170.296C185.962 169.748 185.657 169.188 185.365 168.621C186.355 168.659 187.319 168.694 188.294 168.855C188.25 170.422 188.338 172.001 188.355 173.58C187.868 172.425 186.914 171.37 186.283 170.296ZM351.667 390.878C328.279 373.897 289.863 384.716 262.768 386.461C257.603 352.644 259.711 318.274 254.897 284.402C250.462 250.562 245.787 216.251 234.65 183.828C230.054 171.292 222.103 167.569 209.013 167.67C202.37 167.41 195.345 166.348 188.889 166.499C187.473 166.522 185.994 166.709 184.716 167.279C182.921 163.238 181.946 158.9 181.454 154.529C181.423 154.251 181.069 154.201 180.964 154.466C179.446 158.272 179.284 162.426 180.11 166.411C180.707 169.267 184.265 180.504 188.397 176.107C188.725 185.327 186.696 196.337 177.65 201.121C161.843 208.002 139.994 201.737 130.837 187.133C129.068 184.214 127.542 181.109 125.582 178.307C139.235 174.448 146.898 158.115 143.682 145.678C141.694 155.351 138.07 166.159 129.045 171.577C96.179 171.504 68.8539 186.449 53.4137 215.234C50.3924 219.414 47.5993 223.757 45.0397 228.176C43.6621 231.132 39.6279 235.244 43.0519 238.099C39.097 248.637 35.5884 259.322 31.8797 269.944C30.8612 273.483 28.5323 277.195 28.9968 280.916C28.4941 283.209 28.5172 285.92 29.6688 288.125C30.7614 292.055 33.2131 297.341 37.2786 299.009C40.7282 302.154 45.091 304.321 49.6409 305.953C37.5066 337.613 32.8876 371.758 28.7762 405.21C24.7467 434.474 22.6669 470.072 47.9148 491.222C48.4047 497.273 52.0003 504.984 59.1102 505.049C64.0343 509.877 70.0362 507.228 75.5172 504.868C84.7685 501.447 94.4711 499.551 104.112 498.493C105.146 499.301 106.828 499.167 107.749 498.226C113.589 496.882 121.684 502.325 122.863 497.394C130.394 496.665 137.842 495.298 145.365 494.501C142.194 498.607 142.423 504.663 144.811 509.1C138.729 521.044 152.895 527.96 161.556 532.86C173.249 539.62 185.46 546.035 198.833 548.837C210.59 551.306 222.906 550.557 234.25 546.613C240.211 545.117 248.536 540.206 244.999 533.287C249.483 520.12 217.997 506.477 208.736 499.883C212.521 499.412 212.66 491.567 202.814 496.075C201.623 495.28 200.454 494.46 199.297 493.626C239.123 489.055 315.183 476.481 344.006 449.3C359.841 435.324 368.977 407.054 351.667 390.878Z" fill="black"/>
<path fill-rule="evenodd" clip-rule="evenodd" d="M156.509 65.7731C194.516 63.9067 211.668 90.6289 212.777 102.564C213.547 110.85 208.645 120.399 208.645 127.803C208.645 131.582 213.278 139.695 211.121 145.202C206.32 157.462 196.154 171.067 183.2 171.067C170.246 171.067 153.387 174.645 139.073 154.179C137.73 152.259 120.742 141.345 119.092 130.974C114.981 105.142 129.389 67.1049 156.509 65.7731Z" fill="white"/>
<path fill-rule="evenodd" clip-rule="evenodd" d="M154.717 49.143C156.076 47.5905 158.37 46.9695 160.409 47.0897C163.37 47.265 165.946 49.0904 168.892 49.2256C171.981 49.3684 174.963 48.2991 178.06 48.7949C179.958 49.1004 181.839 49.9793 183.055 51.4617C187.268 50.2573 191.842 51.8523 194.525 55.3354C197.835 54.8221 201.436 57.0108 202.449 60.1956C206.654 60.3309 210.623 63.7037 211.092 67.9305C212.773 68.3737 214.232 69.5308 215.127 71.0605C216.168 72.8333 216.341 74.8666 216.153 76.8648C218.131 77.8739 219.137 80.0423 219.4 82.336C221.208 83.6832 221.993 86.1045 221.624 88.3907C223.008 89.1694 223.723 90.9823 223.716 92.5999C223.708 94.1098 223.307 95.4472 223.871 96.9043C224.374 98.2021 224.554 99.2836 224.278 100.643L224.25 100.775C224.201 100.997 224.16 101.21 224.123 101.419C224.497 101.747 224.814 102.158 225.052 102.637C225.919 104.384 225.79 106.378 225.128 108.15C225.418 109.279 225.381 110.472 224.953 111.557C225.755 112.71 226.176 114.124 226.052 115.591C225.913 117.234 225.162 118.705 224.023 119.793C224.326 122.037 223.413 124.462 221.76 126.042C221.995 127.385 221.792 128.793 221.057 130.067C220.532 130.974 219.826 131.651 219.011 132.122C219.038 132.871 218.936 133.638 218.687 134.406C218.34 135.471 217.753 136.453 216.98 137.244C217.441 140.188 215.675 143.455 212.568 144.281C212.307 144.351 212.058 144.382 211.82 144.387C211.511 147.219 210.837 150.012 209.793 152.664C207.14 159.417 202.316 165.321 196.024 169.004C192.912 170.825 189.417 172.072 185.848 172.593C183.281 172.968 180.811 172.876 178.233 172.62C174.998 172.297 171.748 171.814 168.604 170.983L168.098 170.848C166.794 170.5 165.42 170.097 164.291 169.395C163.027 168.609 162.37 167.397 162.079 165.97C161.917 165.175 162.421 164.321 163.292 164.304H163.348C163.538 164.308 163.727 164.301 163.919 164.289L164.063 164.279H164.07C164.08 164.277 164.085 164.277 164.095 164.277C164.18 164.264 164.263 164.239 164.346 164.227C165.304 164.066 166.142 164.225 167.042 164.524L167.154 164.562C168.669 165.083 170.171 165.566 171.736 165.925C173.353 166.293 174.991 166.586 176.633 166.816L176.796 166.836L176.846 166.843L176.871 166.846C176.876 166.846 176.881 166.846 176.886 166.848L177.37 166.909C177.752 166.954 178.133 166.994 178.514 167.034C179.216 167.104 179.918 167.159 180.62 167.199C192.739 167.88 202.918 158.352 205.989 146.929C207.103 142.795 207.176 138.671 206.847 134.544C206.742 134.244 206.679 133.911 206.682 133.545C206.682 133.355 206.692 133.167 206.704 132.977C206.296 128.986 205.586 124.992 205.142 120.985C204.623 116.305 204.334 111.598 204.44 106.888C204.492 104.562 204.741 102.258 205.067 99.9544L205.184 99.1268C203.711 98.8396 202.342 98.142 201.251 97.1321C198.884 98.4968 195.821 98.6178 193.485 97.1767C190.867 98.8161 187.21 98.9648 184.574 97.362C182.98 98.4978 180.973 98.9879 179.002 98.5567C178.116 98.3629 177.234 97.9434 176.479 97.3628C175.94 97.4577 175.395 97.4945 174.852 97.4662L174.74 97.5288C173.488 98.1873 172.102 98.6208 170.676 98.5724C169.619 98.5369 168.531 98.3288 167.524 97.9352C166.448 98.5837 165.27 99.0264 164.011 99.1852C162.171 99.4168 160.185 99.0104 158.655 97.9682C155.859 99.5588 152.42 99.8037 149.401 98.735C148.783 99.7804 147.928 100.682 146.926 101.377C147.106 102.018 147.163 102.702 147.101 103.36C147 104.443 146.728 105.414 146.283 106.286C146.752 107.259 146.893 108.454 146.631 109.654C146.257 111.366 145.26 112.854 143.969 114.014C143.855 116.744 142.355 119.305 139.914 120.728C139.791 120.799 139.668 120.858 139.545 120.911C139.437 121.058 139.309 121.188 139.161 121.297C137.609 122.729 135.153 122.615 133.207 121.806C133.17 121.808 133.132 121.811 133.094 121.812C132.399 121.829 131.926 121.559 131.644 121.161C131.361 121.176 131.08 121.206 130.797 121.258C129.764 121.451 128.63 121.822 127.695 122.303C125.268 123.549 124.144 125.753 123.808 128.402C123.442 131.292 124.275 134.236 126.514 136.192C127.602 137.144 128.994 137.74 130.408 137.99C131.97 138.268 133.64 137.584 134.794 138.924C135.025 139.189 135.183 139.56 135.057 139.918C134.666 141.035 134.022 141.463 133.014 141.618C134.47 143.343 135.965 145.011 137.62 146.561C139.41 148.241 141.261 149.869 142.876 151.722C144.584 153.682 146.126 155.761 147.196 158.14C147.808 159.507 148.3 160.917 148.829 162.316L148.924 162.56C149.514 164.047 150.299 165.481 149.391 167.034C149.03 167.645 148.212 168.236 147.46 168.138C145.341 167.868 144.631 166.438 143.979 164.575C143.488 163.168 143.112 161.72 142.583 160.326C142.484 160.067 142.376 159.812 142.263 159.558C141.041 159.898 139.698 159.628 138.607 158.932C137.442 159.448 136.152 159.705 134.905 159.683C133.236 159.654 131.711 159.191 130.4 158.356C130.296 158.328 130.191 158.302 130.087 158.272C128.093 159.035 125.757 158.898 123.952 157.662C122.782 156.862 121.983 155.793 121.529 154.603C120.018 154.575 118.523 154.04 117.441 152.97C116.447 151.987 115.866 150.719 115.693 149.402C114.393 149.145 113.174 148.517 112.217 147.46C111.419 146.576 110.934 145.452 110.77 144.284C109.186 143.832 107.758 142.8 106.978 141.36C106.252 140.02 106.147 138.566 106.502 137.243L106.41 137.111C104.778 136.258 103.533 134.862 103.405 132.869C103.369 132.301 103.431 131.733 103.585 131.196C103.529 130.595 103.565 129.995 103.722 129.414C101.528 127.283 100.733 123.86 101.924 121.03C99.7805 118.727 99.2138 115.083 100.786 112.349C99.7077 111.047 99.1536 109.387 99.2464 107.614C99.3617 105.401 100.377 103.467 101.593 101.677C100.691 100.68 100.209 99.2906 100.245 97.9484C100.295 96.0028 101.33 94.3277 102.627 92.9404C101.496 89.515 102.759 85.799 105.535 83.6306C104.974 82.7066 104.766 81.5623 104.949 80.4029C105.27 78.3772 106.792 76.9975 108.434 75.9057C108.091 74.7892 108.181 73.5845 108.728 72.4302C109.457 70.8902 110.834 69.9137 112.271 69.0873C112.642 65.6719 116.463 62.7547 119.668 64.5176C118.873 61.976 121.163 59.2316 123.796 58.9411C125.085 55.0399 129.531 52.581 133.528 53.55C135.571 50.7606 139.375 49.6866 142.605 50.8833C146.156 48.1664 150.562 47.7633 154.717 49.143ZM129.423 125.743C131.918 125.608 133.789 127.641 135.103 129.501C136.336 131.247 133.172 133.09 132.249 131.167C131.918 130.481 131.542 129.754 131.038 129.153C130.953 129.272 130.878 129.394 130.804 129.52L130.729 129.647C130.674 129.739 130.616 129.835 130.569 129.932C130.574 129.95 130.499 130.18 130.496 130.19C130.29 130.814 129.842 131.214 129.23 131.43C128.44 131.705 127.693 131.112 127.439 130.415C127.036 129.304 127.973 128.335 128.949 127.894C127.991 127.739 127.048 128.064 126.356 128.8C126.261 128.903 126.1 128.82 126.095 128.693C126.015 126.947 127.843 125.828 129.423 125.743Z" fill="black"/>
<path fill-rule="evenodd" clip-rule="evenodd" d="M190.273 151.782C188.426 152.316 186.443 152.364 184.56 151.812C182.852 151.312 181.098 150.21 179.841 148.753C178.725 147.458 178.002 145.885 178.03 144.205C178.033 144.014 178.102 143.854 178.208 143.729C178.321 143.596 178.48 143.504 178.65 143.464C178.825 143.423 179.01 143.437 179.168 143.509C179.311 143.573 179.433 143.683 179.509 143.844C179.702 144.097 179.895 144.347 180.088 144.59C181.641 146.505 183.145 147.936 185.481 148.449C186.748 148.728 188.014 148.604 189.175 148.179C190.418 147.724 191.542 146.924 192.422 145.901C192.82 145.438 193.29 145.249 193.749 145.246C194.27 145.243 194.784 145.484 195.172 145.87C195.553 146.25 195.808 146.765 195.831 147.305C195.852 147.778 195.697 148.273 195.286 148.714C193.93 150.168 192.174 151.232 190.273 151.782ZM190.216 127.796C192.11 128.945 194.995 131.625 192.958 134.475C190.56 136.987 187.108 134.106 185.407 132.804C183.829 131.794 182.057 134.391 183.52 135.57C195.814 144.658 200.802 128.096 191.174 126.444C190.114 126.262 189.72 127.44 190.216 127.796ZM172.503 122.738C171.894 122.35 171.178 122.216 170.385 122.577C169.765 122.858 168.677 123.797 167.921 125.031C167.403 125.875 167.036 126.865 167.112 127.897C167.13 128.136 167.041 128.313 166.901 128.444C166.791 128.547 166.631 128.623 166.444 128.646C166.285 128.666 166.107 128.648 165.962 128.603C165.687 128.517 165.541 128.339 165.486 128.193C164.956 126.788 165.185 125.22 165.778 123.805C166.58 121.896 168.035 120.296 168.989 119.781C170.621 118.898 172.546 118.858 174.18 119.757C175.571 120.522 176.441 121.758 177.306 123.017C177.49 123.285 177.673 123.551 177.861 123.812C178.239 124.335 178.277 124.854 178.131 125.299C177.968 125.792 177.555 126.208 177.038 126.426C176.56 126.627 176.005 126.655 175.514 126.448C175.099 126.274 174.719 125.933 174.478 125.356C174.072 124.383 173.397 123.309 172.503 122.738ZM203.412 124.903C202.995 125.12 202.669 125.185 202.207 125.047C201.951 124.97 201.699 124.823 201.501 124.626C201.305 124.43 201.163 124.186 201.108 123.916C200.973 123.25 200.608 122.626 200.087 122.219C199.642 121.871 199.081 121.687 198.458 121.791C197.786 121.903 197.145 122.333 196.704 122.841C196.557 123.011 196.441 123.203 196.325 123.395C196.108 123.753 195.897 124.086 195.597 124.349C195.483 124.449 195.312 124.519 195.146 124.519C195.079 124.519 195.011 124.508 194.945 124.488C194.276 123.817 194.148 123.308 194.169 122.804C194.192 122.275 194.401 121.739 194.738 121.239C195.53 120.067 197.033 119.106 198.048 118.888C199.437 118.59 200.817 118.948 201.923 119.723C203.062 120.52 203.905 121.758 204.168 123.153C204.231 123.489 204.204 123.852 204.076 124.166C203.951 124.473 203.733 124.736 203.412 124.903ZM175.567 110.239C174.733 111.05 173.746 111.176 172.748 111.288C172.193 111.35 171.75 111.401 171.314 111.499C170.117 111.769 168.933 112.176 167.853 112.761C166.724 113.373 165.493 114.112 164.608 115.057C164.398 115.283 164.199 115.519 164 115.755C163.819 115.971 163.645 116.179 163.461 116.379C163.249 116.609 163.049 116.851 162.849 117.091C162.726 117.294 162.702 117.344 162.677 117.396C162.639 117.474 162.596 117.561 162.546 117.655C162.478 117.784 162.398 117.924 162.315 118.052C162.176 118.284 162.102 118.349 162.037 118.377C161.93 118.425 161.829 118.448 161.731 118.436C161.639 118.424 161.552 118.379 161.466 118.307C161.038 117.946 160.912 117.353 160.925 116.724C160.944 115.769 161.297 114.712 161.622 114.063C162.378 112.553 163.426 110.983 164.687 109.856C166.125 108.57 167.699 107.596 169.506 106.925C170.629 106.508 171.93 106.125 173.154 106.174C174.035 106.208 174.875 106.47 175.57 107.123C175.996 107.524 176.201 108.094 176.201 108.663C176.201 109.244 175.988 109.829 175.567 110.239ZM205.108 117.667C205.055 117.754 204.982 117.814 204.9 117.85C204.815 117.887 204.719 117.898 204.627 117.883C204.536 117.867 204.449 117.826 204.38 117.763C204.314 117.702 204.264 117.622 204.242 117.524C203.688 115.096 202.613 113.29 200.319 112.125C199.191 111.552 197.893 111.188 196.664 110.898C196.307 110.813 195.93 110.759 195.55 110.703C194.36 110.53 193.161 110.331 192.384 109.37C191.917 108.791 191.72 108.051 191.831 107.374C191.936 106.736 192.309 106.152 192.987 105.801C194.675 104.93 196.773 105.785 198.478 106.514C198.605 106.568 198.729 106.621 198.85 106.672C200.517 107.375 202.038 108.302 203.288 109.629C204.28 110.681 205.199 112.237 205.569 113.837C205.877 115.169 205.804 116.528 205.108 117.667Z" fill="black"/>
</svg>
